<svg xmlns="http://www.w3.org/2000/svg" xmlns:xlink="http://www.w3.org/1999/xlink" xmlns:lucid="lucid" width="1941.16" height="1602.5"><g transform="translate(-879.3373456790124 -199.5)" lucid:page-tab-id=".Q4MUjXso07N"><path d="M500 0h2500v2000H500z" fill="#fff"/><path d="M901.4 1268a8 8 0 0 1 8-8h1504a8 8 0 0 1 8 8v232.38a8 8 0 0 1-8 8h-1504a8 8 0 0 1-8-8z" stroke="#333" fill="#e3fae3"/><path d="M902.1 1516.38a8 8 0 0 1 8-8h1502.6a8 8 0 0 1 8 8V1732a8 8 0 0 1-8 8H910.1a8 8 0 0 1-8-8z" stroke="#333" fill="#ffd9d9"/><path d="M900 748a8 8 0 0 1 8-8h1504a8 8 0 0 1 8 8v232.38a8 8 0 0 1-8 8H908a8 8 0 0 1-8-8z" stroke="#333" fill="#e3fae3"/><path d="M901.4 996.38a8 8 0 0 1 8-8H2412a8 8 0 0 1 8 8V1212a8 8 0 0 1-8 8H909.4a8 8 0 0 1-8-8z" stroke="#333" fill="#ffd9d9"/><path d="M1500 468a8 8 0 0 1 8-8h24a8 8 0 0 1 8 8v1284a8 8 0 0 1-8 8h-24a8 8 0 0 1-8-8zM1900 668a8 8 0 0 1 8-8h24a8 8 0 0 1 8 8v1084a8 8 0 0 1-8 8h-24a8 8 0 0 1-8-8zM2304 688a8 8 0 0 1 8-8h24a8 8 0 0 1 8 8v1064a8 8 0 0 1-8 8h-24a8 8 0 0 1-8-8z" stroke="#333" fill="#edf5ff"/><path d="M900 748a8 8 0 0 1 8-8h84a8 8 0 0 1 8 8v4.93a17.07 17.07 0 0 1-5 12.07 17.07 17.07 0 0 1-12.07 5H908a8 8 0 0 1-8-8z" fill="#cfe4ff"/><path d="M1000 740v20l-10 10h-90" stroke="#333" fill="none"/><path d="M900 748a8 8 0 0 1 8-8h1504a8 8 0 0 1 8 8v464a8 8 0 0 1-8 8H908a8 8 0 0 1-8-8zM900 989.6h20m15 0h20m15 0h20m15 0h20m15 0h20m15 0h20m15 0h20m15 0h20m15 0h20m15 0h20m15 0h20m15 0h20m15 0h20m15 0h20m15 0h20m15 0h20m15 0h20m15 0h20m15 0h20m15 0h20m15 0h20m15 0h20m15 0h20m15 0h20m15 0h20m15 0h20m15 0h20m15 0h20m15 0h20m15 0h20m15 0h20m15 0h20m15 0h20m15 0h20m15 0h20m15 0h20m15 0h20m15 0h20m15 0h20m15 0h20m15 0h20m15 0h20m15 0h20m15 0h15" stroke="#333" fill="none"/><use xlink:href="#a" transform="matrix(1,0,0,1,908,740) translate(-6.662654320987627 19.044444444444444)"/><use xlink:href="#b" transform="matrix(1,0,0,1,912,778) translate(73.89537037037039 17.955555555555552)"/><use xlink:href="#c" transform="matrix(1,0,0,1,912,778) translate(92.59907407407408 17.955555555555552)"/><use xlink:href="#d" transform="matrix(1,0,0,1,912,778) translate(149.95709876543208 17.955555555555552)"/><use xlink:href="#e" transform="matrix(1,0,0,1,912,778) translate(12.85895061728398 44.888888888888886)"/><use xlink:href="#f" transform="matrix(1,0,0,1,912,778) translate(19.093518518518547 44.888888888888886)"/><use xlink:href="#g" transform="matrix(1,0,0,1,912,778) translate(108.87129629629631 44.888888888888886)"/><use xlink:href="#h" transform="matrix(1,0,0,1,912,778) translate(146.27870370370368 44.888888888888886)"/><use xlink:href="#i" transform="matrix(1,0,0,1,912,997.6) translate(11.975617283950626 19.488888888888887)"/><path d="M900 1268a8 8 0 0 1 8-8h84a8 8 0 0 1 8 8v4.93a17.07 17.07 0 0 1-5 12.07 17.07 17.07 0 0 1-12.07 5H908a8 8 0 0 1-8-8z" fill="#cfe4ff"/><path d="M1000 1260v20l-10 10h-90" stroke="#333" fill="none"/><path d="M900 1268a8 8 0 0 1 8-8h1504a8 8 0 0 1 8 8v464a8 8 0 0 1-8 8H908a8 8 0 0 1-8-8zM900 1509.6h20m15 0h20m15 0h20m15 0h20m15 0h20m15 0h20m15 0h20m15 0h20m15 0h20m15 0h20m15 0h20m15 0h20m15 0h20m15 0h20m15 0h20m15 0h20m15 0h20m15 0h20m15 0h20m15 0h20m15 0h20m15 0h20m15 0h20m15 0h20m15 0h20m15 0h20m15 0h20m15 0h20m15 0h20m15 0h20m15 0h20m15 0h20m15 0h20m15 0h20m15 0h20m15 0h20m15 0h20m15 0h20m15 0h20m15 0h20m15 0h20m15 0h20m15 0h20m15 0h15" stroke="#333" fill="none"/><use xlink:href="#a" transform="matrix(1,0,0,1,908,1260) translate(-6.662654320987627 19.044444444444444)"/><use xlink:href="#b" transform="matrix(1,0,0,1,912,1298) translate(5.520370370370415 17.955555555555552)"/><use xlink:href="#c" transform="matrix(1,0,0,1,912,1298) translate(24.224074074074114 17.955555555555552)"/><use xlink:href="#j" transform="matrix(1,0,0,1,912,1298) translate(81.58209876543212 17.955555555555552)"/><use xlink:href="#k" transform="matrix(1,0,0,1,912,1298) translate(103.96419753086421 17.955555555555552)"/><use xlink:href="#l" transform="matrix(1,0,0,1,912,1298) translate(193.6172839506173 17.955555555555552)"/><use xlink:href="#m" transform="matrix(1,0,0,1,912,1298) translate(87.13086419753088 44.888888888888886)"/><use xlink:href="#n" transform="matrix(1,0,0,1,912,1298) translate(144.3641975308642 44.888888888888886)"/><use xlink:href="#i" transform="matrix(1,0,0,1,912,1517.6) translate(11.975617283950626 19.488888888888887)"/><path d="M1209.75 239.75c0 10.9-8.84 19.75-19.75 19.75-10.9 0-19.75-8.84-19.75-19.75 0-10.9 8.84-19.75 19.75-19.75 10.9 0 19.75 8.84 19.75 19.75z" stroke="#333" fill="#fff"/><path d="M1190 259.5v47.3a27.6 27.6 0 0 0 4.28 14.76L1230 378m-40-63.2l-40 63.2m0-98.75h80" stroke="#333" fill="none"/><path d="M1150 228a8 8 0 0 1 8-8h64a8 8 0 0 1 8 8v164a8 8 0 0 1-8 8h-64a8 8 0 0 1-8-8z" fill="none"/><use xlink:href="#o" transform="matrix(1,0,0,1,1070,378) translate(96.370987654321 17.955555555555552)"/><path d="M1410 228a8 8 0 0 1 8-8h204a8 8 0 0 1 8 8v164a8 8 0 0 1-8 8h-204a8 8 0 0 1-8-8z" stroke="#333" fill="#dedeff"/><use xlink:href="#p" transform="matrix(1,0,0,1,1430,220) translate(49.05 93.60000000000001)"/><path d="M1190 316.23v4.97m0 4.97v9.94m0 4.97V351m0 4.98v9.93m0 4.98v9.94m0 4.97v9.92m0 4.97v9.93m0 4.96v9.93m0 4.97v9.93m0 4.97v9.94m0 4.96v9.94m0 4.97v9.94m0 4.97v9.95m0 4.96v9.95m0 4.97v9.94m0 4.96v9.94m0 4.97v9.93m0 4.97v9.94m0 4.96v9.94m0 4.97v9.93m0 4.97v9.94m0 4.97v9.93m0 4.97v9.94m0 4.95V664m0 4.96v9.93m0 4.96v9.94m0 4.96v9.94m0 4.97v9.93m0 4.97v9.94m0 4.98v9.93m0 4.98v9.94m0 4.96v9.94m0 4.97v9.92m0 4.97v9.93m0 4.97v9.93m0 4.97v9.93m0 4.97v9.94m0 4.97v9.94m0 4.97v9.95m0 4.96v9.95m0 4.97v9.93m0 4.97v9.94m0 4.97v9.93m0 4.97v9.94m0 4.96v9.94m0 4.97v9.93m0 4.97v9.94m0 4.96v9.94m0 4.97v9.93m0 4.97v9.94m0 4.95v9.94m0 4.96v9.94m0 4.96v9.94m0 4.97v9.93m0 4.97v9.94m0 4.97v9.94m0 4.98v9.93m0 4.98v9.94m0 4.97v9.92m0 4.97v9.93m0 4.96v9.93m0 4.97v9.93m0 4.97v9.94m0 4.96v9.94m0 4.97v9.94m0 4.97v9.95m0 4.97v9.93m0 4.97v9.94m0 4.96v9.94m0 4.97v9.93m0 4.97v4.97M1190 1359.5v.5M1520 401v5m0 4.98v10m0 4.98v10m0 4.98v9.98m0 5v9.98m0 5v9.98m0 5v9.97m0 5v9.98m0 5v9.97m0 5v9.98m0 5v9.98m0 5v9.97m0 5v9.98m0 5v10m0 4.98v9.98m0 5v9.98m0 5v9.98m0 5v9.97m0 5v9.97m0 5v9.98m0 5v9.97m0 5v9.98m0 5v9.98m0 5v9.97m0 5v9.98m0 5v9.98m0 5v9.98m0 5v9.98m0 5v9.98m0 5v9.97m0 5v10m0 4.98v10m0 4.98v9.98m0 5v9.98m0 5v9.98m0 5v9.97m0 5v9.98m0 5v9.98m0 5v9.97m0 5v9.98m0 5v9.97m0 5v9.98m0 5v9.98m0 5v9.98m0 5v9.98m0 5v9.98m0 5v9.97m0 5v10m0 4.98v10m0 4.98v9.98m0 5v9.98m0 5v9.98m0 5v9.97m0 5v9.98m0 5v9.98m0 5v9.97m0 5v9.98m0 5v9.98m0 5v9.97m0 5v9.98m0 5v10m0 4.98v9.98m0 5v9.98m0 5v9.98m0 5v4.98" stroke="#333" fill="none"/><path d="M1520.47 401h-.94v-.5h.94z" stroke="#333" stroke-width=".05" fill="#333"/><path d="M1520 1359.5v.5" stroke="#333" fill="none"/><path d="M1810 228a8 8 0 0 1 8-8h204a8 8 0 0 1 8 8v164a8 8 0 0 1-8 8h-204a8 8 0 0 1-8-8z" stroke="#333" fill="#dedeff"/><use xlink:href="#q" transform="matrix(1,0,0,1,1830,220) translate(63.55 93.60000000000001)"/><path d="M1920 401v5m0 4.98v10m0 4.98v10m0 4.98v9.98m0 5v9.98m0 5v9.98m0 5v9.97m0 5v9.98m0 5v9.97m0 5v9.98m0 5v9.98m0 5v9.97m0 5v9.98m0 5v10m0 4.98v9.98m0 5v9.98m0 5v9.98m0 5v9.97m0 5v9.97m0 5v9.98m0 5v9.97m0 5v9.98m0 5v9.98m0 5v9.97m0 5v9.98m0 5v9.98m0 5v9.98m0 5v9.98m0 5v9.98m0 5v9.97m0 5v10m0 4.98v10m0 4.98v9.98m0 5v9.98m0 5v9.98m0 5v9.97m0 5v9.98m0 5v9.98m0 5v9.97m0 5v9.98m0 5v9.97m0 5v9.98m0 5v9.98m0 5v9.98m0 5v9.98m0 5v9.98m0 5v9.97m0 5v10m0 4.98v10m0 4.98v9.98m0 5v9.98m0 5v9.98m0 5v9.97m0 5v9.98m0 5v9.98m0 5v9.97m0 5v9.98m0 5v9.98m0 5v9.97m0 5v9.98m0 5v10m0 4.98v9.98m0 5v9.98m0 5v9.98m0 5v4.98" stroke="#333" fill="none"/><path d="M1920.47 401h-.94v-.5h.94z" stroke="#333" stroke-width=".05" fill="#333"/><path d="M1920 1359.5v.5" stroke="#333" fill="none"/><path d="M1269.74 480.47h-79.24v-.95h79.24zm233.88 0h-63.36v-.95h63.36zM1190.5 480.47h-.5v-.95h.5z" stroke="#333" stroke-width=".05" fill="#333"/><path d="M1518.38 480l-14.26 4.63v-9.27z" fill="#333"/><path d="M1519.92 480l-16.28 5.3v-10.6zm-15.33 3.98l12.25-3.98-12.26-3.98z" stroke="#333" stroke-width=".05" fill="#333"/><use xlink:href="#r" transform="matrix(1,0,0,1,1269.7422839649057,466.5323333333334) translate(0.0049999999999954525 17.955555555555552)"/><use xlink:href="#s" transform="matrix(1,0,0,1,1269.7422839649057,466.5323333333334) translate(53.49759259259258 17.955555555555552)"/><use xlink:href="#t" transform="matrix(1,0,0,1,1269.7422839649057,466.5323333333334) translate(119.39697530864196 17.955555555555552)"/><path d="M1519.5 570.76h-4.97v-.95h4.97zm-9.94 0h-9.94v-.95h9.94zm-287.82 0h-5.42v-.95h5.42zm-10.4 0h-4.96v-.95h4.97zm283.3 0h-6.38v-.95h6.4zM1520 570.76h-.5v-.95h.5z" stroke="#333" stroke-width=".05" fill="#333"/><path d="M1205.88 574.92l-14.26-4.64 14.26-4.63z" fill="#333"/><path d="M1206.36 575.57l-16.28-5.3 16.28-5.28zm-13.2-5.3l12.25 4v-7.97z" stroke="#333" stroke-width=".05" fill="#333"/><use xlink:href="#u" transform="matrix(1,0,0,1,1221.7361111253995,556.8141093923318) translate(0.0049999999999954525 17.955555555555552)"/><use xlink:href="#v" transform="matrix(1,0,0,1,1221.7361111253995,556.8141093923318) translate(57.36302469135801 17.955555555555552)"/><use xlink:href="#w" transform="matrix(1,0,0,1,1221.7361111253995,556.8141093923318) translate(175.63277777777773 17.955555555555552)"/><use xlink:href="#x" transform="matrix(1,0,0,1,1221.7361111253995,556.8141093923318) translate(198.01487654320982 17.955555555555552)"/><path d="M1219.27 640.47h-28.77v-.95h28.77zm284.35 0h-12.9v-.95h12.9zM1190.5 640.47h-.5v-.95h.5z" stroke="#333" stroke-width=".05" fill="#333"/><path d="M1518.38 640l-14.26 4.63v-9.27z" fill="#333"/><path d="M1519.92 640l-16.28 5.3v-10.6zm-15.33 3.98l12.25-3.98-12.26-3.98z" stroke="#333" stroke-width=".05" fill="#333"/><use xlink:href="#r" transform="matrix(1,0,0,1,1219.2734568044118,626.5323333333332) translate(0.0049999999999954525 17.955555555555552)"/><use xlink:href="#s" transform="matrix(1,0,0,1,1219.2734568044118,626.5323333333332) translate(53.49759259259258 17.955555555555552)"/><use xlink:href="#y" transform="matrix(1,0,0,1,1219.2734568044118,626.5323333333332) translate(119.39697530864196 17.955555555555552)"/><use xlink:href="#t" transform="matrix(1,0,0,1,1219.2734568044118,626.5323333333332) translate(220.3346296296296 17.955555555555552)"/><path d="M1569.72 680.48h-49.22v-.96h49.22zm333.9 0h-33.34v-.96h33.34zM1520.5 680.48h-.5v-.96h.5z" stroke="#333" stroke-width=".05" fill="#333"/><path d="M1918.38 680l-14.26 4.63v-9.26z" fill="#333"/><path d="M1919.92 680l-16.28 5.3v-10.6zm-15.33 3.98l12.25-3.98-12.26-3.98z" stroke="#333" stroke-width=".05" fill="#333"/><use xlink:href="#z" transform="matrix(1,0,0,1,1569.7157407407408,666.5333333333334) translate(0.0049999999999954525 17.955555555555552)"/><use xlink:href="#A" transform="matrix(1,0,0,1,1569.7157407407408,666.5333333333334) translate(122.45191358024688 17.955555555555552)"/><use xlink:href="#B" transform="matrix(1,0,0,1,1569.7157407407408,666.5333333333334) translate(164.7846296296296 17.955555555555552)"/><use xlink:href="#C" transform="matrix(1,0,0,1,1569.7157407407408,666.5333333333334) translate(213.4142592592592 17.955555555555552)"/><use xlink:href="#D" transform="matrix(1,0,0,1,1569.7157407407408,666.5333333333334) translate(238.3525308641975 17.955555555555552)"/><path d="M2210 228a8 8 0 0 1 8-8h204a8 8 0 0 1 8 8v164a8 8 0 0 1-8 8h-204a8 8 0 0 1-8-8z" stroke="#333" fill="#dedeff"/><use xlink:href="#E" transform="matrix(1,0,0,1,2230,220) translate(50.05 93.60000000000001)"/><path d="M2320 401v5m0 4.98v10m0 4.98v10m0 4.98v9.98m0 5v9.98m0 5v9.98m0 5v9.97m0 5v9.98m0 5v9.97m0 5v9.98m0 5v9.98m0 5v9.97m0 5v9.98m0 5v10m0 4.98v9.98m0 5v9.98m0 5v9.98m0 5v9.97m0 5v9.97m0 5v9.98m0 5v9.97m0 5v9.98m0 5v9.98m0 5v9.97m0 5v9.98m0 5v9.98m0 5v9.98m0 5v9.98m0 5v9.98m0 5v9.97m0 5v10m0 4.98v10m0 4.98v9.98m0 5v9.98m0 5v9.98m0 5v9.97m0 5v9.98m0 5v9.98m0 5v9.97m0 5v9.98m0 5v9.97m0 5v9.98m0 5v9.98m0 5v9.98m0 5v9.98m0 5v9.98m0 5v9.97m0 5v10m0 4.98v10m0 4.98v9.98m0 5v9.98m0 5v9.98m0 5v9.97m0 5v9.98m0 5v9.98m0 5v9.97m0 5v9.98m0 5v9.98m0 5v9.97m0 5v9.98m0 5v10m0 4.98v9.98m0 5v9.98m0 5v9.98m0 5v4.98" stroke="#333" fill="none"/><path d="M2320.47 401h-.94v-.5h.94z" stroke="#333" stroke-width=".05" fill="#333"/><path d="M2320 1359.5v.5" stroke="#333" fill="none"/><path d="M2013.55 720.48h-93.05v-.96h93.05zm290.07 0h-77.16v-.96h77.16zM1920.5 720.48h-.5v-.96h.5z" stroke="#333" stroke-width=".05" fill="#333"/><path d="M2318.38 720l-14.26 4.63v-9.26z" fill="#333"/><path d="M2319.92 720l-16.28 5.3v-10.6zm-15.33 3.98l12.24-3.98-12.25-3.98z" stroke="#333" stroke-width=".05" fill="#333"/><use xlink:href="#F" transform="matrix(1,0,0,1,2013.5447530864199,706.5333333333333) translate(0.0049999999999954525 17.955555555555552)"/><use xlink:href="#G" transform="matrix(1,0,0,1,2013.5447530864199,706.5333333333333) translate(96.7031481481481 17.955555555555552)"/><path d="M2319.5 800h-5.1m-5.13 0h-10.23m-5.12 0h-10.23m-5.12 0h-10.23m-5.12 0H2253m-5.1 0h-10.25m-5.1 0h-10.24m-5.1 0h-10.24m-5.1 0h-10.25m-5.1 0h-10.23m-5.12 0h-10.23m-5.1 0h-10.24m-5.12 0h-10.23m-5.12 0h-10.2m-5.1 0h-10.2m-5.1 0h-10.2m-5.1 0H2069m-5.1 0h-10.2m-5.1 0h-10.2m-5.1 0h-10.2m-5.1 0h-10.2m-5.1 0h-10.2m-5.1 0h-10.2m-5.1 0h-10.2m-5.1 0h-10.2m-5.12 0h-5.1M2319.5 800h.5" stroke="#333" fill="none"/><path d="M1921.62 800l14.27-4.63-.02 9.26z" stroke="#333" fill="#333"/><use xlink:href="#z" transform="matrix(1,0,0,1,2034.7422839506173,769.0666666666667) translate(0.0049999999999954525 17.955555555555552)"/><use xlink:href="#H" transform="matrix(1,0,0,1,2034.7422839506173,769.0666666666667) translate(122.45191358024688 17.955555555555552)"/><path d="M1919.5 840.48h-5.12v-.96h5.12zm-10.23 0h-10.23v-.96h10.23zm-15.35 0h-10.23v-.96h10.22zm-15.34 0h-10.23v-.96h10.23zm-15.35 0H1853v-.96h10.23zm-15.35 0h-10.23v-.96h10.23zm-15.34 0h-10.23v-.96h10.24zm-15.35 0h-10.24v-.96h10.23zm-15.35 0h-10.23v-.96h10.23zm-15.35 0h-10.23v-.96h10.23zm-15.35 0h-10.23v-.96h10.23zm-15.34 0h-10.22v-.96h10.23zm-54.5 0h-1.7v-.96h1.7zm-6.8 0h-10.2v-.96h10.2zm-15.3 0H1669v-.96h10.2zm-15.3 0h-10.2v-.96h10.2zm-15.3 0h-10.2v-.96h10.2zm-15.3 0h-10.2v-.96h10.2zm-15.3 0h-10.2v-.96h10.2zm-15.3 0h-10.2v-.96h10.2zm-15.3 0h-10.2v-.96h10.2zm-15.3 0h-10.2v-.96h10.2zm-15.3 0h-10.2v-.96h10.2zm-15.32 0h-5.1v-.96h5.1zm198.98 0h-1.76v-.96h1.76zM1920 840.48h-.5v-.96h.5z" stroke="#333" stroke-width=".05" fill="#333"/><path d="M1535.88 844.63l-14.26-4.63 14.27-4.63z" fill="#333"/><path d="M1536.36 845.3l-16.28-5.3 16.28-5.3zm-13.2-5.3l12.25 3.98v-7.96z" stroke="#333" stroke-width=".05" fill="#333"/><use xlink:href="#I" transform="matrix(1,0,0,1,1701.2962962962963,826.5333333333333) translate(0.004999999999999005 17.955555555555552)"/><path d="M1519.5 900.48h-4.98v-.96h4.98zm-9.97 0h-9.97v-.96h9.97zm-14.95 0h-9.97v-.96h9.98zm-14.96 0h-9.97v-.96h9.97zm-14.95 0h-9.97v-.96h9.97zm-14.96 0h-3.7v-.96h3.7zm-185.7 0h-3.12v-.96h3.13zm-8.08 0h-9.9v-.96h9.9zm-14.86 0h-9.9v-.96h9.9zm-14.86 0h-9.9v-.96h9.9zm-14.86 0h-4.96v-.96h4.96zM1520 900.48h-.5v-.96h.5z" stroke="#333" stroke-width=".05" fill="#333"/><path d="M1205.88 904.63l-14.26-4.63 14.26-4.64z" fill="#333"/><path d="M1206.36 905.3l-16.28-5.3 16.28-5.3zm-13.2-5.3l12.25 3.98v-7.96z" stroke="#333" stroke-width=".05" fill="#333"/><use xlink:href="#J" transform="matrix(1,0,0,1,1264.00648149577,886.5328333333333) translate(0.0049999999999954525 17.955555555555552)"/><use xlink:href="#K" transform="matrix(1,0,0,1,1264.00648149577,886.5328333333333) translate(91.02969135802466 17.955555555555552)"/><path d="M2319.5 1060.47h-4.9v-.94h4.9zm-9.82 0h-9.83v-.94h9.83zm-14.74 0h-9.82v-.94h9.82zm-14.73 0h-9.82v-.94h9.83zm-14.73 0h-9.82v-.94h9.82zm-14.73 0h-9.83v-.94h9.84zm-14.74 0h-9.82v-.94h9.82zm-209.58 0h-6.54v-.94h6.54zm-11.45 0h-9.82v-.94h9.82zm-14.73 0h-9.83v-.94h9.84zm-14.74 0h-9.82v-.94h9.82zm-14.73 0h-9.83v-.94h9.83zm-14.74 0h-9.82v-.94h9.83zm-14.73 0h-4.92v-.94h4.92zm279.96 0h-7.68v-.94h7.68zM2320 1060.47h-.5v-.94h.5z" stroke="#333" stroke-width=".05" fill="#333"/><path d="M1935.88 1064.63l-14.26-4.63 14.26-4.63z" fill="#333"/><path d="M1936.36 1065.3l-16.28-5.3 16.28-5.3zm-13.2-5.3l12.25 3.98v-7.96z" stroke="#333" stroke-width=".05" fill="#333"/><use xlink:href="#z" transform="matrix(1,0,0,1,2026.419135802469,1046.5333333333333) translate(0.0049999999999954525 17.955555555555552)"/><use xlink:href="#L" transform="matrix(1,0,0,1,2026.419135802469,1046.5333333333333) translate(122.45191358024688 17.955555555555552)"/><path d="M1922.67 1082.98l1.03 2.5-.88.36-.88-2.13-1.94-.8-1.94.8-1 2.43h-5.4v-.95h4.76l.9-2.2 2.68-1.1zm-16.07 3.15h-10.15v-.95h10.15zm-15.22 0h-10.14v-.95h10.14zm-15.2 0h-10.15v-.95h10.14zm-15.23 0h-10.14v-.95h10.15zm-15.2 0h-10.15v-.95h10.14zm-15.22 0h-10.15v-.95h10.14zm-15.22 0h-10.13v-.95h10.14zm-15.2 0h-10.15v-.95h10.15zm-136.93 0h-10.14v-.95h10.14zm-15.22 0h-10.14v-.95h10.15zm-15.2 0h-10.15v-.95h10.14zm-15.22 0h-10.15v-.95h10.15zm-15.22 0h-10.13v-.95h10.14zm-15.2 0h-10.14v-.95h10.14zm-15.22 0h-10.14v-.95h10.14zm-15.2 0h-10.15v-.95h10.14zm-15.23 0h-5.07v-.95h5.07zm243.43 0h-8.26v-.95h8.26z" stroke="#333" stroke-width=".05" fill="#333"/><path d="M1923.76 1086.13h-.5v-.95h.5z" stroke="#333" stroke-width=".05" fill="#333"/><path d="M1535.88 1090.3l-14.26-4.65 14.26-4.63z" fill="#333"/><path d="M1536.36 1090.94l-16.28-5.3 16.28-5.28zm-13.2-5.3l12.25 4v-7.97z" stroke="#333" stroke-width=".05" fill="#333"/><use xlink:href="#M" transform="matrix(1,0,0,1,1667.140811586711,1072.1866897945042) translate(0.005000000000002558 17.955555555555552)"/><use xlink:href="#N" transform="matrix(1,0,0,1,1667.140811586711,1072.1866897945042) translate(55.92907407407406 17.955555555555552)"/><path d="M1519.5 1140h-4.98m-5 0h-9.96m-4.98 0h-9.97m-4.98 0h-9.97m-4.98 0h-9.97m-5 0h-9.96m-4.98 0h-9.97m-5 0h-9.97m-4.98 0h-9.97m-5 0h-9.96m-4.98 0h-9.97m-5 0h-9.92m-4.96 0h-9.92m-4.95 0h-9.9m-4.96 0h-9.9m-4.96 0h-9.9m-4.95 0h-9.9m-4.97 0h-9.9m-4.96 0h-9.9m-4.96 0h-9.9m-4.96 0h-9.9m-4.96 0h-4.96M1519.5 1140h.5" stroke="#333" fill="none"/><path d="M1191.62 1140l14.26-4.64v9.27z" stroke="#333" fill="#333"/><use xlink:href="#O" transform="matrix(1,0,0,1,1272.2360912919773,1143.9999984190472) translate(0.0049999999999954525 17.955555555555552)"/><use xlink:href="#K" transform="matrix(1,0,0,1,1272.2360912919773,1143.9999984190472) translate(74.57043209876541 17.955555555555552)"/><path d="M2384 568a8 8 0 0 1 8-8h144a8 8 0 0 1 8 8v144a8 8 0 0 1-8 8h-144a8 8 0 0 1-8-8z" stroke="#333" fill="#fcfcca"/><use xlink:href="#P" transform="matrix(1,0,0,1,2404,560) translate(1.8938271604938421 30.622222222222224)"/><use xlink:href="#Q" transform="matrix(1,0,0,1,2404,560) translate(27.611419753086423 57.55555555555556)"/><use xlink:href="#R" transform="matrix(1,0,0,1,2404,560) translate(23.278395061728403 84.48888888888888)"/><use xlink:href="#S" transform="matrix(1,0,0,1,2404,560) translate(79.32716049382715 84.48888888888888)"/><use xlink:href="#T" transform="matrix(1,0,0,1,2404,560) translate(5.1669753086419945 111.4222222222222)"/><use xlink:href="#U" transform="matrix(1,0,0,1,2404,560) translate(103.67314814814813 111.4222222222222)"/><use xlink:href="#V" transform="matrix(1,0,0,1,2404,560) translate(7.660802469135817 138.35555555555555)"/><path d="M1261.7 1280.47h-71.2v-.95h71.2zm241.92 0h-55.32v-.95h55.32zM1190.5 1280.47h-.5v-.95h.5z" stroke="#333" stroke-width=".05" fill="#333"/><path d="M1518.38 1280l-14.26 4.63v-9.27z" fill="#333"/><path d="M1519.92 1280l-16.28 5.3v-10.6zm-15.33 3.98l12.25-3.98-12.26-3.98z" stroke="#333" stroke-width=".05" fill="#333"/><use xlink:href="#r" transform="matrix(1,0,0,1,1261.699691372313,1266.5323333333333) translate(0.0049999999999954525 17.955555555555552)"/><use xlink:href="#s" transform="matrix(1,0,0,1,1261.699691372313,1266.5323333333333) translate(53.49759259259258 17.955555555555552)"/><use xlink:href="#W" transform="matrix(1,0,0,1,1261.699691372313,1266.5323333333333) translate(119.39697530864196 17.955555555555552)"/><path d="M1569.72 1320.47h-49.22v-.94h49.22zm333.9 0h-33.34v-.94h33.34zM1520.5 1320.47h-.5v-.94h.5z" stroke="#333" stroke-width=".05" fill="#333"/><path d="M1918.38 1320l-14.26 4.63v-9.27z" fill="#333"/><path d="M1919.92 1320l-16.28 5.3v-10.6zm-15.33 3.98l12.25-3.98-12.26-3.98z" stroke="#333" stroke-width=".05" fill="#333"/><g><use xlink:href="#z" transform="matrix(1,0,0,1,1569.7157407407408,1306.5333333333333) translate(0.0049999999999954525 17.955555555555552)"/><use xlink:href="#A" transform="matrix(1,0,0,1,1569.7157407407408,1306.5333333333333) translate(122.45191358024688 17.955555555555552)"/><use xlink:href="#B" transform="matrix(1,0,0,1,1569.7157407407408,1306.5333333333333) translate(164.7846296296296 17.955555555555552)"/><use xlink:href="#C" transform="matrix(1,0,0,1,1569.7157407407408,1306.5333333333333) translate(213.4142592592592 17.955555555555552)"/><use xlink:href="#D" transform="matrix(1,0,0,1,1569.7157407407408,1306.5333333333333) translate(238.3525308641975 17.955555555555552)"/></g><path d="M1190 1360.5v5.04m0 5.05v10.08m0 5.05v10.1m0 5.04v10.1m0 5.03v10.1m0 5.04v10.1m0 5.04v10.1m0 5.04v10.1m0 5.04v10.1m0 5.03v10.1m0 5.03v10.1m0 5.04v10.1m0 5.04v10.1m0 5.05v10.1m0 5.03v10.1m0 5.04v10.1m0 5.04v10.1m0 5.04v10.1m0 5.03v10.1m0 5.04v10.1m0 5.04v10.1m0 5.05v10.1m0 5.04v10.08m0 5.05v10.1m0 5.03v10.1m0 5.04v10.1m0 5.04v10.1m0 5.04v10.1m0 5.04v10.1m0 5.03v5.05M1190 1799.5v.5M1520 1358.68v5.06m0 5.07v10.14m0 5.07v10.15m0 5.06v10.15m0 5.06v10.15m0 5.06v10.15m0 5.07v10.13m0 5.07v10.13m0 5.07v10.13m0 5.07v10.13m0 5.07v10.13m0 5.07v10.13m0 5.07v10.13m0 5.07v10.13m0 5.07v10.13m0 5.07v10.14m0 5.06v10.14m0 5.06v10.14m0 5.06v10.14m0 5.07v10.13m0 5.07v10.13m0 5.07v10.13m0 5.07v10.13m0 5.07v10.13m0 5.07v10.13m0 5.07v10.13m0 5.07v10.13m0 5.07v10.13m0 5.07v10.14m0 5.06v5.07M1520 1799.5v.5M1920 1360.5v5.05m0 5.04v10.08m0 5.05v10.1m0 5.04v10.1m0 5.04v10.1m0 5.04v10.1m0 5.04v10.1m0 5.04v10.1m0 5.04v10.1m0 5.03v10.1m0 5.03v10.1m0 5.04v10.1m0 5.04v10.1m0 5.05v10.1m0 5.04v10.08m0 5.04v10.1m0 5.04v10.1m0 5.04v10.1m0 5.04v10.1m0 5.03v10.1m0 5.04v10.1m0 5.05v10.1m0 5.04v10.08m0 5.05v10.1m0 5.03v10.1m0 5.04v10.1m0 5.04v10.1m0 5.04v10.1m0 5.04v10.1m0 5.03v5.05M1920 1799.5v.5M2320 1356.96v4.92m0 4.9v9.85m0 4.92v9.83m0 4.92v9.83m0 4.92v9.83m0 4.92v9.84m0 4.9v9.85m0 4.9v9.84m0 4.9v9.85m0 4.9v9.84m0 4.92v9.83m0 4.9v9.84m0 4.92v9.83m0 4.9v9.85m0 4.9v9.85m0 4.9v9.85m0 4.9v9.85m0 4.92v9.83m0 4.92v9.83m0 4.92v9.83m0 4.92v9.83m0 4.92v9.84m0 4.9v9.85m0 4.92v9.84m0 4.9v9.85m0 4.93v9.83m0 4.92v9.83m0 4.93v9.83m0 4.92v9.84m0 4.9v9.85m0 4.9v4.93M2320 1799.5v.5" stroke="#333" fill="none"/><path d="M2013.54 1360.47h-93.04v-.95h93.04zm290.08 0h-77.16v-.95h77.16zM1920.47 1360h-.94v-.5h.94z" stroke="#333" stroke-width=".05" fill="#333"/><path d="M2318.38 1360l-14.26 4.63v-9.27z" fill="#333"/><path d="M2319.92 1360l-16.28 5.3v-10.6zm-15.33 3.98l12.24-3.98-12.25-3.98z" stroke="#333" stroke-width=".05" fill="#333"/><g><use xlink:href="#F" transform="matrix(1,0,0,1,2013.5442530864198,1346.5323333333333) translate(0.0049999999999954525 17.955555555555552)"/><use xlink:href="#G" transform="matrix(1,0,0,1,2013.5442530864198,1346.5323333333333) translate(96.7031481481481 17.955555555555552)"/></g><path d="M2480 1288a8 8 0 0 1 8-8h304a8 8 0 0 1 8 8v264a8 8 0 0 1-8 8h-304a8 8 0 0 1-8-8z" stroke="#333" fill="#fcfcca"/><g><use xlink:href="#X" transform="matrix(1,0,0,1,2500,1280) translate(24.005864197530897 104.0888888888889)"/><use xlink:href="#Y" transform="matrix(1,0,0,1,2500,1280) translate(117.3996913580247 104.0888888888889)"/><use xlink:href="#Z" transform="matrix(1,0,0,1,2500,1280) translate(239.84660493827158 104.0888888888889)"/><use xlink:href="#aa" transform="matrix(1,0,0,1,2500,1280) translate(1.3743827160494106 131.02222222222224)"/><use xlink:href="#ab" transform="matrix(1,0,0,1,2500,1280) translate(112.91080246913582 131.02222222222224)"/><use xlink:href="#ac" transform="matrix(1,0,0,1,2500,1280) translate(130.30524691358025 131.02222222222224)"/><use xlink:href="#ad" transform="matrix(1,0,0,1,2500,1280) translate(241.2182098765432 131.02222222222224)"/><use xlink:href="#ae" transform="matrix(1,0,0,1,2500,1280) translate(26.686728395061763 157.95555555555555)"/><use xlink:href="#af" transform="matrix(1,0,0,1,2500,1280) translate(93.89537037037039 157.95555555555555)"/><use xlink:href="#w" transform="matrix(1,0,0,1,2500,1280) translate(174.8824074074074 157.95555555555555)"/><use xlink:href="#ag" transform="matrix(1,0,0,1,2500,1280) translate(197.2645061728395 157.95555555555555)"/><use xlink:href="#ah" transform="matrix(1,0,0,1,2500,1280) translate(95.82808641975309 184.88888888888889)"/></g><path d="M2217.2 1423.63h-10.24v-.95h10.23zm15.34 0h-10.23v-.95h10.24zm15.35 0h-10.25v-.95h10.24zm15.33 0H2253v-.95h10.23zm15.35 0h-10.23v-.95h10.23zm15.34 0h-10.23v-.95h10.22zm15.35 0h-10.23v-.95h10.23zm10.23 0h-5.1v-.95h5.1zm-387.67 0h-4.96v-.95h4.96zm14.85 0h-9.9v-.95h9.9zm14.86 0h-9.9v-.95h9.9zm14.85 0h-9.9v-.95h9.9zm14.85 0h-9.9v-.95h9.9zm14.86 0h-9.9v-.95h9.9zm14.86 0h-9.9v-.95h9.9zm13.78 0h-8.83v-.95h8.84z" stroke="#333" stroke-width=".05" fill="#333"/><path d="M1933.9 1430.8l-12.92-7.65 12.9-7.63z" fill="#333"/><path d="M1934.37 1431.62l-14.32-8.47 14.32-8.47zm-12.45-8.47l11.5 6.8v-13.6zM2320 1423.63h-.5v-.95h.5z" stroke="#333" stroke-width=".05" fill="#333"/><g><use xlink:href="#z" transform="matrix(1,0,0,1,2034.7422839506173,1409.6870642629865) translate(0.0049999999999954525 17.955555555555552)"/><use xlink:href="#H" transform="matrix(1,0,0,1,2034.7422839506173,1409.6870642629865) translate(122.45191358024688 17.955555555555552)"/></g><path d="M1531.83 1480.47h-4.96v-.94h4.96zm14.85 0h-9.9v-.94h9.9zm14.86 0h-9.9v-.94h9.9zm14.85 0h-9.9v-.94h9.9zm14.85 0h-9.9v-.94h9.9zm14.86 0h-9.9v-.94h9.9zm14.86 0h-9.9v-.94h9.9zm14.86 0h-9.9v-.94h9.9zm14.85 0h-9.9v-.94h9.9zm14.86 0h-9.9v-.94h9.9zm14.85 0h-9.9v-.94h9.9zm14.86 0h-9.9v-.94h9.9zm6.06 0h-1.1v-.94h1.1zm54.5 0h-10.22v-.95h10.23zm15.35 0h-10.23v-.95h10.23zm15.35 0h-10.23v-.95h10.23zm15.35 0h-10.23v-.95h10.23zm15.34 0h-10.24v-.95h10.23zm15.34 0h-10.23v-.95h10.24zm15.35 0h-10.25v-.95h10.23zm15.33 0H1853v-.95h10.23zm15.35 0h-10.23v-.95h10.23zm15.34 0h-10.23v-.95h10.22zm15.35 0h-10.23v-.95h10.23zm10.23 0h-5.12v-.95h5.12zm-179.04 0h-1.76v-.95h1.76z" stroke="#333" stroke-width=".05" fill="#333"/><path d="M1533.9 1487.64l-12.92-7.64 12.9-7.64z" fill="#333"/><path d="M1534.37 1488.47l-14.32-8.47 14.32-8.47zm-12.45-8.47l11.5 6.8v-13.6zM1920 1480.47h-.5v-.95h.5z" stroke="#333" stroke-width=".05" fill="#333"/><g><use xlink:href="#I" transform="matrix(1,0,0,1,1701.2962962962963,1466.5328333333332) translate(0.004999999999999005 17.955555555555552)"/></g><path d="M1519.5 1540.47h-4.98v-.95h4.98zm-9.97 0h-9.97v-.95h9.97zm-14.95 0h-9.97v-.95h9.98zm-14.96 0h-9.97v-.95h9.97zm-14.95 0h-9.97v-.95h9.97zm-14.96 0h-3.7v-.95h3.7zm-185.7 0h-3.12v-.95h3.13zm-8.08 0h-9.9v-.95h9.9zm-14.86 0h-9.9v-.95h9.9zm-14.86 0h-9.9v-.95h9.9zm-14.86 0h-4.96v-.95h4.96zM1520 1540.47h-.5v-.95h.5z" stroke="#333" stroke-width=".05" fill="#333"/><path d="M1205.88 1544.63l-14.26-4.63 14.26-4.64z" fill="#333"/><path d="M1206.36 1545.3l-16.28-5.3 16.28-5.3zm-13.2-5.3l12.25 3.98v-7.96z" stroke="#333" stroke-width=".05" fill="#333"/><g><use xlink:href="#J" transform="matrix(1,0,0,1,1264.00648149577,1526.5318333333335) translate(0.0049999999999954525 17.955555555555552)"/><use xlink:href="#K" transform="matrix(1,0,0,1,1264.00648149577,1526.5318333333335) translate(91.02969135802466 17.955555555555552)"/></g><defs><path d="M205 0l-28-72H64L36 0H1l101-248h38L239 0h-34zm-38-99l-47-123c-12 45-31 82-46 123h93" id="ai"/><path d="M24 0v-261h32V0H24" id="aj"/><path d="M59-47c-2 24 18 29 38 22v24C64 9 27 4 27-40v-127H5v-23h24l9-43h21v43h35v23H59v120" id="ak"/><path d="M100-194c63 0 86 42 84 106H49c0 40 14 67 53 68 26 1 43-12 49-29l28 8c-11 28-37 45-77 45C44 4 14-33 15-96c1-61 26-98 85-98zm52 81c6-60-76-77-97-28-3 7-6 17-6 28h103" id="al"/><path d="M114-163C36-179 61-72 57 0H25l-1-190h30c1 12-1 29 2 39 6-27 23-49 58-41v29" id="am"/><path d="M117-194c89-4 53 116 60 194h-32v-121c0-31-8-49-39-48C34-167 62-67 57 0H25l-1-190h30c1 10-1 24 2 32 11-22 29-35 61-36" id="an"/><path d="M141-36C126-15 110 5 73 4 37 3 15-17 15-53c-1-64 63-63 125-63 3-35-9-54-41-54-24 1-41 7-42 31l-33-3c5-37 33-52 76-52 45 0 72 20 72 64v82c-1 20 7 32 28 27v20c-31 9-61-2-59-35zM48-53c0 20 12 33 32 33 41-3 63-29 60-74-43 2-92-5-92 41" id="ao"/><path d="M24-231v-30h32v30H24zM24 0v-190h32V0H24" id="ap"/><path d="M108 0H70L1-190h34L89-25l56-165h34" id="aq"/><g id="a"><use transform="matrix(0.056172839506172814,0,0,0.056172839506172814,0,0)" xlink:href="#ai"/><use transform="matrix(0.056172839506172814,0,0,0.056172839506172814,13.481481481481476,0)" xlink:href="#aj"/><use transform="matrix(0.056172839506172814,0,0,0.056172839506172814,17.91913580246913,0)" xlink:href="#ak"/><use transform="matrix(0.056172839506172814,0,0,0.056172839506172814,23.53641975308641,0)" xlink:href="#al"/><use transform="matrix(0.056172839506172814,0,0,0.056172839506172814,34.770987654320976,0)" xlink:href="#am"/><use transform="matrix(0.056172839506172814,0,0,0.056172839506172814,41.45555555555554,0)" xlink:href="#an"/><use transform="matrix(0.056172839506172814,0,0,0.056172839506172814,52.690123456790104,0)" xlink:href="#ao"/><use transform="matrix(0.056172839506172814,0,0,0.056172839506172814,63.92469135802466,0)" xlink:href="#ak"/><use transform="matrix(0.056172839506172814,0,0,0.056172839506172814,69.54197530864195,0)" xlink:href="#ap"/><use transform="matrix(0.056172839506172814,0,0,0.056172839506172814,73.9796296296296,0)" xlink:href="#aq"/><use transform="matrix(0.056172839506172814,0,0,0.056172839506172814,84.0907407407407,0)" xlink:href="#al"/></g><path d="M33 0v-248h34V0H33" id="ar"/><path d="M101-234c-31-9-42 10-38 44h38v23H63V0H32v-167H5v-23h27c-7-52 17-82 69-68v24" id="as"/><g id="b"><use transform="matrix(0.06234567901234567,0,0,0.06234567901234567,0,0)" xlink:href="#ar"/><use transform="matrix(0.06234567901234567,0,0,0.06234567901234567,6.234567901234566,0)" xlink:href="#as"/></g><path d="M160-131c35 5 61 23 61 61C221 17 115-2 30 0v-248c76 3 177-17 177 60 0 33-19 50-47 57zm-97-11c50-1 110 9 110-42 0-47-63-36-110-37v79zm0 115c55-2 124 14 124-45 0-56-70-42-124-44v89" id="at"/><path d="M100-194c62-1 85 37 85 99 1 63-27 99-86 99S16-35 15-95c0-66 28-99 85-99zM99-20c44 1 53-31 53-75 0-43-8-75-51-75s-53 32-53 75 10 74 51 75" id="au"/><path d="M143 0L79-87 56-68V0H24v-261h32v163l83-92h37l-77 82L181 0h-38" id="av"/><g id="c"><use transform="matrix(0.06234567901234567,0,0,0.06234567901234567,0,0)" xlink:href="#at"/><use transform="matrix(0.06234567901234567,0,0,0.06234567901234567,14.96296296296296,0)" xlink:href="#au"/><use transform="matrix(0.06234567901234567,0,0,0.06234567901234567,27.432098765432094,0)" xlink:href="#au"/><use transform="matrix(0.06234567901234567,0,0,0.06234567901234567,39.90123456790123,0)" xlink:href="#av"/></g><path d="M135-143c-3-34-86-38-87 0 15 53 115 12 119 90S17 21 10-45l28-5c4 36 97 45 98 0-10-56-113-15-118-90-4-57 82-63 122-42 12 7 21 19 24 35" id="aw"/><g id="d"><use transform="matrix(0.06234567901234567,0,0,0.06234567901234567,0,0)" xlink:href="#ap"/><use transform="matrix(0.06234567901234567,0,0,0.06234567901234567,4.925308641975308,0)" xlink:href="#aw"/></g><path d="M96-169c-40 0-48 33-48 73s9 75 48 75c24 0 41-14 43-38l32 2c-6 37-31 61-74 61-59 0-76-41-82-99-10-93 101-131 147-64 4 7 5 14 7 22l-32 3c-4-21-16-35-41-35" id="ax"/><path d="M106-169C34-169 62-67 57 0H25v-261h32l-1 103c12-21 28-36 61-36 89 0 53 116 60 194h-32v-121c2-32-8-49-39-48" id="ay"/><path d="M85-194c31 0 48 13 60 33l-1-100h32l1 261h-30c-2-10 0-23-3-31C134-8 116 4 85 4 32 4 16-35 15-94c0-66 23-100 70-100zm9 24c-40 0-46 34-46 75 0 40 6 74 45 74 42 0 51-32 51-76 0-42-9-74-50-73" id="az"/><g id="f"><use transform="matrix(0.06234567901234567,0,0,0.06234567901234567,0,0)" xlink:href="#ax"/><use transform="matrix(0.06234567901234567,0,0,0.06234567901234567,11.22222222222222,0)" xlink:href="#ay"/><use transform="matrix(0.06234567901234567,0,0,0.06234567901234567,23.691358024691354,0)" xlink:href="#al"/><use transform="matrix(0.06234567901234567,0,0,0.06234567901234567,36.16049382716049,0)" xlink:href="#ax"/><use transform="matrix(0.06234567901234567,0,0,0.06234567901234567,47.38271604938271,0)" xlink:href="#av"/><use transform="matrix(0.06234567901234567,0,0,0.06234567901234567,58.60493827160493,0)" xlink:href="#al"/><use transform="matrix(0.06234567901234567,0,0,0.06234567901234567,71.07407407407406,0)" xlink:href="#az"/></g><path d="M84 4C-5 8 30-112 23-190h32v120c0 31 7 50 39 49 72-2 45-101 50-169h31l1 190h-30c-1-10 1-25-2-33-11 22-28 36-60 37" id="aA"/><g id="g"><use transform="matrix(0.06234567901234567,0,0,0.06234567901234567,0,0)" xlink:href="#au"/><use transform="matrix(0.06234567901234567,0,0,0.06234567901234567,12.469135802469133,0)" xlink:href="#aA"/><use transform="matrix(0.06234567901234567,0,0,0.06234567901234567,24.938271604938265,0)" xlink:href="#ak"/></g><path d="M115-194c55 1 70 41 70 98S169 2 115 4C84 4 66-9 55-30l1 105H24l-1-265h31l2 30c10-21 28-34 59-34zm-8 174c40 0 45-34 45-75s-6-73-45-74c-42 0-51 32-51 76 0 43 10 73 51 73" id="aB"/><path d="M179-190L93 31C79 59 56 82 12 73V49c39 6 53-20 64-50L1-190h34L92-34l54-156h33" id="aC"/><g id="h"><use transform="matrix(0.06234567901234567,0,0,0.06234567901234567,0,0)" xlink:href="#aB"/><use transform="matrix(0.06234567901234567,0,0,0.06234567901234567,12.469135802469133,0)" xlink:href="#am"/><use transform="matrix(0.06234567901234567,0,0,0.06234567901234567,19.888271604938268,0)" xlink:href="#au"/><use transform="matrix(0.06234567901234567,0,0,0.06234567901234567,32.3574074074074,0)" xlink:href="#aB"/><use transform="matrix(0.06234567901234567,0,0,0.06234567901234567,44.82654320987653,0)" xlink:href="#al"/><use transform="matrix(0.06234567901234567,0,0,0.06234567901234567,57.295679012345666,0)" xlink:href="#am"/><use transform="matrix(0.06234567901234567,0,0,0.06234567901234567,64.7148148148148,0)" xlink:href="#aj"/><use transform="matrix(0.06234567901234567,0,0,0.06234567901234567,69.6401234567901,0)" xlink:href="#aC"/></g><path d="M26 75v-336h71v23H56V52h41v23H26" id="aD"/><path d="M30 0v-248h187v28H63v79h144v27H63v87h162V0H30" id="aE"/><path d="M3 75V52h41v-290H3v-23h71V75H3" id="aF"/><g id="i"><use transform="matrix(0.06234567901234567,0,0,0.06234567901234567,0,0)" xlink:href="#aD"/><use transform="matrix(0.06234567901234567,0,0,0.06234567901234567,6.234567901234566,0)" xlink:href="#aE"/><use transform="matrix(0.06234567901234567,0,0,0.06234567901234567,21.197530864197525,0)" xlink:href="#aj"/><use transform="matrix(0.06234567901234567,0,0,0.06234567901234567,26.12283950617283,0)" xlink:href="#aw"/><use transform="matrix(0.06234567901234567,0,0,0.06234567901234567,37.34506172839505,0)" xlink:href="#al"/><use transform="matrix(0.06234567901234567,0,0,0.06234567901234567,49.814197530864185,0)" xlink:href="#aF"/></g><g id="j"><use transform="matrix(0.06234567901234567,0,0,0.06234567901234567,0,0)" xlink:href="#ap"/><use transform="matrix(0.06234567901234567,0,0,0.06234567901234567,4.925308641975308,0)" xlink:href="#aw"/></g><g id="k"><use transform="matrix(0.06234567901234567,0,0,0.06234567901234567,0,0)" xlink:href="#am"/><use transform="matrix(0.06234567901234567,0,0,0.06234567901234567,7.4191358024691345,0)" xlink:href="#al"/><use transform="matrix(0.06234567901234567,0,0,0.06234567901234567,19.888271604938268,0)" xlink:href="#ak"/><use transform="matrix(0.06234567901234567,0,0,0.06234567901234567,26.122839506172834,0)" xlink:href="#aA"/><use transform="matrix(0.06234567901234567,0,0,0.06234567901234567,38.59197530864196,0)" xlink:href="#am"/><use transform="matrix(0.06234567901234567,0,0,0.06234567901234567,46.0111111111111,0)" xlink:href="#an"/><use transform="matrix(0.06234567901234567,0,0,0.06234567901234567,58.48024691358023,0)" xlink:href="#al"/><use transform="matrix(0.06234567901234567,0,0,0.06234567901234567,70.94938271604937,0)" xlink:href="#az"/></g><g id="l"><use transform="matrix(0.06234567901234567,0,0,0.06234567901234567,0,0)" xlink:href="#aB"/><use transform="matrix(0.06234567901234567,0,0,0.06234567901234567,12.469135802469133,0)" xlink:href="#am"/><use transform="matrix(0.06234567901234567,0,0,0.06234567901234567,19.888271604938268,0)" xlink:href="#au"/><use transform="matrix(0.06234567901234567,0,0,0.06234567901234567,32.3574074074074,0)" xlink:href="#aB"/><use transform="matrix(0.06234567901234567,0,0,0.06234567901234567,44.82654320987653,0)" xlink:href="#al"/><use transform="matrix(0.06234567901234567,0,0,0.06234567901234567,57.295679012345666,0)" xlink:href="#am"/><use transform="matrix(0.06234567901234567,0,0,0.06234567901234567,64.7148148148148,0)" xlink:href="#aj"/><use transform="matrix(0.06234567901234567,0,0,0.06234567901234567,69.6401234567901,0)" xlink:href="#aC"/></g><path d="M87 75C49 33 22-17 22-94c0-76 28-126 65-167h31c-38 41-64 92-64 168S80 34 118 75H87" id="aG"/><g id="m"><use transform="matrix(0.06234567901234567,0,0,0.06234567901234567,0,0)" xlink:href="#aG"/><use transform="matrix(0.06234567901234567,0,0,0.06234567901234567,7.4191358024691345,0)" xlink:href="#aA"/><use transform="matrix(0.06234567901234567,0,0,0.06234567901234567,19.888271604938268,0)" xlink:href="#aw"/><use transform="matrix(0.06234567901234567,0,0,0.06234567901234567,31.11049382716049,0)" xlink:href="#al"/><use transform="matrix(0.06234567901234567,0,0,0.06234567901234567,43.57962962962962,0)" xlink:href="#am"/></g><path d="M33-261c38 41 65 92 65 168S71 34 33 75H2C39 34 66-17 66-93S39-220 2-261h31" id="aH"/><g id="n"><use transform="matrix(0.06234567901234567,0,0,0.06234567901234567,0,0)" xlink:href="#aw"/><use transform="matrix(0.06234567901234567,0,0,0.06234567901234567,11.22222222222222,0)" xlink:href="#ap"/><use transform="matrix(0.06234567901234567,0,0,0.06234567901234567,16.147530864197527,0)" xlink:href="#az"/><use transform="matrix(0.06234567901234567,0,0,0.06234567901234567,28.61666666666666,0)" xlink:href="#al"/><use transform="matrix(0.06234567901234567,0,0,0.06234567901234567,41.08580246913579,0)" xlink:href="#aH"/></g><path d="M232-93c-1 65-40 97-104 97C67 4 28-28 28-90v-158h33c8 89-33 224 67 224 102 0 64-133 71-224h33v155" id="aI"/><g id="o"><use transform="matrix(0.06234567901234567,0,0,0.06234567901234567,0,0)" xlink:href="#aI"/><use transform="matrix(0.06234567901234567,0,0,0.06234567901234567,16.147530864197527,0)" xlink:href="#aw"/><use transform="matrix(0.06234567901234567,0,0,0.06234567901234567,27.36975308641975,0)" xlink:href="#al"/><use transform="matrix(0.06234567901234567,0,0,0.06234567901234567,39.83888888888888,0)" xlink:href="#am"/></g><path d="M212-179c-10-28-35-45-73-45-59 0-87 40-87 99 0 60 29 101 89 101 43 0 62-24 78-52l27 14C228-24 195 4 139 4 59 4 22-46 18-125c-6-104 99-153 187-111 19 9 31 26 39 46" id="aJ"/><path d="M177-190C167-65 218 103 67 71c-23-6-38-20-44-43l32-5c15 47 100 32 89-28v-30C133-14 115 1 83 1 29 1 15-40 15-95c0-56 16-97 71-98 29-1 48 16 59 35 1-10 0-23 2-32h30zM94-22c36 0 50-32 50-73 0-42-14-75-50-75-39 0-46 34-46 75s6 73 46 73" id="aK"/><g id="p"><use transform="matrix(0.05,0,0,0.05,0,0)" xlink:href="#aJ"/><use transform="matrix(0.05,0,0,0.05,12.950000000000001,0)" xlink:href="#ao"/><use transform="matrix(0.05,0,0,0.05,22.950000000000003,0)" xlink:href="#ak"/><use transform="matrix(0.05,0,0,0.05,27.950000000000003,0)" xlink:href="#ao"/><use transform="matrix(0.05,0,0,0.05,37.95,0)" xlink:href="#aj"/><use transform="matrix(0.05,0,0,0.05,41.900000000000006,0)" xlink:href="#au"/><use transform="matrix(0.05,0,0,0.05,51.900000000000006,0)" xlink:href="#aK"/><use transform="matrix(0.05,0,0,0.05,61.900000000000006,0)" xlink:href="#aA"/><use transform="matrix(0.05,0,0,0.05,71.9,0)" xlink:href="#al"/><path d="M-.9 1.25h83.7v1.32H-.9z"/></g><path d="M185-189c-5-48-123-54-124 2 14 75 158 14 163 119 3 78-121 87-175 55-17-10-28-26-33-46l33-7c5 56 141 63 141-1 0-78-155-14-162-118-5-82 145-84 179-34 5 7 8 16 11 25" id="aL"/><g id="q"><use transform="matrix(0.05,0,0,0.05,0,0)" xlink:href="#aL"/><use transform="matrix(0.05,0,0,0.05,12,0)" xlink:href="#al"/><use transform="matrix(0.05,0,0,0.05,22,0)" xlink:href="#am"/><use transform="matrix(0.05,0,0,0.05,27.950000000000003,0)" xlink:href="#aq"/><use transform="matrix(0.05,0,0,0.05,36.95,0)" xlink:href="#al"/><use transform="matrix(0.05,0,0,0.05,46.95,0)" xlink:href="#am"/><path d="M-.9 1.25h54.7v1.32H-.9z"/></g><g id="r"><use transform="matrix(0.06234567901234567,0,0,0.06234567901234567,0,0)" xlink:href="#aI"/><use transform="matrix(0.06234567901234567,0,0,0.06234567901234567,16.147530864197527,0)" xlink:href="#aw"/><use transform="matrix(0.06234567901234567,0,0,0.06234567901234567,27.36975308641975,0)" xlink:href="#al"/><use transform="matrix(0.06234567901234567,0,0,0.06234567901234567,39.83888888888888,0)" xlink:href="#am"/></g><g id="s"><use transform="matrix(0.06234567901234567,0,0,0.06234567901234567,0,0)" xlink:href="#aJ"/><use transform="matrix(0.06234567901234567,0,0,0.06234567901234567,16.147530864197527,0)" xlink:href="#aj"/><use transform="matrix(0.06234567901234567,0,0,0.06234567901234567,21.072839506172834,0)" xlink:href="#ap"/><use transform="matrix(0.06234567901234567,0,0,0.06234567901234567,25.99814814814814,0)" xlink:href="#ax"/><use transform="matrix(0.06234567901234567,0,0,0.06234567901234567,37.22037037037036,0)" xlink:href="#av"/><use transform="matrix(0.06234567901234567,0,0,0.06234567901234567,48.44259259259258,0)" xlink:href="#aw"/></g><g id="t"><use transform="matrix(0.06234567901234567,0,0,0.06234567901234567,0,0)" xlink:href="#at"/><use transform="matrix(0.06234567901234567,0,0,0.06234567901234567,14.96296296296296,0)" xlink:href="#au"/><use transform="matrix(0.06234567901234567,0,0,0.06234567901234567,27.432098765432094,0)" xlink:href="#au"/><use transform="matrix(0.06234567901234567,0,0,0.06234567901234567,39.90123456790123,0)" xlink:href="#av"/></g><g id="u"><use transform="matrix(0.06234567901234567,0,0,0.06234567901234567,0,0)" xlink:href="#at"/><use transform="matrix(0.06234567901234567,0,0,0.06234567901234567,14.96296296296296,0)" xlink:href="#au"/><use transform="matrix(0.06234567901234567,0,0,0.06234567901234567,27.432098765432094,0)" xlink:href="#au"/><use transform="matrix(0.06234567901234567,0,0,0.06234567901234567,39.90123456790123,0)" xlink:href="#av"/></g><path d="M210-169c-67 3-38 105-44 169h-31v-121c0-29-5-50-35-48C34-165 62-65 56 0H25l-1-190h30c1 10-1 24 2 32 10-44 99-50 107 0 11-21 27-35 58-36 85-2 47 119 55 194h-31v-121c0-29-5-49-35-48" id="aM"/><g id="v"><use transform="matrix(0.06234567901234567,0,0,0.06234567901234567,0,0)" xlink:href="#ar"/><use transform="matrix(0.06234567901234567,0,0,0.06234567901234567,6.234567901234566,0)" xlink:href="#an"/><use transform="matrix(0.06234567901234567,0,0,0.06234567901234567,18.7037037037037,0)" xlink:href="#as"/><use transform="matrix(0.06234567901234567,0,0,0.06234567901234567,24.938271604938265,0)" xlink:href="#au"/><use transform="matrix(0.06234567901234567,0,0,0.06234567901234567,37.4074074074074,0)" xlink:href="#am"/><use transform="matrix(0.06234567901234567,0,0,0.06234567901234567,44.82654320987653,0)" xlink:href="#aM"/><use transform="matrix(0.06234567901234567,0,0,0.06234567901234567,63.46790123456789,0)" xlink:href="#ao"/><use transform="matrix(0.06234567901234567,0,0,0.06234567901234567,75.93703703703702,0)" xlink:href="#ak"/><use transform="matrix(0.06234567901234567,0,0,0.06234567901234567,82.17160493827159,0)" xlink:href="#ap"/><use transform="matrix(0.06234567901234567,0,0,0.06234567901234567,87.09691358024689,0)" xlink:href="#au"/><use transform="matrix(0.06234567901234567,0,0,0.06234567901234567,99.56604938271602,0)" xlink:href="#an"/></g><g id="w"><use transform="matrix(0.06234567901234567,0,0,0.06234567901234567,0,0)" xlink:href="#ap"/><use transform="matrix(0.06234567901234567,0,0,0.06234567901234567,4.925308641975308,0)" xlink:href="#aw"/></g><path d="M206 0h-36l-40-164L89 0H53L-1-190h32L70-26l43-164h34l41 164 42-164h31" id="aN"/><g id="x"><use transform="matrix(0.06234567901234567,0,0,0.06234567901234567,0,0)" xlink:href="#aL"/><use transform="matrix(0.06234567901234567,0,0,0.06234567901234567,14.96296296296296,0)" xlink:href="#ay"/><use transform="matrix(0.06234567901234567,0,0,0.06234567901234567,27.432098765432094,0)" xlink:href="#au"/><use transform="matrix(0.06234567901234567,0,0,0.06234567901234567,39.90123456790123,0)" xlink:href="#aN"/><use transform="matrix(0.06234567901234567,0,0,0.06234567901234567,56.048765432098755,0)" xlink:href="#an"/></g><g id="y"><use transform="matrix(0.06234567901234567,0,0,0.06234567901234567,0,0)" xlink:href="#aJ"/><use transform="matrix(0.06234567901234567,0,0,0.06234567901234567,16.147530864197527,0)" xlink:href="#ay"/><use transform="matrix(0.06234567901234567,0,0,0.06234567901234567,28.61666666666666,0)" xlink:href="#al"/><use transform="matrix(0.06234567901234567,0,0,0.06234567901234567,41.08580246913579,0)" xlink:href="#ax"/><use transform="matrix(0.06234567901234567,0,0,0.06234567901234567,52.308024691358014,0)" xlink:href="#av"/><use transform="matrix(0.06234567901234567,0,0,0.06234567901234567,63.530246913580235,0)" xlink:href="#au"/><use transform="matrix(0.06234567901234567,0,0,0.06234567901234567,75.99938271604937,0)" xlink:href="#aA"/><use transform="matrix(0.06234567901234567,0,0,0.06234567901234567,88.4685185185185,0)" xlink:href="#ak"/></g><path d="M127-220V0H93v-220H8v-28h204v28h-85" id="aO"/><g id="z"><use transform="matrix(0.06234567901234567,0,0,0.06234567901234567,0,0)" xlink:href="#aO"/><use transform="matrix(0.06234567901234567,0,0,0.06234567901234567,12.843209876543208,0)" xlink:href="#am"/><use transform="matrix(0.06234567901234567,0,0,0.06234567901234567,20.26234567901234,0)" xlink:href="#ao"/><use transform="matrix(0.06234567901234567,0,0,0.06234567901234567,32.731481481481474,0)" xlink:href="#an"/><use transform="matrix(0.06234567901234567,0,0,0.06234567901234567,45.200617283950606,0)" xlink:href="#aw"/><use transform="matrix(0.06234567901234567,0,0,0.06234567901234567,56.42283950617283,0)" xlink:href="#ao"/><use transform="matrix(0.06234567901234567,0,0,0.06234567901234567,68.89197530864196,0)" xlink:href="#ax"/><use transform="matrix(0.06234567901234567,0,0,0.06234567901234567,80.11419753086417,0)" xlink:href="#ak"/><use transform="matrix(0.06234567901234567,0,0,0.06234567901234567,86.34876543209874,0)" xlink:href="#ap"/><use transform="matrix(0.06234567901234567,0,0,0.06234567901234567,91.27407407407405,0)" xlink:href="#au"/><use transform="matrix(0.06234567901234567,0,0,0.06234567901234567,103.74320987654318,0)" xlink:href="#an"/></g><g id="A"><use transform="matrix(0.06234567901234567,0,0,0.06234567901234567,0,0)" xlink:href="#ap"/><use transform="matrix(0.06234567901234567,0,0,0.06234567901234567,4.925308641975308,0)" xlink:href="#an"/><use transform="matrix(0.06234567901234567,0,0,0.06234567901234567,17.39444444444444,0)" xlink:href="#as"/><use transform="matrix(0.06234567901234567,0,0,0.06234567901234567,23.629012345679005,0)" xlink:href="#au"/></g><g id="B"><use transform="matrix(0.06234567901234567,0,0,0.06234567901234567,0,0)" xlink:href="#aw"/><use transform="matrix(0.06234567901234567,0,0,0.06234567901234567,11.22222222222222,0)" xlink:href="#al"/><use transform="matrix(0.06234567901234567,0,0,0.06234567901234567,23.691358024691354,0)" xlink:href="#an"/><use transform="matrix(0.06234567901234567,0,0,0.06234567901234567,36.16049382716049,0)" xlink:href="#ak"/></g><g id="C"><use transform="matrix(0.06234567901234567,0,0,0.06234567901234567,0,0)" xlink:href="#ak"/><use transform="matrix(0.06234567901234567,0,0,0.06234567901234567,6.234567901234566,0)" xlink:href="#au"/></g><g id="D"><use transform="matrix(0.06234567901234567,0,0,0.06234567901234567,0,0)" xlink:href="#aw"/><use transform="matrix(0.06234567901234567,0,0,0.06234567901234567,11.22222222222222,0)" xlink:href="#al"/><use transform="matrix(0.06234567901234567,0,0,0.06234567901234567,23.691358024691354,0)" xlink:href="#am"/><use transform="matrix(0.06234567901234567,0,0,0.06234567901234567,31.11049382716049,0)" xlink:href="#aq"/><use transform="matrix(0.06234567901234567,0,0,0.06234567901234567,42.33271604938271,0)" xlink:href="#al"/><use transform="matrix(0.06234567901234567,0,0,0.06234567901234567,54.80185185185184,0)" xlink:href="#am"/></g><path d="M240 0l2-218c-23 76-54 145-80 218h-23L58-218 59 0H30v-248h44l77 211c21-75 51-140 76-211h43V0h-30" id="aP"/><path d="M30-248c118-7 216 8 213 122C240-48 200 0 122 0H30v-248zM63-27c89 8 146-16 146-99s-60-101-146-95v194" id="aQ"/><g id="E"><use transform="matrix(0.05,0,0,0.05,0,0)" xlink:href="#aP"/><use transform="matrix(0.05,0,0,0.05,14.950000000000001,0)" xlink:href="#au"/><use transform="matrix(0.05,0,0,0.05,24.950000000000003,0)" xlink:href="#an"/><use transform="matrix(0.05,0,0,0.05,34.95,0)" xlink:href="#aK"/><use transform="matrix(0.05,0,0,0.05,44.95,0)" xlink:href="#au"/><use transform="matrix(0.05,0,0,0.05,54.95,0)" xlink:href="#aQ"/><use transform="matrix(0.05,0,0,0.05,67.9,0)" xlink:href="#at"/><path d="M-.9 1.25h81.7v1.32H-.9z"/></g><path d="M137 0h-34L2-248h35l83 218 83-218h36" id="aR"/><g id="F"><use transform="matrix(0.06234567901234567,0,0,0.06234567901234567,0,0)" xlink:href="#aR"/><use transform="matrix(0.06234567901234567,0,0,0.06234567901234567,13.279629629629627,0)" xlink:href="#ao"/><use transform="matrix(0.06234567901234567,0,0,0.06234567901234567,25.748765432098757,0)" xlink:href="#aj"/><use transform="matrix(0.06234567901234567,0,0,0.06234567901234567,30.674074074074063,0)" xlink:href="#ap"/><use transform="matrix(0.06234567901234567,0,0,0.06234567901234567,35.59938271604937,0)" xlink:href="#az"/><use transform="matrix(0.06234567901234567,0,0,0.06234567901234567,48.0685185185185,0)" xlink:href="#ao"/><use transform="matrix(0.06234567901234567,0,0,0.06234567901234567,60.537654320987635,0)" xlink:href="#ak"/><use transform="matrix(0.06234567901234567,0,0,0.06234567901234567,66.7722222222222,0)" xlink:href="#al"/><use transform="matrix(0.06234567901234567,0,0,0.06234567901234567,79.24135802469132,0)" xlink:href="#aw"/></g><g id="G"><use transform="matrix(0.06234567901234567,0,0,0.06234567901234567,0,0)" xlink:href="#aO"/><use transform="matrix(0.06234567901234567,0,0,0.06234567901234567,12.843209876543208,0)" xlink:href="#am"/><use transform="matrix(0.06234567901234567,0,0,0.06234567901234567,20.26234567901234,0)" xlink:href="#ao"/><use transform="matrix(0.06234567901234567,0,0,0.06234567901234567,32.731481481481474,0)" xlink:href="#an"/><use transform="matrix(0.06234567901234567,0,0,0.06234567901234567,45.200617283950606,0)" xlink:href="#aw"/><use transform="matrix(0.06234567901234567,0,0,0.06234567901234567,56.42283950617283,0)" xlink:href="#ao"/><use transform="matrix(0.06234567901234567,0,0,0.06234567901234567,68.89197530864196,0)" xlink:href="#ax"/><use transform="matrix(0.06234567901234567,0,0,0.06234567901234567,80.11419753086417,0)" xlink:href="#ak"/><use transform="matrix(0.06234567901234567,0,0,0.06234567901234567,86.34876543209874,0)" xlink:href="#ap"/><use transform="matrix(0.06234567901234567,0,0,0.06234567901234567,91.27407407407405,0)" xlink:href="#au"/><use transform="matrix(0.06234567901234567,0,0,0.06234567901234567,103.74320987654318,0)" xlink:href="#an"/></g><g id="H"><use transform="matrix(0.06234567901234567,0,0,0.06234567901234567,0,0)" xlink:href="#aR"/><use transform="matrix(0.06234567901234567,0,0,0.06234567901234567,13.279629629629627,0)" xlink:href="#ao"/><use transform="matrix(0.06234567901234567,0,0,0.06234567901234567,25.748765432098757,0)" xlink:href="#aj"/><use transform="matrix(0.06234567901234567,0,0,0.06234567901234567,30.674074074074063,0)" xlink:href="#ap"/><use transform="matrix(0.06234567901234567,0,0,0.06234567901234567,35.59938271604937,0)" xlink:href="#az"/></g><path d="M101-251c82-7 93 87 43 132L82-64C71-53 59-42 53-27h129V0H18c2-99 128-94 128-182 0-28-16-43-45-43s-46 15-49 41l-32-3c6-41 34-60 81-64" id="aS"/><path d="M101-251c68 0 85 55 85 127S166 4 100 4C33 4 14-52 14-124c0-73 17-127 87-127zm-1 229c47 0 54-49 54-102s-4-102-53-102c-51 0-55 48-55 102 0 53 5 102 54 102" id="aT"/><path d="M27 0v-27h64v-190l-56 39v-29l58-41h29v221h61V0H27" id="aU"/><g id="I"><use transform="matrix(0.06234567901234567,0,0,0.06234567901234567,0,0)" xlink:href="#aS"/><use transform="matrix(0.06234567901234567,0,0,0.06234567901234567,12.469135802469133,0)" xlink:href="#aT"/><use transform="matrix(0.06234567901234567,0,0,0.06234567901234567,24.938271604938265,0)" xlink:href="#aU"/></g><g id="J"><use transform="matrix(0.06234567901234567,0,0,0.06234567901234567,0,0)" xlink:href="#aL"/><use transform="matrix(0.06234567901234567,0,0,0.06234567901234567,14.96296296296296,0)" xlink:href="#aA"/><use transform="matrix(0.06234567901234567,0,0,0.06234567901234567,27.432098765432094,0)" xlink:href="#ax"/><use transform="matrix(0.06234567901234567,0,0,0.06234567901234567,38.654320987654316,0)" xlink:href="#ax"/><use transform="matrix(0.06234567901234567,0,0,0.06234567901234567,49.87654320987654,0)" xlink:href="#al"/><use transform="matrix(0.06234567901234567,0,0,0.06234567901234567,62.34567901234567,0)" xlink:href="#aw"/><use transform="matrix(0.06234567901234567,0,0,0.06234567901234567,73.56790123456788,0)" xlink:href="#aw"/></g><g id="K"><use transform="matrix(0.06234567901234567,0,0,0.06234567901234567,0,0)" xlink:href="#aP"/><use transform="matrix(0.06234567901234567,0,0,0.06234567901234567,18.641358024691353,0)" xlink:href="#al"/><use transform="matrix(0.06234567901234567,0,0,0.06234567901234567,31.110493827160486,0)" xlink:href="#aw"/><use transform="matrix(0.06234567901234567,0,0,0.06234567901234567,42.332716049382704,0)" xlink:href="#aw"/><use transform="matrix(0.06234567901234567,0,0,0.06234567901234567,53.554938271604925,0)" xlink:href="#ao"/><use transform="matrix(0.06234567901234567,0,0,0.06234567901234567,66.02407407407406,0)" xlink:href="#aK"/><use transform="matrix(0.06234567901234567,0,0,0.06234567901234567,78.4932098765432,0)" xlink:href="#al"/></g><g id="L"><use transform="matrix(0.06234567901234567,0,0,0.06234567901234567,0,0)" xlink:href="#ar"/><use transform="matrix(0.06234567901234567,0,0,0.06234567901234567,6.234567901234566,0)" xlink:href="#an"/><use transform="matrix(0.06234567901234567,0,0,0.06234567901234567,18.7037037037037,0)" xlink:href="#aq"/><use transform="matrix(0.06234567901234567,0,0,0.06234567901234567,29.925925925925917,0)" xlink:href="#ao"/><use transform="matrix(0.06234567901234567,0,0,0.06234567901234567,42.39506172839505,0)" xlink:href="#aj"/><use transform="matrix(0.06234567901234567,0,0,0.06234567901234567,47.320370370370355,0)" xlink:href="#ap"/><use transform="matrix(0.06234567901234567,0,0,0.06234567901234567,52.24567901234566,0)" xlink:href="#az"/></g><g id="M"><use transform="matrix(0.06234567901234567,0,0,0.06234567901234567,0,0)" xlink:href="#aE"/><use transform="matrix(0.06234567901234567,0,0,0.06234567901234567,14.96296296296296,0)" xlink:href="#am"/><use transform="matrix(0.06234567901234567,0,0,0.06234567901234567,22.382098765432094,0)" xlink:href="#am"/><use transform="matrix(0.06234567901234567,0,0,0.06234567901234567,29.80123456790123,0)" xlink:href="#au"/><use transform="matrix(0.06234567901234567,0,0,0.06234567901234567,42.27037037037036,0)" xlink:href="#am"/></g><g id="N"><use transform="matrix(0.06234567901234567,0,0,0.06234567901234567,0,0)" xlink:href="#aJ"/><use transform="matrix(0.06234567901234567,0,0,0.06234567901234567,16.147530864197527,0)" xlink:href="#au"/><use transform="matrix(0.06234567901234567,0,0,0.06234567901234567,28.61666666666666,0)" xlink:href="#az"/><use transform="matrix(0.06234567901234567,0,0,0.06234567901234567,41.08580246913579,0)" xlink:href="#al"/></g><path d="M63-220v92h138v28H63V0H30v-248h175v28H63" id="aV"/><g id="O"><use transform="matrix(0.06234567901234567,0,0,0.06234567901234567,0,0)" xlink:href="#aV"/><use transform="matrix(0.06234567901234567,0,0,0.06234567901234567,13.653703703703702,0)" xlink:href="#ao"/><use transform="matrix(0.06234567901234567,0,0,0.06234567901234567,26.122839506172834,0)" xlink:href="#ap"/><use transform="matrix(0.06234567901234567,0,0,0.06234567901234567,31.048148148148144,0)" xlink:href="#aj"/><use transform="matrix(0.06234567901234567,0,0,0.06234567901234567,35.97345679012345,0)" xlink:href="#aA"/><use transform="matrix(0.06234567901234567,0,0,0.06234567901234567,48.44259259259258,0)" xlink:href="#am"/><use transform="matrix(0.06234567901234567,0,0,0.06234567901234567,55.86172839506172,0)" xlink:href="#al"/></g><g id="P"><use transform="matrix(0.06234567901234567,0,0,0.06234567901234567,0,0)" xlink:href="#aO"/><use transform="matrix(0.06234567901234567,0,0,0.06234567901234567,12.843209876543208,0)" xlink:href="#am"/><use transform="matrix(0.06234567901234567,0,0,0.06234567901234567,20.26234567901234,0)" xlink:href="#ao"/><use transform="matrix(0.06234567901234567,0,0,0.06234567901234567,32.731481481481474,0)" xlink:href="#an"/><use transform="matrix(0.06234567901234567,0,0,0.06234567901234567,45.200617283950606,0)" xlink:href="#aw"/><use transform="matrix(0.06234567901234567,0,0,0.06234567901234567,56.42283950617283,0)" xlink:href="#ao"/><use transform="matrix(0.06234567901234567,0,0,0.06234567901234567,68.89197530864196,0)" xlink:href="#ax"/><use transform="matrix(0.06234567901234567,0,0,0.06234567901234567,80.11419753086417,0)" xlink:href="#ak"/><use transform="matrix(0.06234567901234567,0,0,0.06234567901234567,86.34876543209874,0)" xlink:href="#ap"/><use transform="matrix(0.06234567901234567,0,0,0.06234567901234567,91.27407407407405,0)" xlink:href="#au"/><use transform="matrix(0.06234567901234567,0,0,0.06234567901234567,103.74320987654318,0)" xlink:href="#an"/></g><path d="M140-251c81 0 123 46 123 126C263-46 219 4 140 4 59 4 17-45 17-125s42-126 123-126zm0 227c63 0 89-41 89-101s-29-99-89-99c-61 0-89 39-89 99S79-25 140-24" id="aW"/><path d="M115-194c53 0 69 39 70 98 0 66-23 100-70 100C84 3 66-7 56-30L54 0H23l1-261h32v101c10-23 28-34 59-34zm-8 174c40 0 45-34 45-75 0-40-5-75-45-74-42 0-51 32-51 76 0 43 10 73 51 73" id="aX"/><path d="M24-231v-30h32v30H24zM-9 49c24 4 33-6 33-30v-209h32V24c2 40-23 58-65 49V49" id="aY"/><g id="Q"><use transform="matrix(0.06234567901234567,0,0,0.06234567901234567,0,0)" xlink:href="#aW"/><use transform="matrix(0.06234567901234567,0,0,0.06234567901234567,17.456790123456788,0)" xlink:href="#aX"/><use transform="matrix(0.06234567901234567,0,0,0.06234567901234567,29.92592592592592,0)" xlink:href="#aY"/><use transform="matrix(0.06234567901234567,0,0,0.06234567901234567,34.85123456790123,0)" xlink:href="#al"/><use transform="matrix(0.06234567901234567,0,0,0.06234567901234567,47.32037037037036,0)" xlink:href="#ax"/><use transform="matrix(0.06234567901234567,0,0,0.06234567901234567,58.542592592592584,0)" xlink:href="#ak"/></g><g id="R"><use transform="matrix(0.06234567901234567,0,0,0.06234567901234567,0,0)" xlink:href="#aw"/><use transform="matrix(0.06234567901234567,0,0,0.06234567901234567,11.22222222222222,0)" xlink:href="#ak"/><use transform="matrix(0.06234567901234567,0,0,0.06234567901234567,17.456790123456784,0)" xlink:href="#au"/><use transform="matrix(0.06234567901234567,0,0,0.06234567901234567,29.925925925925917,0)" xlink:href="#am"/><use transform="matrix(0.06234567901234567,0,0,0.06234567901234567,37.34506172839505,0)" xlink:href="#al"/></g><g id="S"><use transform="matrix(0.06234567901234567,0,0,0.06234567901234567,0,0)" xlink:href="#ap"/><use transform="matrix(0.06234567901234567,0,0,0.06234567901234567,4.925308641975308,0)" xlink:href="#an"/></g><g id="T"><use transform="matrix(0.06234567901234567,0,0,0.06234567901234567,0,0)" xlink:href="#az"/><use transform="matrix(0.06234567901234567,0,0,0.06234567901234567,12.469135802469133,0)" xlink:href="#ao"/><use transform="matrix(0.06234567901234567,0,0,0.06234567901234567,24.938271604938265,0)" xlink:href="#ak"/><use transform="matrix(0.06234567901234567,0,0,0.06234567901234567,31.17283950617283,0)" xlink:href="#ao"/><use transform="matrix(0.06234567901234567,0,0,0.06234567901234567,43.64197530864196,0)" xlink:href="#aX"/><use transform="matrix(0.06234567901234567,0,0,0.06234567901234567,56.11111111111109,0)" xlink:href="#ao"/><use transform="matrix(0.06234567901234567,0,0,0.06234567901234567,68.58024691358023,0)" xlink:href="#aw"/><use transform="matrix(0.06234567901234567,0,0,0.06234567901234567,79.80246913580244,0)" xlink:href="#al"/></g><g id="U"><use transform="matrix(0.06234567901234567,0,0,0.06234567901234567,0,0)" xlink:href="#ap"/><use transform="matrix(0.06234567901234567,0,0,0.06234567901234567,4.925308641975308,0)" xlink:href="#as"/></g><g id="V"><use transform="matrix(0.06234567901234567,0,0,0.06234567901234567,0,0)" xlink:href="#aw"/><use transform="matrix(0.06234567901234567,0,0,0.06234567901234567,11.22222222222222,0)" xlink:href="#aA"/><use transform="matrix(0.06234567901234567,0,0,0.06234567901234567,23.691358024691354,0)" xlink:href="#ax"/><use transform="matrix(0.06234567901234567,0,0,0.06234567901234567,34.913580246913575,0)" xlink:href="#ax"/><use transform="matrix(0.06234567901234567,0,0,0.06234567901234567,46.1358024691358,0)" xlink:href="#al"/><use transform="matrix(0.06234567901234567,0,0,0.06234567901234567,58.60493827160493,0)" xlink:href="#aw"/><use transform="matrix(0.06234567901234567,0,0,0.06234567901234567,69.82716049382715,0)" xlink:href="#aw"/><use transform="matrix(0.06234567901234567,0,0,0.06234567901234567,81.04938271604937,0)" xlink:href="#as"/><use transform="matrix(0.06234567901234567,0,0,0.06234567901234567,87.28395061728394,0)" xlink:href="#aA"/><use transform="matrix(0.06234567901234567,0,0,0.06234567901234567,99.75308641975306,0)" xlink:href="#aj"/></g><path d="M233-177c-1 41-23 64-60 70L243 0h-38l-65-103H63V0H30v-248c88 3 205-21 203 71zM63-129c60-2 137 13 137-47 0-61-80-42-137-45v92" id="aZ"/><g id="W"><use transform="matrix(0.06234567901234567,0,0,0.06234567901234567,0,0)" xlink:href="#aZ"/><use transform="matrix(0.06234567901234567,0,0,0.06234567901234567,16.147530864197527,0)" xlink:href="#al"/><use transform="matrix(0.06234567901234567,0,0,0.06234567901234567,28.61666666666666,0)" xlink:href="#ak"/><use transform="matrix(0.06234567901234567,0,0,0.06234567901234567,34.85123456790123,0)" xlink:href="#aA"/><use transform="matrix(0.06234567901234567,0,0,0.06234567901234567,47.32037037037036,0)" xlink:href="#am"/><use transform="matrix(0.06234567901234567,0,0,0.06234567901234567,54.7395061728395,0)" xlink:href="#an"/></g><path d="M30-248c87 1 191-15 191 75 0 78-77 80-158 76V0H30v-248zm33 125c57 0 124 11 124-50 0-59-68-47-124-48v98" id="ba"/><g id="X"><use transform="matrix(0.06234567901234567,0,0,0.06234567901234567,0,0)" xlink:href="#ba"/><use transform="matrix(0.06234567901234567,0,0,0.06234567901234567,14.96296296296296,0)" xlink:href="#am"/><use transform="matrix(0.06234567901234567,0,0,0.06234567901234567,22.382098765432094,0)" xlink:href="#al"/><use transform="matrix(0.06234567901234567,0,0,0.06234567901234567,34.85123456790123,0)" xlink:href="#aq"/><use transform="matrix(0.06234567901234567,0,0,0.06234567901234567,46.07345679012345,0)" xlink:href="#ap"/><use transform="matrix(0.06234567901234567,0,0,0.06234567901234567,50.99876543209876,0)" xlink:href="#au"/><use transform="matrix(0.06234567901234567,0,0,0.06234567901234567,63.46790123456789,0)" xlink:href="#aA"/><use transform="matrix(0.06234567901234567,0,0,0.06234567901234567,75.93703703703702,0)" xlink:href="#aw"/></g><g id="Y"><use transform="matrix(0.06234567901234567,0,0,0.06234567901234567,0,0)" xlink:href="#aO"/><use transform="matrix(0.06234567901234567,0,0,0.06234567901234567,12.843209876543208,0)" xlink:href="#am"/><use transform="matrix(0.06234567901234567,0,0,0.06234567901234567,20.26234567901234,0)" xlink:href="#ao"/><use transform="matrix(0.06234567901234567,0,0,0.06234567901234567,32.731481481481474,0)" xlink:href="#an"/><use transform="matrix(0.06234567901234567,0,0,0.06234567901234567,45.200617283950606,0)" xlink:href="#aw"/><use transform="matrix(0.06234567901234567,0,0,0.06234567901234567,56.42283950617283,0)" xlink:href="#ao"/><use transform="matrix(0.06234567901234567,0,0,0.06234567901234567,68.89197530864196,0)" xlink:href="#ax"/><use transform="matrix(0.06234567901234567,0,0,0.06234567901234567,80.11419753086417,0)" xlink:href="#ak"/><use transform="matrix(0.06234567901234567,0,0,0.06234567901234567,86.34876543209874,0)" xlink:href="#ap"/><use transform="matrix(0.06234567901234567,0,0,0.06234567901234567,91.27407407407405,0)" xlink:href="#au"/><use transform="matrix(0.06234567901234567,0,0,0.06234567901234567,103.74320987654318,0)" xlink:href="#an"/></g><g id="Z"><use transform="matrix(0.06234567901234567,0,0,0.06234567901234567,0,0)" xlink:href="#ap"/><use transform="matrix(0.06234567901234567,0,0,0.06234567901234567,4.925308641975308,0)" xlink:href="#aw"/></g><g id="aa"><use transform="matrix(0.06234567901234567,0,0,0.06234567901234567,0,0)" xlink:href="#aI"/><use transform="matrix(0.06234567901234567,0,0,0.06234567901234567,16.147530864197527,0)" xlink:href="#ba"/><use transform="matrix(0.06234567901234567,0,0,0.06234567901234567,31.11049382716049,0)" xlink:href="#aQ"/><use transform="matrix(0.06234567901234567,0,0,0.06234567901234567,47.25802469135802,0)" xlink:href="#ai"/><use transform="matrix(0.06234567901234567,0,0,0.06234567901234567,60.53765432098765,0)" xlink:href="#aO"/><use transform="matrix(0.06234567901234567,0,0,0.06234567901234567,74.19135802469135,0)" xlink:href="#aE"/><use transform="matrix(0.06234567901234567,0,0,0.06234567901234567,89.15432098765432,0)" xlink:href="#aQ"/></g><g id="ab"><use transform="matrix(0.06234567901234567,0,0,0.06234567901234567,0,0)" xlink:href="#ap"/><use transform="matrix(0.06234567901234567,0,0,0.06234567901234567,4.925308641975308,0)" xlink:href="#as"/></g><g id="ac"><use transform="matrix(0.06234567901234567,0,0,0.06234567901234567,0,0)" xlink:href="#aw"/><use transform="matrix(0.06234567901234567,0,0,0.06234567901234567,11.22222222222222,0)" xlink:href="#aA"/><use transform="matrix(0.06234567901234567,0,0,0.06234567901234567,23.691358024691354,0)" xlink:href="#ax"/><use transform="matrix(0.06234567901234567,0,0,0.06234567901234567,34.913580246913575,0)" xlink:href="#ax"/><use transform="matrix(0.06234567901234567,0,0,0.06234567901234567,46.1358024691358,0)" xlink:href="#al"/><use transform="matrix(0.06234567901234567,0,0,0.06234567901234567,58.60493827160493,0)" xlink:href="#aw"/><use transform="matrix(0.06234567901234567,0,0,0.06234567901234567,69.82716049382715,0)" xlink:href="#aw"/><use transform="matrix(0.06234567901234567,0,0,0.06234567901234567,81.04938271604937,0)" xlink:href="#as"/><use transform="matrix(0.06234567901234567,0,0,0.06234567901234567,87.28395061728394,0)" xlink:href="#aA"/><use transform="matrix(0.06234567901234567,0,0,0.06234567901234567,99.75308641975306,0)" xlink:href="#aj"/></g><g id="ad"><use transform="matrix(0.06234567901234567,0,0,0.06234567901234567,0,0)" xlink:href="#ao"/><use transform="matrix(0.06234567901234567,0,0,0.06234567901234567,12.469135802469133,0)" xlink:href="#an"/><use transform="matrix(0.06234567901234567,0,0,0.06234567901234567,24.938271604938265,0)" xlink:href="#az"/></g><g id="ae"><use transform="matrix(0.06234567901234567,0,0,0.06234567901234567,0,0)" xlink:href="#ao"/><use transform="matrix(0.06234567901234567,0,0,0.06234567901234567,12.469135802469133,0)" xlink:href="#az"/><use transform="matrix(0.06234567901234567,0,0,0.06234567901234567,24.938271604938265,0)" xlink:href="#aM"/><use transform="matrix(0.06234567901234567,0,0,0.06234567901234567,43.57962962962962,0)" xlink:href="#ap"/><use transform="matrix(0.06234567901234567,0,0,0.06234567901234567,48.50493827160493,0)" xlink:href="#an"/></g><path d="M145-31C134-9 116 4 85 4 32 4 16-35 15-94c0-59 17-99 70-100 32-1 48 14 60 33 0-11-1-24 2-32h30l-1 268h-32zM93-21c41 0 51-33 51-76s-8-73-50-73c-40 0-46 35-46 75s5 74 45 74" id="bb"/><g id="af"><use transform="matrix(0.06234567901234567,0,0,0.06234567901234567,0,0)" xlink:href="#am"/><use transform="matrix(0.06234567901234567,0,0,0.06234567901234567,7.4191358024691345,0)" xlink:href="#al"/><use transform="matrix(0.06234567901234567,0,0,0.06234567901234567,19.888271604938268,0)" xlink:href="#bb"/><use transform="matrix(0.06234567901234567,0,0,0.06234567901234567,32.3574074074074,0)" xlink:href="#aA"/><use transform="matrix(0.06234567901234567,0,0,0.06234567901234567,44.82654320987653,0)" xlink:href="#al"/><use transform="matrix(0.06234567901234567,0,0,0.06234567901234567,57.295679012345666,0)" xlink:href="#aw"/><use transform="matrix(0.06234567901234567,0,0,0.06234567901234567,68.51790123456789,0)" xlink:href="#ak"/></g><g id="ag"><use transform="matrix(0.06234567901234567,0,0,0.06234567901234567,0,0)" xlink:href="#aM"/><use transform="matrix(0.06234567901234567,0,0,0.06234567901234567,18.641358024691353,0)" xlink:href="#ao"/><use transform="matrix(0.06234567901234567,0,0,0.06234567901234567,31.110493827160486,0)" xlink:href="#az"/><use transform="matrix(0.06234567901234567,0,0,0.06234567901234567,43.57962962962962,0)" xlink:href="#al"/></g><g id="ah"><use transform="matrix(0.06234567901234567,0,0,0.06234567901234567,0,0)" xlink:href="#ao"/><use transform="matrix(0.06234567901234567,0,0,0.06234567901234567,12.469135802469133,0)" xlink:href="#aq"/><use transform="matrix(0.06234567901234567,0,0,0.06234567901234567,23.691358024691354,0)" xlink:href="#ao"/><use transform="matrix(0.06234567901234567,0,0,0.06234567901234567,36.16049382716049,0)" xlink:href="#ap"/><use transform="matrix(0.06234567901234567,0,0,0.06234567901234567,41.08580246913579,0)" xlink:href="#aj"/><use transform="matrix(0.06234567901234567,0,0,0.06234567901234567,46.0111111111111,0)" xlink:href="#ao"/><use transform="matrix(0.06234567901234567,0,0,0.06234567901234567,58.48024691358023,0)" xlink:href="#aX"/><use transform="matrix(0.06234567901234567,0,0,0.06234567901234567,70.94938271604937,0)" xlink:href="#aj"/><use transform="matrix(0.06234567901234567,0,0,0.06234567901234567,75.87469135802468,0)" xlink:href="#al"/></g></defs></g></svg>
