<svg xmlns="http://www.w3.org/2000/svg" xmlns:xlink="http://www.w3.org/1999/xlink" xmlns:lucid="lucid" width="1855.86" height="941"><g transform="translate(393.2674856397332 915.5)" lucid:page-tab-id="IjoCUIf7UgSD"><path d="M-500-1000h2000V500H-500z" fill="#fff"/><path d="M-372.77-887a8 8 0 0 1 8-8h104a8 8 0 0 1 8 8v84a8 8 0 0 1-8 8h-104a8 8 0 0 1-8-8z" stroke="#000" fill="#4d9eff"/><use xlink:href="#a" transform="matrix(1,0,0,1,-352.7674856397332,-895) translate(16.37098765432099 54.48888888888888)"/><path d="M-312.77-794v4.95m0 4.95v9.9m0 4.95v9.9m0 4.95v9.9m0 4.95v9.9m0 4.95v9.9m0 4.96v9.9m0 4.95v9.9m0 4.96v9.9m0 4.95v9.9m0 4.96v9.9m0 4.95v9.9m0 4.96v9.9m0 4.95v9.9m0 4.97v9.9m0 4.95v9.9m0 4.95v9.9m0 4.95v9.9m0 4.95v9.9m0 4.95v9.9m0 4.95v9.9m0 4.95v9.9m0 4.95v9.9m0 4.95v9.9m0 4.96v9.9m0 4.95v9.9m0 4.95v9.9m0 4.95v9.9m0 4.95v9.9m0 4.95v9.9m0 4.95v9.9m0 4.95v9.9m0 4.95v9.9m0 4.95v9.9m0 4.96v9.9m0 4.94v9.9m0 4.95v9.9m0 4.94v9.9m0 4.95v9.9m0 4.94v9.9m0 4.95v9.9m0 4.94v9.9m0 4.95v9.9m0 4.95v9.9m0 4.95v9.9m0 4.95v9.9m0 4.95v9.9m0 4.95V-96" stroke="#333" fill="none"/><path d="M-312.3-794h-.94v-.5h.95zM-312.3-95.5h-.94v-.5h.95z" stroke="#333" stroke-width=".05" fill="#333"/><path d="M-64.83-794v4.95m0 4.95v9.9m0 4.95v9.9m0 4.95v9.9m0 4.95v9.9m0 4.95v9.9m0 4.96v9.9m0 4.95v9.9m0 4.96v9.9m0 4.95v9.9m0 4.96v9.9m0 4.95v9.9m0 4.96v9.9m0 4.95v9.9m0 4.97v9.9m0 4.95v9.9m0 4.95v9.9m0 4.95v9.9m0 4.95v9.9m0 4.95v9.9m0 4.95v9.9m0 4.95v9.9m0 4.95v9.9m0 4.95v9.9m0 4.96v9.9m0 4.95v9.9m0 4.95v9.9m0 4.95v9.9m0 4.95v9.9m0 4.95v9.9m0 4.95v9.9m0 4.95v9.9m0 4.95v9.9m0 4.95v9.9m0 4.96v9.9m0 4.94v9.9m0 4.95v9.9m0 4.94v9.9m0 4.95v9.9m0 4.94v9.9m0 4.95v9.9m0 4.94v9.9m0 4.95v9.9m0 4.95v9.9m0 4.95v9.9m0 4.95v9.9m0 4.95v9.9m0 4.95V-96" stroke="#333" fill="none"/><path d="M-64.35-794h-.95v-.5h.95zM-64.35-95.5h-.95v-.5h.95z" stroke="#333" stroke-width=".05" fill="#333"/><path d="M198.56-794v4.95m0 4.95v9.9m0 4.95v9.9m0 4.95v9.9m0 4.95v9.9m0 4.95v9.9m0 4.96v9.9m0 4.95v9.9m0 4.96v9.9m0 4.95v9.9m0 4.96v9.9m0 4.95v9.9m0 4.96v9.9m0 4.95v9.9m0 4.97v9.9m0 4.95v9.9m0 4.95v9.9m0 4.95v9.9m0 4.95v9.9m0 4.95v9.9m0 4.95v9.9m0 4.95v9.9m0 4.95v9.9m0 4.95v9.9m0 4.96v9.9m0 4.95v9.9m0 4.95v9.9m0 4.95v9.9m0 4.95v9.9m0 4.95v9.9m0 4.95v9.9m0 4.95v9.9m0 4.95v9.9m0 4.95v9.9m0 4.96v9.9m0 4.94v9.9m0 4.95v9.9m0 4.94v9.9m0 4.95v9.9m0 4.94v9.9m0 4.95v9.9m0 4.94v9.9m0 4.95v9.9m0 4.95v9.9m0 4.95v9.9m0 4.95v9.9m0 4.95v9.9m0 4.95V-96" stroke="#333" fill="none"/><path d="M199.03-794h-.95v-.5h.95zM199.03-95.5h-.95v-.5h.95z" stroke="#333" stroke-width=".05" fill="#333"/><path d="M494.34-794v4.95m0 4.95v9.9m0 4.95v9.9m0 4.95v9.9m0 4.95v9.9m0 4.95v9.9m0 4.96v9.9m0 4.95v9.9m0 4.96v9.9m0 4.95v9.9m0 4.96v9.9m0 4.95v9.9m0 4.96v9.9m0 4.95v9.9m0 4.97v9.9m0 4.95v9.9m0 4.95v9.9m0 4.95v9.9m0 4.95v9.9m0 4.95v9.9m0 4.95v9.9m0 4.95v9.9m0 4.95v9.9m0 4.95v9.9m0 4.96v9.9m0 4.95v9.9m0 4.95v9.9m0 4.95v9.9m0 4.95v9.9m0 4.95v9.9m0 4.95v9.9m0 4.95v9.9m0 4.95v9.9m0 4.95v9.9m0 4.96v9.9m0 4.94v9.9m0 4.95v9.9m0 4.94v9.9m0 4.95v9.9m0 4.94v9.9m0 4.95v9.9m0 4.94v9.9m0 4.95v9.9m0 4.95v9.9m0 4.95v9.9m0 4.95v9.9m0 4.95v9.9m0 4.95V-96" stroke="#333" fill="none"/><path d="M494.8-794h-.94v-.5h.95zM494.8-95.5h-.94v-.5h.95z" stroke="#333" stroke-width=".05" fill="#333"/><path d="M782.6-794v4.95m0 4.95v9.9m0 4.95v9.9m0 4.95v9.9m0 4.95v9.9m0 4.95v9.9m0 4.96v9.9m0 4.95v9.9m0 4.96v9.9m0 4.95v9.9m0 4.96v9.9m0 4.95v9.9m0 4.96v9.9m0 4.95v9.9m0 4.97v9.9m0 4.95v9.9m0 4.95v9.9m0 4.95v9.9m0 4.95v9.9m0 4.95v9.9m0 4.95v9.9m0 4.95v9.9m0 4.95v9.9m0 4.95v9.9m0 4.96v9.9m0 4.95v9.9m0 4.95v9.9m0 4.95v9.9m0 4.95v9.9m0 4.95v9.9m0 4.95v9.9m0 4.95v9.9m0 4.95v9.9m0 4.95v9.9m0 4.96v9.9m0 4.94v9.9m0 4.95v9.9m0 4.94v9.9m0 4.95v9.9m0 4.94v9.9m0 4.95v9.9m0 4.94v9.9m0 4.95v9.9m0 4.95v9.9m0 4.95v9.9m0 4.95v9.9m0 4.95v9.9m0 4.95V-96" stroke="#333" fill="none"/><path d="M783.08-794h-.95v-.5h.95zM783.08-95.5h-.95v-.5h.95z" stroke="#333" stroke-width=".05" fill="#333"/><path d="M1046-794v4.95m0 4.95v9.9m0 4.95v9.9m0 4.95v9.9m0 4.95v9.9m0 4.95v9.9m0 4.96v9.9m0 4.95v9.9m0 4.96v9.9m0 4.95v9.9m0 4.96v9.9m0 4.95v9.9m0 4.96v9.9m0 4.95v9.9m0 4.97v9.9m0 4.95v9.9m0 4.95v9.9m0 4.95v9.9m0 4.95v9.9m0 4.95v9.9m0 4.95v9.9m0 4.95v9.9m0 4.95v9.9m0 4.95v9.9m0 4.96v9.9m0 4.95v9.9m0 4.95v9.9m0 4.95v9.9m0 4.95v9.9m0 4.95v9.9m0 4.95v9.9m0 4.95v9.9m0 4.95v9.9m0 4.95v9.9m0 4.96v9.9m0 4.94v9.9m0 4.95v9.9m0 4.94v9.9m0 4.95v9.9m0 4.94v9.9m0 4.95v9.9m0 4.94v9.9m0 4.95v9.9m0 4.95v9.9m0 4.95v9.9m0 4.95v9.9m0 4.95v9.9m0 4.95V-96" stroke="#333" fill="none"/><path d="M1046.46-794h-.94v-.5h.94zM1046.46-95.5h-.94v-.5h.94z" stroke="#333" stroke-width=".05" fill="#333"/><path d="M1341.77-794v4.95m0 4.95v9.9m0 4.95v9.9m0 4.95v9.9m0 4.95v9.9m0 4.95v9.9m0 4.96v9.9m0 4.95v9.9m0 4.96v9.9m0 4.95v9.9m0 4.96v9.9m0 4.95v9.9m0 4.96v9.9m0 4.95v9.9m0 4.97v9.9m0 4.95v9.9m0 4.95v9.9m0 4.95v9.9m0 4.95v9.9m0 4.95v9.9m0 4.95v9.9m0 4.95v9.9m0 4.95v9.9m0 4.95v9.9m0 4.96v9.9m0 4.95v9.9m0 4.95v9.9m0 4.95v9.9m0 4.95v9.9m0 4.95v9.9m0 4.95v9.9m0 4.95v9.9m0 4.95v9.9m0 4.95v9.9m0 4.96v9.9m0 4.94v9.9m0 4.95v9.9m0 4.94v9.9m0 4.95v9.9m0 4.94v9.9m0 4.95v9.9m0 4.94v9.9m0 4.95v9.9m0 4.95v9.9m0 4.95v9.9m0 4.95v9.9m0 4.95v9.9m0 4.95V-96" stroke="#333" fill="none"/><path d="M1342.24-794h-.95v-.5h.94zM1342.24-95.5h-.95v-.5h.94z" stroke="#333" stroke-width=".05" fill="#333"/><path d="M-372.77-87a8 8 0 0 1 8-8h104a8 8 0 0 1 8 8v84a8 8 0 0 1-8 8h-104a8 8 0 0 1-8-8z" stroke="#000" fill="#4d9eff"/><use xlink:href="#a" transform="matrix(1,0,0,1,-352.7674856397332,-95) translate(16.37098765432099 54.48888888888888)"/><path d="M-132.77-887a8 8 0 0 1 8-8H-4.9a8 8 0 0 1 8 8v84a8 8 0 0 1-8 8h-119.87a8 8 0 0 1-8-8z" stroke="#000" fill="#4d9eff"/><use xlink:href="#b" transform="matrix(1,0,0,1,-112.7674856397332,-895) translate(-0.5361111111110972 54.48888888888888)"/><path d="M-132.77-87a8 8 0 0 1 8-8H-4.9a8 8 0 0 1 8 8v84a8 8 0 0 1-8 8h-119.87a8 8 0 0 1-8-8z" stroke="#000" fill="#4d9eff"/><use xlink:href="#b" transform="matrix(1,0,0,1,-112.7674856397332,-95) translate(-0.5361111111110972 54.48888888888888)"/><path d="M123.1-887a8 8 0 0 1 8-8H266a8 8 0 0 1 8 8v84a8 8 0 0 1-8 8H131.1a8 8 0 0 1-8-8z" stroke="#000" fill="#4d9eff"/><use xlink:href="#c" transform="matrix(1,0,0,1,143.10868719977293,-895) translate(-0.5487654320987474 54.48888888888888)"/><path d="M123.1-87a8 8 0 0 1 8-8H266a8 8 0 0 1 8 8v84a8 8 0 0 1-8 8H131.1a8 8 0 0 1-8-8z" stroke="#000" fill="#4d9eff"/><use xlink:href="#c" transform="matrix(1,0,0,1,143.10868719977293,-95) translate(-0.5487654320987474 54.48888888888888)"/><path d="M394-887a8 8 0 0 1 8-8h184.66a8 8 0 0 1 8 8v84a8 8 0 0 1-8 8H402a8 8 0 0 1-8-8z" stroke="#000" fill="#4d9eff"/><use xlink:href="#d" transform="matrix(1,0,0,1,414.0101686812543,-895) translate(-0.42469135802467406 54.48888888888888)"/><path d="M394-87a8 8 0 0 1 8-8h184.66a8 8 0 0 1 8 8v84a8 8 0 0 1-8 8H402a8 8 0 0 1-8-8z" stroke="#000" fill="#4d9eff"/><use xlink:href="#d" transform="matrix(1,0,0,1,414.0101686812543,-95) translate(-0.42469135802467406 54.48888888888888)"/><path d="M714.66-887a8 8 0 0 1 8-8h119.88a8 8 0 0 1 8 8v84a8 8 0 0 1-8 8H722.66a8 8 0 0 1-8-8z" stroke="#000" fill="#4d9eff"/><use xlink:href="#b" transform="matrix(1,0,0,1,734.6635020145875,-895) translate(-0.5361111111110972 54.48888888888888)"/><path d="M714.66-87a8 8 0 0 1 8-8h119.88a8 8 0 0 1 8 8v84a8 8 0 0 1-8 8H722.66a8 8 0 0 1-8-8z" stroke="#000" fill="#4d9eff"/><use xlink:href="#b" transform="matrix(1,0,0,1,734.6635020145875,-95) translate(-0.5361111111110972 54.48888888888888)"/><path d="M970.54-887a8 8 0 0 1 8-8h134.9a8 8 0 0 1 8 8v84a8 8 0 0 1-8 8h-134.9a8 8 0 0 1-8-8z" stroke="#000" fill="#4d9eff"/><use xlink:href="#c" transform="matrix(1,0,0,1,990.5396748540936,-895) translate(-0.5487654320987474 54.48888888888888)"/><path d="M970.54-87a8 8 0 0 1 8-8h134.9a8 8 0 0 1 8 8v84a8 8 0 0 1-8 8h-134.9a8 8 0 0 1-8-8z" stroke="#000" fill="#4d9eff"/><use xlink:href="#c" transform="matrix(1,0,0,1,990.5396748540936,-95) translate(-0.5487654320987474 54.48888888888888)"/><path d="M1241.44-887a8 8 0 0 1 8-8h184.65a8 8 0 0 1 8 8v84a8 8 0 0 1-8 8h-184.66a8 8 0 0 1-8-8z" stroke="#000" fill="#4d9eff"/><use xlink:href="#d" transform="matrix(1,0,0,1,1261.441156335575,-895) translate(-0.42469135802467406 54.48888888888888)"/><path d="M1241.44-87a8 8 0 0 1 8-8h184.65a8 8 0 0 1 8 8v84a8 8 0 0 1-8 8h-184.66a8 8 0 0 1-8-8z" stroke="#000" fill="#4d9eff"/><use xlink:href="#d" transform="matrix(1,0,0,1,1261.441156335575,-95) translate(-0.42469135802467406 54.48888888888888)"/><path d="M762.6-727a8 8 0 0 1 8-8h24a8 8 0 0 1 8 8v584a8 8 0 0 1-8 8h-24a8 8 0 0 1-8-8zM1026-667a8 8 0 0 1 8-8h24a8 8 0 0 1 8 8v344a8 8 0 0 1-8 8h-24a8 8 0 0 1-8-8zM1321.77-247a8 8 0 0 1 8-8h24a8 8 0 0 1 8 8v44a8 8 0 0 1-8 8h-24a8 8 0 0 1-8-8z" stroke="#000" fill="#4d9eff"/><path d="M-312.27-734.58h4.97m4.97.03l9.95.04m4.97 0l9.93.05m4.97.02l9.94.03m4.97.02l9.95.04m4.97.02l9.94.04m4.98 0l9.94.05m4.97.02l9.94.03m4.96 0l9.94.05m4.97.02l9.94.04m5 .02l9.93.03m4.97 0l9.94.05m4.97.02l9.95.04m4.97.02l9.94.04m4.98.02l9.94.04m4.97.02l9.94.03m4.96.02l9.94.03m4.97.02l9.95.04m4.97 0l9.93.04m4.97.02l9.94.04m4.97.02l9.95.03m4.97.02l9.94.04m4.98.03l9.94.04m4.97 0l9.94.05m4.96.02l9.94.04m4.97.02l9.94.03m4.98.02l9.95.04m4.97 0l9.94.05m4.97 0l9.95.05m4.97.02l9.94.04m4.97.02l9.95.03m4.97.03l9.94.04m4.96.02l9.94.02m4.97.02l9.94.04m4.98.02l9.95.04m4.97.02l9.94.03m4.97 0l9.95.05m4.97.02l9.94.03m4.97.02l9.94.04m4.98.02l9.94.04m4.96.02l9.94.03m4.97.02l9.94.03m4.98.02l9.94.03m4.98.02l9.94.04m4.97.02l9.95.04m4.97 0l9.94.05m4.97.02l9.94.04m4.98.03l9.94.04m4.96 0l9.94.05m4.97.02l9.94.04m4.98.02l9.94.03m4.98.02l9.94.04m4.97 0l9.95.04m4.97.02l9.94.04m4.97.02l9.94.04m4.97 0l9.95.05m4.96.03l9.94.04m4.97.02l9.94.02m4.98.02l9.94.04m4.98.02l9.94.04m4.97 0l9.95.05m4.97 0l9.94.05m4.97.02l9.94.03m4.97.02l9.95.04m4.96.02l9.94.04m4.97 0l9.94.05m4.98.02l9.94.03m4.97.02l9.94.03m4.97.02l9.95.04m4.97.02l9.94.04m4.97 0l9.94.05m4.97.02l4.98.02M-312.25-734.58h-.52" stroke="#333" fill="none"/><path d="M761.28-730.56l-14.28 4.6.03-9.28z" stroke="#333" fill="#333"/><use xlink:href="#e" transform="matrix(1,0,0,1,110.19326632458855,-758.0994274133144) translate(0 14.359595959595957)"/><use xlink:href="#f" transform="matrix(1,0,0,1,110.19326632458855,-758.0994274133144) translate(75.58731762065095 14.359595959595957)"/><use xlink:href="#g" transform="matrix(1,0,0,1,110.19326632458855,-758.0994274133144) translate(140.40493827160492 14.359595959595957)"/><use xlink:href="#h" transform="matrix(1,0,0,1,110.19326632458855,-758.0994274133144) translate(162.2434904601571 14.359595959595957)"/><path d="M803.1-675l206.96 3.8" stroke="#333" fill="none"/><path d="M803.12-675.47v.95h-.02v-.95z" stroke="#333" stroke-width=".05" fill="#333"/><path d="M1024.83-670.94l-14.35 4.38.17-9.27z" stroke="#333" fill="#333"/><use xlink:href="#i" transform="matrix(1,0,0,1,802.7467025653068,-702.8821971383821) translate(0 14.359595959595957)"/><use xlink:href="#j" transform="matrix(1,0,0,1,802.7467025653068,-702.8821971383821) translate(76.63437149270482 14.359595959595957)"/><use xlink:href="#k" transform="matrix(1,0,0,1,802.7467025653068,-702.8821971383821) translate(98.472923681257 14.359595959595957)"/><use xlink:href="#l" transform="matrix(1,0,0,1,802.7467025653068,-702.8821971383821) translate(215.7928170594837 14.359595959595957)"/><path d="M1025.5-615h-5.02m-5 0h-10.02m-5 0h-10.02m-5 0H975.4m-5 0H960.4m-5 0h-10.02m-5 .02h-10.02m-5 0h-10.03m-5 0H900.3m-5 0h-10m-5 0h-10.03m-5 0h-10.02m-5 0h-10.02m-5 0l-10.02.02m-5 0h-10.02m-5 0h-10.02m-5 0h-10.02m-5 0H765.1m-5 0H750.1m-5 0h-10.02m-5 0h-10.02m-5 .02h-10.02m-5 0H690m-5 0h-10.03m-5 0h-10.03m-5 0h-10.02m-5 0h-10.02m-5 0l-10.02.02m-5 0h-10m-5.02 0h-10m-5.02 0h-10.02m-5 0h-10.02m-5 0H539.8m-5 0h-10.02m-5 0h-10.02m-5 0l-10.02.02m-5 0H479.7m-5 0h-10.03m-5 0h-10.03m-5 0h-10.02m-5 0h-10.02m-5 0H404.6m-5 0h-10m-5.02.02h-10m-5.02 0h-10m-5.02 0h-10.02m-5 0H329.5m-5 0h-10.02m-5 0h-10.02m-5 0h-10.02m-5 0l-10.02.02m-5 0H254.4m-5 0h-10.02m-5 0h-10.03m-5 0h-10.02m-5 0H194.3m-5 0h-10m-5.02 0l-10 .02m-5.02 0h-10m-5.02 0h-10m-5.02 0h-10m-5.02 0h-10.02m-5 0H89.16m-5 0H74.14m-5 0H59.12m-5 .02H44.1m-5 0H29.07m-5 0H14.05m-5 0H-.98m-5 0H-16m-5 0h-10m-5 0h-10.03m-5 .02h-10.02m-5 0h-10.02m-5 0H-91.1m-5 0h-10m-5.02 0h-10.02m-5 0h-10.02m-5 0h-10.02m-5 0l-10.02.02m-5 0h-10.02m-5 0h-10.02m-5 0h-10.02m-5 0h-10.02m-5 0h-10.03m-5 0h-10.03m-5 0h-10.02m-5 .02h-10.02m-5 0h-5" stroke="#333" fill="none"/><path d="M1025.5-614.52h-.02v-.96z" stroke="#333" stroke-width=".05" fill="#333"/><path d="M-311.15-614.76l14.27-4.63v9.27z" stroke="#333" fill="#333"/><use xlink:href="#e" transform="matrix(1,0,0,1,202.17234180438,-640.4179482382015) translate(0 14.359595959595957)"/><use xlink:href="#m" transform="matrix(1,0,0,1,202.17234180438,-640.4179482382015) translate(75.58731762065095 14.359595959595957)"/><use xlink:href="#n" transform="matrix(1,0,0,1,202.17234180438,-640.4179482382015) translate(202.82929292929288 14.359595959595957)"/><use xlink:href="#o" transform="matrix(1,0,0,1,202.17234180438,-640.4179482382015) translate(239.62575757575752 14.359595959595957)"/><path d="M-312.27-554.84L1009.6-555M-312.25-554.84h-.52" stroke="#333" fill="none"/><path d="M1024.37-555l-14.26 4.64v-9.27z" stroke="#333" fill="#333"/><use xlink:href="#p" transform="matrix(1,0,0,1,226.67578247832603,-580.460821514789) translate(0 14.359595959595957)"/><use xlink:href="#q" transform="matrix(1,0,0,1,226.67578247832603,-580.460821514789) translate(113.33111672278336 14.359595959595957)"/><use xlink:href="#r" transform="matrix(1,0,0,1,226.67578247832603,-580.460821514789) translate(150.127581369248 14.359595959595957)"/><use xlink:href="#o" transform="matrix(1,0,0,1,226.67578247832603,-580.460821514789) translate(190.962682379349 14.359595959595957)"/><path d="M1025-495h-5m-5.02 0h-10m-5.02 0h-10m-5 0h-10.02m-5 0H959.9m-5 0h-10m-5.02 0h-10m-5 0h-10.02m-5 0h-10.02m-5 0h-10m-5.02 0h-10m-5.02 0h-10m-5 0H839.8m-5 0h-10.02m-5 0h-10m-5.02 0h-10m-5 0h-10.02m-5 0H764.7m-5 0H749.7m-5 0l-10 .02m-5.02 0h-10m-5 0h-10.02m-5 0h-10.02m-5 0h-10m-5.02 0h-10m-5 0H644.6m-5 0h-10.02m-5 0h-10.02m-5 0h-10m-5.02 0h-10m-5 0H569.5m-5 0H554.5m-5 0h-10m-5.02 0h-10m-5 0h-10.03m-5 0h-10m-5.02 0h-10m-5 0H464.4m-5 0h-10m-5 0h-10.02m-5 0h-10.02m-5 0h-10m-5.02 0h-10m-5.02 0l-10 .02m-5 0H359.3m-5 0h-10.02m-5 0h-10m-5.02 0h-10m-5 0h-10.02m-5 0H284.2m-5 0H269.2m-5 0h-10m-5.02 0h-10m-5 0h-10.02m-5 0h-10.02m-5 0h-10m-5.02 0h-10m-5 0h-10.03m-5 0h-10.02m-5 0h-10.02m-5 0h-10m-5.02 0h-10m-5 0H89m-5 0H74m-5 0H59m-5.02 0h-10m-5 0H28.95m-5 0H13.93m-5 0H-1.1m-5 0l-10 .02m-5.02 0h-10m-5 0h-10.02m-5 0h-10.02m-5 0h-10.02m-5 0h-10m-5.02 0h-10m-5 0h-10.02m-5 0h-10.02m-5 0h-10m-5.02 0h-10m-5 0h-10.02m-5 0h-10.02m-5 0h-10m-5.02 0h-10m-5.02 0h-10m-5 0h-10.02m-5 0h-10.02m-5 0h-10m-5.02 0h-5" stroke="#333" fill="none"/><path d="M1025.5-494.52h-.52v-.96h.5z" stroke="#333" stroke-width=".05" fill="#333"/><path d="M-311.15-494.93l14.27-4.63v9.27z" stroke="#333" fill="#333"/><use xlink:href="#i" transform="matrix(1,0,0,1,239.908084659901,-520.5036817330046) translate(0 14.359595959595957)"/><use xlink:href="#j" transform="matrix(1,0,0,1,239.908084659901,-520.5036817330046) translate(76.63437149270482 14.359595959595957)"/><use xlink:href="#s" transform="matrix(1,0,0,1,239.908084659901,-520.5036817330046) translate(98.472923681257 14.359595959595957)"/><use xlink:href="#t" transform="matrix(1,0,0,1,239.908084659901,-520.5036817330046) translate(150.2273007856341 14.359595959595957)"/><use xlink:href="#u" transform="matrix(1,0,0,1,239.908084659901,-520.5036817330046) translate(191.01254208754204 14.359595959595957)"/><path d="M1025.5-435h-4.9m-4.92 0h-9.8m-4.9 0h-9.82m-4.9 0h-9.82m-4.9 0h-9.8m-4.92 0h-9.8m-4.9 0h-9.82m-4.9 0h-9.82m-4.9 0h-9.8m-4.92 0h-9.8m-4.9 0h-9.82m-4.9 0h-9.82m-4.9 0h-9.8m-4.9 0h-9.83m-4.9 0h-4.9" stroke="#333" fill="none"/><path d="M1025.5-434.52h-.02v-.96z" stroke="#333" stroke-width=".05" fill="#333"/><path d="M804.72-435l14.26-4.63v9.26z" stroke="#333" fill="#333"/><use xlink:href="#v" transform="matrix(1,0,0,1,810.6134152861923,-465.1746488550182) translate(0 14.359595959595957)"/><use xlink:href="#w" transform="matrix(1,0,0,1,810.6134152861923,-465.1746488550182) translate(48.7627946127946 14.359595959595957)"/><use xlink:href="#u" transform="matrix(1,0,0,1,810.6134152861923,-465.1746488550182) translate(166.0826879910213 14.359595959595957)"/><path d="M803.1-375h206.5" stroke="#333" fill="none"/><path d="M803.1-374.52v-.96z" stroke="#333" stroke-width=".05" fill="#333"/><path d="M1024.37-375l-14.26 4.63v-9.26z" stroke="#333" fill="#333"/><g><use xlink:href="#x" transform="matrix(1,0,0,1,747.4367146969666,-405.1746488550181) translate(0 14.359595959595957)"/><use xlink:href="#y" transform="matrix(1,0,0,1,747.4367146969666,-405.1746488550181) translate(89.5978956228956 14.359595959595957)"/><use xlink:href="#z" transform="matrix(1,0,0,1,747.4367146969666,-405.1746488550181) translate(136.36630190796853 14.359595959595957)"/><use xlink:href="#A" transform="matrix(1,0,0,1,747.4367146969666,-405.1746488550181) translate(165.1852132435465 14.359595959595957)"/><use xlink:href="#B" transform="matrix(1,0,0,1,747.4367146969666,-405.1746488550181) translate(230.0028338945005 14.359595959595957)"/></g><path d="M1025.94-319.08l-4.92.1m-4.93.08l-9.87.18m-4.92.1l-9.85.17m-4.93.1l-9.85.17m-4.93.1l-9.86.17m-4.92.08l-9.86.18m-4.93.1l-9.85.17m-4.93.1l-9.86.17m-4.93.1l-9.85.17m-4.92.1l-9.86.17m-4.93.1l-9.85.17m-4.94.1l-9.86.18m-4.92.1l-9.86.17m-4.93.1l-9.86.17m-4.93.1l-4.92.08" stroke="#333" fill="none"/><path d="M1026.42-319.14l.3.52h-.78l-.02-.94h.32z" stroke="#333" stroke-width=".05" fill="#333"/><path d="M804.22-315.03l14.18-4.9.17 9.27z" stroke="#333" fill="#333"/><g><use xlink:href="#C" transform="matrix(1,0,0,1,851.4545460686892,-342.5368183484901) translate(0 14.359595959595957)"/><use xlink:href="#D" transform="matrix(1,0,0,1,851.4545460686892,-342.5368183484901) translate(67.75934343434342 14.359595959595957)"/></g><path d="M803.1-255l503.9 2.35" stroke="#333" fill="none"/><path d="M803.12-255.47v.95h-.02v-.95z" stroke="#333" stroke-width=".05" fill="#333"/><path d="M1321.77-252.58l-14.3 4.57.05-9.3z" stroke="#333" fill="#333"/><g><use xlink:href="#e" transform="matrix(1,0,0,1,916.5450658313798,-279.3078001858926) translate(0 14.359595959595957)"/><use xlink:href="#E" transform="matrix(1,0,0,1,916.5450658313798,-279.3078001858926) translate(75.58731762065095 14.359595959595957)"/><use xlink:href="#t" transform="matrix(1,0,0,1,916.5450658313798,-279.3078001858926) translate(156.26032547699214 14.359595959595957)"/><use xlink:href="#A" transform="matrix(1,0,0,1,916.5450658313798,-279.3078001858926) translate(197.04556677890008 14.359595959595957)"/><use xlink:href="#B" transform="matrix(1,0,0,1,916.5450658313798,-279.3078001858926) translate(261.86318742985407 14.359595959595957)"/></g><path d="M1322.88-197.42l-4.94.02m-4.94.02l-9.88.05m-4.94.02l-9.88.04m-4.94.02l-9.88.05m-4.94.03l-9.88.05m-4.94.02l-9.88.05m-4.94.02l-9.88.04m-4.94.04l-9.88.04m-4.94.03l-9.88.05m-4.94.03l-9.88.04m-4.94.03l-9.88.04m-4.94 0l-9.88.06m-4.94.02l-9.88.05m-4.94.02l-9.88.05m-4.94.02l-9.88.05m-4.94.02l-9.88.04m-4.95.02l-9.88.05m-4.94.03l-9.9.04m-4.93.03l-9.88.04m-4.94.03l-9.88.04m-4.94.03l-9.87.05m-4.94.02l-9.9.05m-4.93.02l-9.88.05m-4.95.02l-9.88.05m-4.94 0l-9.88.06m-4.94.02l-9.87.05m-4.94.02l-9.9.05m-4.93.02l-9.88.04m-4.95.03l-9.88.03m-4.94.03l-9.88.04m-4.94.03l-9.87.04m-4.94.02l-9.9.04m-4.93.02l-9.88.05m-4.95.03l-9.88.05m-4.95.02l-4.93.02" stroke="#333" fill="none"/><path d="M1323.76-197l.04.05h-.93v-.95h.1z" stroke="#333" stroke-width=".05" fill="#333"/><path d="M804.22-195l14.24-4.7.05 9.26z" stroke="#333" fill="#333"/><g><use xlink:href="#F" transform="matrix(1,0,0,1,999.7605267352149,-221.7480254533128) translate(0 14.359595959595957)"/><use xlink:href="#G" transform="matrix(1,0,0,1,999.7605267352149,-221.7480254533128) translate(86.60631313131312 14.359595959595957)"/></g><path d="M762.4-139.45l-4.97.02m-4.97.02l-9.95.03m-4.96 0l-9.94.05m-4.97.02l-9.94.04m-4.98 0l-9.94.05m-4.97 0l-9.93.05m-4.98.02l-9.95.03m-4.97.02l-9.94.04m-4.97.02l-9.94.03m-4.97.03l-9.94.04m-4.98.02l-9.94.03m-4.97 0l-9.94.05m-4.98.02l-9.94.04m-4.97 0l-9.93.05m-4.98 0l-9.95.05m-4.97.02l-9.94.03m-4.97.02l-9.94.04m-4.97.02l-9.94.03m-4.98.03l-9.94.04m-4.97.02l-9.94.03m-4.98 0l-9.94.05m-4.97.02l-9.93.04m-4.97 0l-9.95.05m-4.97 0l-9.94.05m-4.97.02l-9.94.03m-4.97.02l-9.94.04m-4.97.02l-9.95.03m-4.97.03l-9.94.04m-4.98.02l-9.94.03m-4.97 0l-9.93.05m-4.97.02l-9.94.04m-4.98 0l-9.94.05m-4.97 0l-9.94.05m-4.97.02l-9.94.03m-4.97.02l-9.95.04m-4.97.02l-9.94.03m-4.98.03l-9.94.04m-4.97.02l-9.93.03m-4.97 0l-9.94.05m-4.97.02l-9.96.04m-4.97 0l-9.94.05m-4.97 0l-9.94.05m-4.97.02l-9.94.03m-4.96.02l-9.95.04m-4.98.02l-9.94.03m-4.97.03l-9.93.04m-4.97.02l-9.94.03m-4.97 0l-9.96.05m-4.97.02l-9.94.04m-4.97 0l-9.94.05m-4.97 0l-9.94.05m-4.96.02l-9.95.03m-4.98.02l-9.94.04m-4.97.02l-9.93.03m-4.97.03l-9.94.04m-4.97.02l-9.96.03m-4.97 0l-9.94.05m-4.97.02l-9.94.04m-4.97 0l-9.94.05m-4.96 0l-9.95.05m-4.98.02l-9.94.03m-4.97.02l-9.93.04m-4.97.02l-9.94.03m-4.97.03l-9.96.04m-4.97.02l-9.94.03m-4.97 0l-9.94.05m-4.97.02l-9.94.04m-4.96 0l-9.95.05m-4.98 0l-9.94.05m-4.97.02l-9.93.03m-4.97.02l-9.94.04m-4.97.02l-4.98.02" stroke="#333" fill="none"/><path d="M763.03-139.14l.1.16h-.74l-.02-.94h.32z" stroke="#333" stroke-width=".05" fill="#333"/><path d="M-311.15-135.45l14.25-4.7.03 9.28z" stroke="#333" fill="#333"/><g><use xlink:href="#H" transform="matrix(1,0,0,1,129.40042345108935,-162.98122373122442) translate(0 14.359595959595957)"/><use xlink:href="#E" transform="matrix(1,0,0,1,129.40042345108935,-162.98122373122442) translate(68.7066778900112 14.359595959595957)"/><use xlink:href="#I" transform="matrix(1,0,0,1,129.40042345108935,-162.98122373122442) translate(149.37968574635238 14.359595959595957)"/></g><defs><path d="M232-93c-1 65-40 97-104 97C67 4 28-28 28-90v-158h33c8 89-33 224 67 224 102 0 64-133 71-224h33v155" id="J"/><path d="M135-143c-3-34-86-38-87 0 15 53 115 12 119 90S17 21 10-45l28-5c4 36 97 45 98 0-10-56-113-15-118-90-4-57 82-63 122-42 12 7 21 19 24 35" id="K"/><path d="M100-194c63 0 86 42 84 106H49c0 40 14 67 53 68 26 1 43-12 49-29l28 8c-11 28-37 45-77 45C44 4 14-33 15-96c1-61 26-98 85-98zm52 81c6-60-76-77-97-28-3 7-6 17-6 28h103" id="L"/><path d="M114-163C36-179 61-72 57 0H25l-1-190h30c1 12-1 29 2 39 6-27 23-49 58-41v29" id="M"/><g id="a"><use transform="matrix(0.06234567901234567,0,0,0.06234567901234567,0,0)" xlink:href="#J"/><use transform="matrix(0.06234567901234567,0,0,0.06234567901234567,16.147530864197527,0)" xlink:href="#K"/><use transform="matrix(0.06234567901234567,0,0,0.06234567901234567,27.36975308641975,0)" xlink:href="#L"/><use transform="matrix(0.06234567901234567,0,0,0.06234567901234567,39.83888888888888,0)" xlink:href="#M"/></g><path d="M212-179c-10-28-35-45-73-45-59 0-87 40-87 99 0 60 29 101 89 101 43 0 62-24 78-52l27 14C228-24 195 4 139 4 59 4 22-46 18-125c-6-104 99-153 187-111 19 9 31 26 39 46" id="N"/><path d="M24 0v-261h32V0H24" id="O"/><path d="M24-231v-30h32v30H24zM24 0v-190h32V0H24" id="P"/><path d="M117-194c89-4 53 116 60 194h-32v-121c0-31-8-49-39-48C34-167 62-67 57 0H25l-1-190h30c1 10-1 24 2 32 11-22 29-35 61-36" id="Q"/><path d="M59-47c-2 24 18 29 38 22v24C64 9 27 4 27-40v-127H5v-23h24l9-43h21v43h35v23H59v120" id="R"/><path d="M205 0l-28-72H64L36 0H1l101-248h38L239 0h-34zm-38-99l-47-123c-12 45-31 82-46 123h93" id="S"/><path d="M115-194c55 1 70 41 70 98S169 2 115 4C84 4 66-9 55-30l1 105H24l-1-265h31l2 30c10-21 28-34 59-34zm-8 174c40 0 45-34 45-75s-6-73-45-74c-42 0-51 32-51 76 0 43 10 73 51 73" id="T"/><g id="b"><use transform="matrix(0.06234567901234567,0,0,0.06234567901234567,0,0)" xlink:href="#N"/><use transform="matrix(0.06234567901234567,0,0,0.06234567901234567,16.147530864197527,0)" xlink:href="#O"/><use transform="matrix(0.06234567901234567,0,0,0.06234567901234567,21.072839506172834,0)" xlink:href="#P"/><use transform="matrix(0.06234567901234567,0,0,0.06234567901234567,25.99814814814814,0)" xlink:href="#L"/><use transform="matrix(0.06234567901234567,0,0,0.06234567901234567,38.46728395061727,0)" xlink:href="#Q"/><use transform="matrix(0.06234567901234567,0,0,0.06234567901234567,50.936419753086405,0)" xlink:href="#R"/><use transform="matrix(0.06234567901234567,0,0,0.06234567901234567,57.17098765432097,0)" xlink:href="#S"/><use transform="matrix(0.06234567901234567,0,0,0.06234567901234567,72.13395061728393,0)" xlink:href="#T"/><use transform="matrix(0.06234567901234567,0,0,0.06234567901234567,84.60308641975305,0)" xlink:href="#T"/></g><path d="M84 4C-5 8 30-112 23-190h32v120c0 31 7 50 39 49 72-2 45-101 50-169h31l1 190h-30c-1-10 1-25-2-33-11 22-28 36-60 37" id="U"/><path d="M106-169C34-169 62-67 57 0H25v-261h32l-1 103c12-21 28-36 61-36 89 0 53 116 60 194h-32v-121c2-32-8-49-39-48" id="V"/><path d="M185-189c-5-48-123-54-124 2 14 75 158 14 163 119 3 78-121 87-175 55-17-10-28-26-33-46l33-7c5 56 141 63 141-1 0-78-155-14-162-118-5-82 145-84 179-34 5 7 8 16 11 25" id="W"/><path d="M108 0H70L1-190h34L89-25l56-165h34" id="X"/><g id="c"><use transform="matrix(0.06234567901234567,0,0,0.06234567901234567,0,0)" xlink:href="#S"/><use transform="matrix(0.06234567901234567,0,0,0.06234567901234567,14.96296296296296,0)" xlink:href="#U"/><use transform="matrix(0.06234567901234567,0,0,0.06234567901234567,27.432098765432094,0)" xlink:href="#R"/><use transform="matrix(0.06234567901234567,0,0,0.06234567901234567,33.66666666666666,0)" xlink:href="#V"/><use transform="matrix(0.06234567901234567,0,0,0.06234567901234567,46.13580246913579,0)" xlink:href="#W"/><use transform="matrix(0.06234567901234567,0,0,0.06234567901234567,61.09876543209875,0)" xlink:href="#L"/><use transform="matrix(0.06234567901234567,0,0,0.06234567901234567,73.56790123456788,0)" xlink:href="#M"/><use transform="matrix(0.06234567901234567,0,0,0.06234567901234567,80.98703703703701,0)" xlink:href="#X"/><use transform="matrix(0.06234567901234567,0,0,0.06234567901234567,92.20925925925923,0)" xlink:href="#L"/><use transform="matrix(0.06234567901234567,0,0,0.06234567901234567,104.67839506172837,0)" xlink:href="#M"/></g><path d="M233-177c-1 41-23 64-60 70L243 0h-38l-65-103H63V0H30v-248c88 3 205-21 203 71zM63-129c60-2 137 13 137-47 0-61-80-42-137-45v92" id="Y"/><path d="M100-194c62-1 85 37 85 99 1 63-27 99-86 99S16-35 15-95c0-66 28-99 85-99zM99-20c44 1 53-31 53-75 0-43-8-75-51-75s-53 32-53 75 10 74 51 75" id="Z"/><path d="M96-169c-40 0-48 33-48 73s9 75 48 75c24 0 41-14 43-38l32 2c-6 37-31 61-74 61-59 0-76-41-82-99-10-93 101-131 147-64 4 7 5 14 7 22l-32 3c-4-21-16-35-41-35" id="aa"/><g id="d"><use transform="matrix(0.06234567901234567,0,0,0.06234567901234567,0,0)" xlink:href="#Y"/><use transform="matrix(0.06234567901234567,0,0,0.06234567901234567,16.147530864197527,0)" xlink:href="#L"/><use transform="matrix(0.06234567901234567,0,0,0.06234567901234567,28.61666666666666,0)" xlink:href="#K"/><use transform="matrix(0.06234567901234567,0,0,0.06234567901234567,39.83888888888888,0)" xlink:href="#Z"/><use transform="matrix(0.06234567901234567,0,0,0.06234567901234567,52.308024691358014,0)" xlink:href="#U"/><use transform="matrix(0.06234567901234567,0,0,0.06234567901234567,64.77716049382715,0)" xlink:href="#M"/><use transform="matrix(0.06234567901234567,0,0,0.06234567901234567,72.19629629629628,0)" xlink:href="#aa"/><use transform="matrix(0.06234567901234567,0,0,0.06234567901234567,83.4185185185185,0)" xlink:href="#L"/><use transform="matrix(0.06234567901234567,0,0,0.06234567901234567,95.88765432098762,0)" xlink:href="#W"/><use transform="matrix(0.06234567901234567,0,0,0.06234567901234567,110.85061728395058,0)" xlink:href="#L"/><use transform="matrix(0.06234567901234567,0,0,0.06234567901234567,123.31975308641972,0)" xlink:href="#M"/><use transform="matrix(0.06234567901234567,0,0,0.06234567901234567,130.73888888888885,0)" xlink:href="#X"/><use transform="matrix(0.06234567901234567,0,0,0.06234567901234567,141.96111111111108,0)" xlink:href="#L"/><use transform="matrix(0.06234567901234567,0,0,0.06234567901234567,154.43024691358022,0)" xlink:href="#M"/></g><path d="M240-174c0 40-23 61-54 70L253 0h-59l-57-94H76V0H24v-248c93 4 217-23 216 74zM76-134c48-2 112 12 112-38 0-48-66-32-112-35v73" id="ab"/><path d="M185-48c-13 30-37 53-82 52C43 2 14-33 14-96s30-98 90-98c62 0 83 45 84 108H66c0 31 8 55 39 56 18 0 30-7 34-22zm-45-69c5-46-57-63-70-21-2 6-4 13-4 21h74" id="ac"/><path d="M84 4C32 4 15-41 15-95c0-55 18-99 73-99 29 0 47 12 58 34l2-30h48l-1 265h-49V-32C136-9 114 4 84 4zm21-34c32 0 41-29 41-66 0-36-9-64-40-64-33 0-39 30-40 65 0 43 13 65 39 65" id="ad"/><path d="M85 4C-2 5 27-109 22-190h50c7 57-23 150 33 157 60-5 35-97 40-157h50l1 190h-47c-2-12 1-28-3-38-12 25-28 42-61 42" id="ae"/><path d="M137-138c1-29-70-34-71-4 15 46 118 7 119 86 1 83-164 76-172 9l43-7c4 19 20 25 44 25 33 8 57-30 24-41C81-84 22-81 20-136c-2-80 154-74 161-7" id="af"/><path d="M115-3C79 11 28 4 28-45v-112H4v-33h27l15-45h31v45h36v33H77v99c-1 23 16 31 38 25v30" id="ag"/><g id="e"><use transform="matrix(0.049859708193041516,0,0,0.049859708193041516,0,0)" xlink:href="#ab"/><use transform="matrix(0.049859708193041516,0,0,0.049859708193041516,12.913664421997753,0)" xlink:href="#ac"/><use transform="matrix(0.049859708193041516,0,0,0.049859708193041516,22.885606060606058,0)" xlink:href="#ad"/><use transform="matrix(0.049859708193041516,0,0,0.049859708193041516,33.80488215488215,0)" xlink:href="#ae"/><use transform="matrix(0.049859708193041516,0,0,0.049859708193041516,44.72415824915824,0)" xlink:href="#ac"/><use transform="matrix(0.049859708193041516,0,0,0.049859708193041516,54.69609988776656,0)" xlink:href="#af"/><use transform="matrix(0.049859708193041516,0,0,0.049859708193041516,64.66804152637485,0)" xlink:href="#ag"/></g><path d="M133-34C117-15 103 5 69 4 32 3 11-16 11-54c-1-60 55-63 116-61 1-26-3-47-28-47-18 1-26 9-28 27l-52-2c7-38 36-58 82-57s74 22 75 68l1 82c-1 14 12 18 25 15v27c-30 8-71 5-69-32zm-48 3c29 0 43-24 42-57-32 0-66-3-65 30 0 17 8 27 23 27" id="ah"/><path d="M190-63c-7 42-38 67-86 67-59 0-84-38-90-98-12-110 154-137 174-36l-49 2c-2-19-15-32-35-32-30 0-35 28-38 64-6 74 65 87 74 30" id="ai"/><g id="f"><use transform="matrix(0.049859708193041516,0,0,0.049859708193041516,0,0)" xlink:href="#ah"/><use transform="matrix(0.049859708193041516,0,0,0.049859708193041516,9.971941638608303,0)" xlink:href="#ai"/><use transform="matrix(0.049859708193041516,0,0,0.049859708193041516,19.943883277216607,0)" xlink:href="#ai"/><use transform="matrix(0.049859708193041516,0,0,0.049859708193041516,29.91582491582491,0)" xlink:href="#ac"/><use transform="matrix(0.049859708193041516,0,0,0.049859708193041516,39.88776655443321,0)" xlink:href="#af"/><use transform="matrix(0.049859708193041516,0,0,0.049859708193041516,49.85970819304151,0)" xlink:href="#af"/></g><path d="M110-194c64 0 96 36 96 99 0 64-35 99-97 99-61 0-95-36-95-99 0-62 34-99 96-99zm-1 164c35 0 45-28 45-65 0-40-10-65-43-65-34 0-45 26-45 65 0 36 10 65 43 65" id="aj"/><g id="g"><use transform="matrix(0.049859708193041516,0,0,0.049859708193041516,0,0)" xlink:href="#ag"/><use transform="matrix(0.049859708193041516,0,0,0.049859708193041516,5.93330527497194,0)" xlink:href="#aj"/></g><path d="M135-150c-39-12-60 13-60 57V0H25l-1-190h47c2 13-1 29 3 40 6-28 27-53 61-41v41" id="ak"/><g id="h"><use transform="matrix(0.049859708193041516,0,0,0.049859708193041516,0,0)" xlink:href="#ak"/><use transform="matrix(0.049859708193041516,0,0,0.049859708193041516,6.980359147025812,0)" xlink:href="#ac"/><use transform="matrix(0.049859708193041516,0,0,0.049859708193041516,16.952300785634115,0)" xlink:href="#af"/><use transform="matrix(0.049859708193041516,0,0,0.049859708193041516,26.92424242424242,0)" xlink:href="#aj"/><use transform="matrix(0.049859708193041516,0,0,0.049859708193041516,37.84351851851851,0)" xlink:href="#ae"/><use transform="matrix(0.049859708193041516,0,0,0.049859708193041516,48.7627946127946,0)" xlink:href="#ak"/><use transform="matrix(0.049859708193041516,0,0,0.049859708193041516,55.743153759820416,0)" xlink:href="#ai"/><use transform="matrix(0.049859708193041516,0,0,0.049859708193041516,65.71509539842872,0)" xlink:href="#ac"/></g><path d="M88-194c31-1 46 15 58 34l-1-101h50l1 261h-48c-2-10 0-23-3-31C134-8 116 4 84 4 32 4 16-41 15-95c0-56 19-97 73-99zm17 164c33 0 40-30 41-66 1-37-9-64-41-64s-38 30-39 65c0 43 13 65 39 65" id="al"/><path d="M25-224v-37h50v37H25zM25 0v-190h50V0H25" id="am"/><g id="i"><use transform="matrix(0.049859708193041516,0,0,0.049859708193041516,0,0)" xlink:href="#ab"/><use transform="matrix(0.049859708193041516,0,0,0.049859708193041516,12.913664421997753,0)" xlink:href="#ac"/><use transform="matrix(0.049859708193041516,0,0,0.049859708193041516,22.885606060606058,0)" xlink:href="#al"/><use transform="matrix(0.049859708193041516,0,0,0.049859708193041516,33.80488215488215,0)" xlink:href="#am"/><use transform="matrix(0.049859708193041516,0,0,0.049859708193041516,38.7908529741863,0)" xlink:href="#ak"/><use transform="matrix(0.049859708193041516,0,0,0.049859708193041516,45.771212121212116,0)" xlink:href="#ac"/><use transform="matrix(0.049859708193041516,0,0,0.049859708193041516,55.743153759820416,0)" xlink:href="#ai"/><use transform="matrix(0.049859708193041516,0,0,0.049859708193041516,65.71509539842872,0)" xlink:href="#ag"/></g><g id="j"><use transform="matrix(0.049859708193041516,0,0,0.049859708193041516,0,0)" xlink:href="#ag"/><use transform="matrix(0.049859708193041516,0,0,0.049859708193041516,5.93330527497194,0)" xlink:href="#aj"/></g><path d="M114-157C55-157 80-60 75 0H25v-261h50l-1 109c12-26 28-41 61-42 86-1 58 113 63 194h-50c-7-57 23-157-34-157" id="an"/><path d="M12 0v-35l95-120H19v-35h142v35L67-36h103V0H12" id="ao"/><path d="M135-194c87-1 58 113 63 194h-50c-7-57 23-157-34-157-59 0-34 97-39 157H25l-1-190h47c2 12-1 28 3 38 12-26 28-41 61-42" id="ap"/><g id="k"><use transform="matrix(0.049859708193041516,0,0,0.049859708193041516,0,0)" xlink:href="#ah"/><use transform="matrix(0.049859708193041516,0,0,0.049859708193041516,9.971941638608303,0)" xlink:href="#ae"/><use transform="matrix(0.049859708193041516,0,0,0.049859708193041516,20.891217732884396,0)" xlink:href="#ag"/><use transform="matrix(0.049859708193041516,0,0,0.049859708193041516,26.824523007856335,0)" xlink:href="#an"/><use transform="matrix(0.049859708193041516,0,0,0.049859708193041516,37.74379910213243,0)" xlink:href="#aj"/><use transform="matrix(0.049859708193041516,0,0,0.049859708193041516,48.66307519640852,0)" xlink:href="#ak"/><use transform="matrix(0.049859708193041516,0,0,0.049859708193041516,55.64343434343433,0)" xlink:href="#am"/><use transform="matrix(0.049859708193041516,0,0,0.049859708193041516,60.629405162738486,0)" xlink:href="#ao"/><use transform="matrix(0.049859708193041516,0,0,0.049859708193041516,69.60415263748595,0)" xlink:href="#ah"/><use transform="matrix(0.049859708193041516,0,0,0.049859708193041516,79.57609427609425,0)" xlink:href="#ag"/><use transform="matrix(0.049859708193041516,0,0,0.049859708193041516,85.5093995510662,0)" xlink:href="#am"/><use transform="matrix(0.049859708193041516,0,0,0.049859708193041516,90.49537037037035,0)" xlink:href="#aj"/><use transform="matrix(0.049859708193041516,0,0,0.049859708193041516,101.41464646464644,0)" xlink:href="#ap"/></g><path d="M128 0H69L1-190h53L99-40l48-150h52" id="aq"/><g id="l"><use transform="matrix(0.049859708193041516,0,0,0.049859708193041516,0,0)" xlink:href="#af"/><use transform="matrix(0.049859708193041516,0,0,0.049859708193041516,9.971941638608303,0)" xlink:href="#ac"/><use transform="matrix(0.049859708193041516,0,0,0.049859708193041516,19.943883277216607,0)" xlink:href="#ak"/><use transform="matrix(0.049859708193041516,0,0,0.049859708193041516,26.92424242424242,0)" xlink:href="#aq"/><use transform="matrix(0.049859708193041516,0,0,0.049859708193041516,36.89618406285072,0)" xlink:href="#ac"/><use transform="matrix(0.049859708193041516,0,0,0.049859708193041516,46.86812570145902,0)" xlink:href="#ak"/></g><g id="m"><use transform="matrix(0.049859708193041516,0,0,0.049859708193041516,0,0)" xlink:href="#ah"/><use transform="matrix(0.049859708193041516,0,0,0.049859708193041516,9.971941638608303,0)" xlink:href="#ae"/><use transform="matrix(0.049859708193041516,0,0,0.049859708193041516,20.891217732884396,0)" xlink:href="#ag"/><use transform="matrix(0.049859708193041516,0,0,0.049859708193041516,26.824523007856335,0)" xlink:href="#an"/><use transform="matrix(0.049859708193041516,0,0,0.049859708193041516,37.74379910213243,0)" xlink:href="#ac"/><use transform="matrix(0.049859708193041516,0,0,0.049859708193041516,47.71574074074073,0)" xlink:href="#ap"/><use transform="matrix(0.049859708193041516,0,0,0.049859708193041516,58.63501683501682,0)" xlink:href="#ag"/><use transform="matrix(0.049859708193041516,0,0,0.049859708193041516,64.56832210998876,0)" xlink:href="#am"/><use transform="matrix(0.049859708193041516,0,0,0.049859708193041516,69.55429292929291,0)" xlink:href="#ai"/><use transform="matrix(0.049859708193041516,0,0,0.049859708193041516,79.52623456790121,0)" xlink:href="#ah"/><use transform="matrix(0.049859708193041516,0,0,0.049859708193041516,89.49817620650951,0)" xlink:href="#ag"/><use transform="matrix(0.049859708193041516,0,0,0.049859708193041516,95.43148148148146,0)" xlink:href="#am"/><use transform="matrix(0.049859708193041516,0,0,0.049859708193041516,100.41745230078561,0)" xlink:href="#aj"/><use transform="matrix(0.049859708193041516,0,0,0.049859708193041516,111.3367283950617,0)" xlink:href="#ap"/></g><g id="n"><use transform="matrix(0.049859708193041516,0,0,0.049859708193041516,0,0)" xlink:href="#ah"/><use transform="matrix(0.049859708193041516,0,0,0.049859708193041516,9.971941638608303,0)" xlink:href="#ap"/><use transform="matrix(0.049859708193041516,0,0,0.049859708193041516,20.891217732884396,0)" xlink:href="#al"/></g><g id="o"><use transform="matrix(0.049859708193041516,0,0,0.049859708193041516,0,0)" xlink:href="#ai"/><use transform="matrix(0.049859708193041516,0,0,0.049859708193041516,9.971941638608303,0)" xlink:href="#aj"/><use transform="matrix(0.049859708193041516,0,0,0.049859708193041516,20.891217732884396,0)" xlink:href="#ap"/><use transform="matrix(0.049859708193041516,0,0,0.049859708193041516,31.81049382716049,0)" xlink:href="#af"/><use transform="matrix(0.049859708193041516,0,0,0.049859708193041516,41.78243546576879,0)" xlink:href="#ac"/><use transform="matrix(0.049859708193041516,0,0,0.049859708193041516,51.75437710437709,0)" xlink:href="#ap"/><use transform="matrix(0.049859708193041516,0,0,0.049859708193041516,62.6736531986532,0)" xlink:href="#ag"/></g><path d="M199 0l-22-63H83L61 0H9l90-248h61L250 0h-51zm-33-102l-36-108c-10 38-24 72-36 108h72" id="ar"/><g id="p"><use transform="matrix(0.049859708193041516,0,0,0.049859708193041516,0,0)" xlink:href="#ar"/><use transform="matrix(0.049859708193041516,0,0,0.049859708193041516,12.913664421997753,0)" xlink:href="#ae"/><use transform="matrix(0.049859708193041516,0,0,0.049859708193041516,23.832940516273844,0)" xlink:href="#ag"/><use transform="matrix(0.049859708193041516,0,0,0.049859708193041516,29.766245791245787,0)" xlink:href="#an"/><use transform="matrix(0.049859708193041516,0,0,0.049859708193041516,40.68552188552188,0)" xlink:href="#ac"/><use transform="matrix(0.049859708193041516,0,0,0.049859708193041516,50.65746352413018,0)" xlink:href="#ap"/><use transform="matrix(0.049859708193041516,0,0,0.049859708193041516,61.57673961840627,0)" xlink:href="#ag"/><use transform="matrix(0.049859708193041516,0,0,0.049859708193041516,67.51004489337821,0)" xlink:href="#am"/><use transform="matrix(0.049859708193041516,0,0,0.049859708193041516,72.49601571268236,0)" xlink:href="#ai"/><use transform="matrix(0.049859708193041516,0,0,0.049859708193041516,82.46795735129066,0)" xlink:href="#ah"/><use transform="matrix(0.049859708193041516,0,0,0.049859708193041516,92.43989898989896,0)" xlink:href="#ag"/><use transform="matrix(0.049859708193041516,0,0,0.049859708193041516,98.3732042648709,0)" xlink:href="#ac"/></g><g id="q"><use transform="matrix(0.049859708193041516,0,0,0.049859708193041516,0,0)" xlink:href="#ah"/><use transform="matrix(0.049859708193041516,0,0,0.049859708193041516,9.971941638608303,0)" xlink:href="#ap"/><use transform="matrix(0.049859708193041516,0,0,0.049859708193041516,20.891217732884396,0)" xlink:href="#al"/></g><path d="M195-6C206 82 75 100 31 46c-4-6-6-13-8-21l49-6c3 16 16 24 34 25 40 0 42-37 40-79-11 22-30 35-61 35-53 0-70-43-70-97 0-56 18-96 73-97 30 0 46 14 59 34l2-30h47zm-90-29c32 0 41-27 41-63 0-35-9-62-40-62-32 0-39 29-40 63 0 36 9 62 39 62" id="as"/><g id="r"><use transform="matrix(0.049859708193041516,0,0,0.049859708193041516,0,0)" xlink:href="#as"/><use transform="matrix(0.049859708193041516,0,0,0.049859708193041516,10.919276094276093,0)" xlink:href="#am"/><use transform="matrix(0.049859708193041516,0,0,0.049859708193041516,15.905246913580244,0)" xlink:href="#aq"/><use transform="matrix(0.049859708193041516,0,0,0.049859708193041516,25.877188552188546,0)" xlink:href="#ac"/></g><path d="M25 0v-261h50V0H25" id="at"/><g id="s"><use transform="matrix(0.049859708193041516,0,0,0.049859708193041516,0,0)" xlink:href="#ai"/><use transform="matrix(0.049859708193041516,0,0,0.049859708193041516,9.971941638608303,0)" xlink:href="#at"/><use transform="matrix(0.049859708193041516,0,0,0.049859708193041516,14.957912457912455,0)" xlink:href="#am"/><use transform="matrix(0.049859708193041516,0,0,0.049859708193041516,19.943883277216607,0)" xlink:href="#ac"/><use transform="matrix(0.049859708193041516,0,0,0.049859708193041516,29.91582491582491,0)" xlink:href="#ap"/><use transform="matrix(0.049859708193041516,0,0,0.049859708193041516,40.835101010101,0)" xlink:href="#ag"/></g><path d="M231 0h-52l-39-155L100 0H48L-1-190h46L77-45c9-52 24-97 36-145h53l37 145 32-145h46" id="au"/><g id="t"><use transform="matrix(0.049859708193041516,0,0,0.049859708193041516,0,0)" xlink:href="#au"/><use transform="matrix(0.049859708193041516,0,0,0.049859708193041516,13.960718294051624,0)" xlink:href="#am"/><use transform="matrix(0.049859708193041516,0,0,0.049859708193041516,18.946689113355774,0)" xlink:href="#ag"/><use transform="matrix(0.049859708193041516,0,0,0.049859708193041516,24.879994388327713,0)" xlink:href="#an"/></g><g id="u"><use transform="matrix(0.049859708193041516,0,0,0.049859708193041516,0,0)" xlink:href="#ai"/><use transform="matrix(0.049859708193041516,0,0,0.049859708193041516,9.971941638608303,0)" xlink:href="#aj"/><use transform="matrix(0.049859708193041516,0,0,0.049859708193041516,20.891217732884396,0)" xlink:href="#al"/><use transform="matrix(0.049859708193041516,0,0,0.049859708193041516,31.81049382716049,0)" xlink:href="#ac"/></g><path d="M169-182c-1-43-94-46-97-3 18 66 151 10 154 114 3 95-165 93-204 36-6-8-10-19-12-30l50-8c3 46 112 56 116 5-17-69-150-10-154-114-4-87 153-88 188-35 5 8 8 18 10 28" id="av"/><g id="v"><use transform="matrix(0.049859708193041516,0,0,0.049859708193041516,0,0)" xlink:href="#av"/><use transform="matrix(0.049859708193041516,0,0,0.049859708193041516,11.966329966329964,0)" xlink:href="#ac"/><use transform="matrix(0.049859708193041516,0,0,0.049859708193041516,21.938271604938265,0)" xlink:href="#ap"/><use transform="matrix(0.049859708193041516,0,0,0.049859708193041516,32.85754769921436,0)" xlink:href="#al"/></g><g id="w"><use transform="matrix(0.049859708193041516,0,0,0.049859708193041516,0,0)" xlink:href="#ah"/><use transform="matrix(0.049859708193041516,0,0,0.049859708193041516,9.971941638608303,0)" xlink:href="#ae"/><use transform="matrix(0.049859708193041516,0,0,0.049859708193041516,20.891217732884396,0)" xlink:href="#ag"/><use transform="matrix(0.049859708193041516,0,0,0.049859708193041516,26.824523007856335,0)" xlink:href="#an"/><use transform="matrix(0.049859708193041516,0,0,0.049859708193041516,37.74379910213243,0)" xlink:href="#aj"/><use transform="matrix(0.049859708193041516,0,0,0.049859708193041516,48.66307519640852,0)" xlink:href="#ak"/><use transform="matrix(0.049859708193041516,0,0,0.049859708193041516,55.64343434343433,0)" xlink:href="#am"/><use transform="matrix(0.049859708193041516,0,0,0.049859708193041516,60.629405162738486,0)" xlink:href="#ao"/><use transform="matrix(0.049859708193041516,0,0,0.049859708193041516,69.60415263748595,0)" xlink:href="#ah"/><use transform="matrix(0.049859708193041516,0,0,0.049859708193041516,79.57609427609425,0)" xlink:href="#ag"/><use transform="matrix(0.049859708193041516,0,0,0.049859708193041516,85.5093995510662,0)" xlink:href="#am"/><use transform="matrix(0.049859708193041516,0,0,0.049859708193041516,90.49537037037035,0)" xlink:href="#aj"/><use transform="matrix(0.049859708193041516,0,0,0.049859708193041516,101.41464646464644,0)" xlink:href="#ap"/></g><path d="M24 0v-248h195v40H76v63h132v40H76v65h150V0H24" id="aw"/><path d="M144 0l-44-69L55 0H2l70-98-66-92h53l41 62 40-62h54l-67 91 71 99h-54" id="ax"/><g id="x"><use transform="matrix(0.049859708193041516,0,0,0.049859708193041516,0,0)" xlink:href="#aw"/><use transform="matrix(0.049859708193041516,0,0,0.049859708193041516,11.966329966329964,0)" xlink:href="#ax"/><use transform="matrix(0.049859708193041516,0,0,0.049859708193041516,21.938271604938265,0)" xlink:href="#ai"/><use transform="matrix(0.049859708193041516,0,0,0.049859708193041516,31.910213243546572,0)" xlink:href="#an"/><use transform="matrix(0.049859708193041516,0,0,0.049859708193041516,42.829489337822665,0)" xlink:href="#ah"/><use transform="matrix(0.049859708193041516,0,0,0.049859708193041516,52.801430976430964,0)" xlink:href="#ap"/><use transform="matrix(0.049859708193041516,0,0,0.049859708193041516,63.72070707070706,0)" xlink:href="#as"/><use transform="matrix(0.049859708193041516,0,0,0.049859708193041516,74.63998316498315,0)" xlink:href="#ac"/></g><g id="y"><use transform="matrix(0.049859708193041516,0,0,0.049859708193041516,0,0)" xlink:href="#ai"/><use transform="matrix(0.049859708193041516,0,0,0.049859708193041516,9.971941638608303,0)" xlink:href="#aj"/><use transform="matrix(0.049859708193041516,0,0,0.049859708193041516,20.891217732884396,0)" xlink:href="#al"/><use transform="matrix(0.049859708193041516,0,0,0.049859708193041516,31.81049382716049,0)" xlink:href="#ac"/></g><path d="M121-226c-27-7-43 5-38 36h38v33H83V0H34v-157H6v-33h28c-9-59 32-81 87-68v32" id="ay"/><g id="z"><use transform="matrix(0.049859708193041516,0,0,0.049859708193041516,0,0)" xlink:href="#ay"/><use transform="matrix(0.049859708193041516,0,0,0.049859708193041516,5.93330527497194,0)" xlink:href="#aj"/><use transform="matrix(0.049859708193041516,0,0,0.049859708193041516,16.852581369248032,0)" xlink:href="#ak"/></g><g id="A"><use transform="matrix(0.049859708193041516,0,0,0.049859708193041516,0,0)" xlink:href="#ah"/><use transform="matrix(0.049859708193041516,0,0,0.049859708193041516,9.971941638608303,0)" xlink:href="#ai"/><use transform="matrix(0.049859708193041516,0,0,0.049859708193041516,19.943883277216607,0)" xlink:href="#ai"/><use transform="matrix(0.049859708193041516,0,0,0.049859708193041516,29.91582491582491,0)" xlink:href="#ac"/><use transform="matrix(0.049859708193041516,0,0,0.049859708193041516,39.88776655443321,0)" xlink:href="#af"/><use transform="matrix(0.049859708193041516,0,0,0.049859708193041516,49.85970819304151,0)" xlink:href="#af"/></g><path d="M147 0L96-86 75-71V0H25v-261h50v150l67-79h53l-66 74L201 0h-54" id="az"/><g id="B"><use transform="matrix(0.049859708193041516,0,0,0.049859708193041516,0,0)" xlink:href="#ag"/><use transform="matrix(0.049859708193041516,0,0,0.049859708193041516,5.93330527497194,0)" xlink:href="#aj"/><use transform="matrix(0.049859708193041516,0,0,0.049859708193041516,16.852581369248032,0)" xlink:href="#az"/><use transform="matrix(0.049859708193041516,0,0,0.049859708193041516,26.824523007856335,0)" xlink:href="#ac"/><use transform="matrix(0.049859708193041516,0,0,0.049859708193041516,36.79646464646464,0)" xlink:href="#ap"/></g><g id="C"><use transform="matrix(0.049859708193041516,0,0,0.049859708193041516,0,0)" xlink:href="#ar"/><use transform="matrix(0.049859708193041516,0,0,0.049859708193041516,12.913664421997753,0)" xlink:href="#ai"/><use transform="matrix(0.049859708193041516,0,0,0.049859708193041516,22.885606060606058,0)" xlink:href="#ai"/><use transform="matrix(0.049859708193041516,0,0,0.049859708193041516,32.857547699214365,0)" xlink:href="#ac"/><use transform="matrix(0.049859708193041516,0,0,0.049859708193041516,42.829489337822665,0)" xlink:href="#af"/><use transform="matrix(0.049859708193041516,0,0,0.049859708193041516,52.801430976430964,0)" xlink:href="#af"/></g><g id="D"><use transform="matrix(0.049859708193041516,0,0,0.049859708193041516,0,0)" xlink:href="#ag"/><use transform="matrix(0.049859708193041516,0,0,0.049859708193041516,5.93330527497194,0)" xlink:href="#aj"/><use transform="matrix(0.049859708193041516,0,0,0.049859708193041516,16.852581369248032,0)" xlink:href="#az"/><use transform="matrix(0.049859708193041516,0,0,0.049859708193041516,26.824523007856335,0)" xlink:href="#ac"/><use transform="matrix(0.049859708193041516,0,0,0.049859708193041516,36.79646464646464,0)" xlink:href="#ap"/></g><g id="E"><use transform="matrix(0.049859708193041516,0,0,0.049859708193041516,0,0)" xlink:href="#ak"/><use transform="matrix(0.049859708193041516,0,0,0.049859708193041516,6.980359147025812,0)" xlink:href="#ac"/><use transform="matrix(0.049859708193041516,0,0,0.049859708193041516,16.952300785634115,0)" xlink:href="#af"/><use transform="matrix(0.049859708193041516,0,0,0.049859708193041516,26.92424242424242,0)" xlink:href="#aj"/><use transform="matrix(0.049859708193041516,0,0,0.049859708193041516,37.84351851851851,0)" xlink:href="#ae"/><use transform="matrix(0.049859708193041516,0,0,0.049859708193041516,48.7627946127946,0)" xlink:href="#ak"/><use transform="matrix(0.049859708193041516,0,0,0.049859708193041516,55.743153759820416,0)" xlink:href="#ai"/><use transform="matrix(0.049859708193041516,0,0,0.049859708193041516,65.71509539842872,0)" xlink:href="#ac"/></g><g id="F"><use transform="matrix(0.049859708193041516,0,0,0.049859708193041516,0,0)" xlink:href="#ab"/><use transform="matrix(0.049859708193041516,0,0,0.049859708193041516,12.913664421997753,0)" xlink:href="#ac"/><use transform="matrix(0.049859708193041516,0,0,0.049859708193041516,22.885606060606058,0)" xlink:href="#af"/><use transform="matrix(0.049859708193041516,0,0,0.049859708193041516,32.857547699214365,0)" xlink:href="#aj"/><use transform="matrix(0.049859708193041516,0,0,0.049859708193041516,43.77682379349046,0)" xlink:href="#ae"/><use transform="matrix(0.049859708193041516,0,0,0.049859708193041516,54.69609988776656,0)" xlink:href="#ak"/><use transform="matrix(0.049859708193041516,0,0,0.049859708193041516,61.67645903479236,0)" xlink:href="#ai"/><use transform="matrix(0.049859708193041516,0,0,0.049859708193041516,71.64840067340066,0)" xlink:href="#ac"/></g><g id="G"><use transform="matrix(0.049859708193041516,0,0,0.049859708193041516,0,0)" xlink:href="#al"/><use transform="matrix(0.049859708193041516,0,0,0.049859708193041516,10.919276094276093,0)" xlink:href="#ah"/><use transform="matrix(0.049859708193041516,0,0,0.049859708193041516,20.891217732884396,0)" xlink:href="#ag"/><use transform="matrix(0.049859708193041516,0,0,0.049859708193041516,26.824523007856335,0)" xlink:href="#ah"/></g><path d="M24-248c120-7 223 5 221 122C244-46 201 0 124 0H24v-248zM76-40c74 7 117-18 117-86 0-67-45-88-117-82v168" id="aA"/><path d="M135-194c53 0 70 44 70 98 0 56-19 98-73 100-31 1-45-17-59-34 3 33 2 69 2 105H25l-1-265h48c2 10 0 23 3 31 11-24 29-35 60-35zM114-30c33 0 39-31 40-66 0-38-9-64-40-64-56 0-55 130 0 130" id="aB"/><path d="M123 10C108 53 80 86 19 72V37c35 8 53-11 59-39L3-190h52l48 148c12-52 28-100 44-148h51" id="aC"/><g id="H"><use transform="matrix(0.049859708193041516,0,0,0.049859708193041516,0,0)" xlink:href="#aA"/><use transform="matrix(0.049859708193041516,0,0,0.049859708193041516,12.913664421997753,0)" xlink:href="#am"/><use transform="matrix(0.049859708193041516,0,0,0.049859708193041516,17.899635241301905,0)" xlink:href="#af"/><use transform="matrix(0.049859708193041516,0,0,0.049859708193041516,27.871576879910208,0)" xlink:href="#aB"/><use transform="matrix(0.049859708193041516,0,0,0.049859708193041516,38.7908529741863,0)" xlink:href="#at"/><use transform="matrix(0.049859708193041516,0,0,0.049859708193041516,43.77682379349045,0)" xlink:href="#ah"/><use transform="matrix(0.049859708193041516,0,0,0.049859708193041516,53.74876543209876,0)" xlink:href="#aC"/></g><g id="I"><use transform="matrix(0.049859708193041516,0,0,0.049859708193041516,0,0)" xlink:href="#al"/><use transform="matrix(0.049859708193041516,0,0,0.049859708193041516,10.919276094276093,0)" xlink:href="#ah"/><use transform="matrix(0.049859708193041516,0,0,0.049859708193041516,20.891217732884396,0)" xlink:href="#ag"/><use transform="matrix(0.049859708193041516,0,0,0.049859708193041516,26.824523007856335,0)" xlink:href="#ah"/></g></defs></g></svg>