<svg xmlns="http://www.w3.org/2000/svg" xmlns:xlink="http://www.w3.org/1999/xlink" xmlns:lucid="lucid" width="1510.33" height="1881"><g transform="translate(-2418 -319.5)" lucid:page-tab-id=".Q4MUjXso07N"><path d="M2000 0h2000v2500H2000z" fill="#fff"/><path d="M2692.8 348a8 8 0 0 1 8-8H3732a8 8 0 0 1 8 8v1824a8 8 0 0 1-8 8H2700.8a8 8 0 0 1-8-8z" stroke="#333" fill-opacity="0"/><use xlink:href="#a" transform="matrix(1,0,0,1,2700.7949698538346,348) translate(481.8033950617284 17.955555555555552)"/><path d="M2539.75 679.75c0 10.9-8.84 19.75-19.75 19.75-10.9 0-19.75-8.84-19.75-19.75 0-10.9 8.84-19.75 19.75-19.75 10.9 0 19.75 8.84 19.75 19.75z" stroke="#333" fill="#fff"/><path d="M2520 699.5v47.3a27.6 27.6 0 0 0 4.28 14.76L2560 818m-40-63.2l-40 63.2m0-98.75h80" stroke="#333" fill="none"/><path d="M2480 668a8 8 0 0 1 8-8h64a8 8 0 0 1 8 8v164a8 8 0 0 1-8 8h-64a8 8 0 0 1-8-8z" fill="none"/><use xlink:href="#b" transform="matrix(1,0,0,1,2400,818) translate(89.51296296296297 17.955555555555552)"/><path d="M3879.75 449.75c0 10.9-8.84 19.75-19.75 19.75-10.9 0-19.75-8.84-19.75-19.75 0-10.9 8.84-19.75 19.75-19.75 10.9 0 19.75 8.84 19.75 19.75z" stroke="#333" fill="#fff"/><path d="M3860 469.5v47.3a27.6 27.6 0 0 0 4.28 14.76L3900 588m-40-63.2l-40 63.2m0-98.75h80" stroke="#333" fill="none"/><path d="M3820 438a8 8 0 0 1 8-8h64a8 8 0 0 1 8 8v164a8 8 0 0 1-8 8h-64a8 8 0 0 1-8-8z" fill="none"/><use xlink:href="#c" transform="matrix(1,0,0,1,3740,588) translate(88.26604938271606 17.955555555555552)"/><path d="M3879.75 709.75c0 10.9-8.84 19.75-19.75 19.75-10.9 0-19.75-8.84-19.75-19.75 0-10.9 8.84-19.75 19.75-19.75 10.9 0 19.75 8.84 19.75 19.75z" stroke="#333" fill="#fff"/><path d="M3860 729.5v47.3a27.6 27.6 0 0 0 4.28 14.76L3900 848m-40-63.2l-40 63.2m0-98.75h80" stroke="#333" fill="none"/><path d="M3820 698a8 8 0 0 1 8-8h64a8 8 0 0 1 8 8v164a8 8 0 0 1-8 8h-64a8 8 0 0 1-8-8z" fill="none"/><use xlink:href="#d" transform="matrix(1,0,0,1,3740,848) translate(73.33425925925927 17.955555555555552)"/><path d="M3879.75 1360.82c0 10.9-8.84 19.75-19.75 19.75-10.9 0-19.75-8.84-19.75-19.75 0-10.9 8.84-19.75 19.75-19.75 10.9 0 19.75 8.84 19.75 19.75z" stroke="#333" fill="#fff"/><path d="M3860 1380.57v47.3a27.6 27.6 0 0 0 4.28 14.76l35.72 56.44m-40-63.2l-40 63.2m0-98.75h80" stroke="#333" fill="none"/><path d="M3820 1349.07a8 8 0 0 1 8-8h64a8 8 0 0 1 8 8v164a8 8 0 0 1-8 8h-64a8 8 0 0 1-8-8z" fill="none"/><use xlink:href="#a" transform="matrix(1,0,0,1,3740,1499.068375098853) translate(85.8033950617284 17.955555555555552)"/><path d="M2920 520c0 33.14-35.82 60-80 60s-80-26.86-80-60 35.82-60 80-60 80 26.86 80 60z" stroke="#333" fill="#fff"/><use xlink:href="#e" transform="matrix(1,0,0,1,2784,484) translate(36.724999999999994 28.799999999999997)"/><use xlink:href="#f" transform="matrix(1,0,0,1,2784,484) translate(15.049999999999997 50.4)"/><path d="M3060.5 995c0 33.14-35.82 60-80 60s-80-26.86-80-60 35.82-60 80-60 80 26.86 80 60z" stroke="#333" fill="#fff"/><use xlink:href="#g" transform="matrix(1,0,0,1,2924.500004289968,959) translate(34.025 39.6)"/><path d="M3210.5 780c0 33.14-35.82 60-80 60s-80-26.86-80-60 35.82-60 80-60 80 26.86 80 60z" stroke="#333" fill="#fff"/><use xlink:href="#h" transform="matrix(1,0,0,1,3074.500004289968,744) translate(24.225 18)"/><use xlink:href="#i" transform="matrix(1,0,0,1,3074.500004289968,744) translate(15.574999999999996 39.6)"/><use xlink:href="#j" transform="matrix(1,0,0,1,3074.500004289968,744) translate(64.525 39.6)"/><use xlink:href="#k" transform="matrix(1,0,0,1,3074.500004289968,744) translate(30.5 61.2)"/><path d="M2900.5 780c0 33.14-35.82 60-80 60s-80-26.86-80-60 35.82-60 80-60 80 26.86 80 60z" stroke="#333" fill="#fff"/><use xlink:href="#l" transform="matrix(1,0,0,1,2764.500004289968,744) translate(4.1499999999999915 39.6)"/><use xlink:href="#m" transform="matrix(1,0,0,1,2764.500004289968,744) translate(68 39.6)"/><path d="M2521 738.93h109.02a12 12 0 0 0 12-12v-176a12 12 0 0 1 12-12h109.02M2521 738.93h-3.5" stroke="#333" fill="none"/><path d="M2763.75 539.4h-.72v-.94h.3z" stroke="#333" stroke-width=".05" fill="#333"/><path d="M2619.75 984.75c0 10.9-8.84 19.75-19.75 19.75-10.9 0-19.75-8.84-19.75-19.75 0-10.9 8.84-19.75 19.75-19.75 10.9 0 19.75 8.84 19.75 19.75z" stroke="#333" fill="#fff"/><path d="M2600 1004.5v47.3a27.6 27.6 0 0 0 4.28 14.76L2640 1123m-40-63.2l-40 63.2m0-98.75h80" stroke="#333" fill="none"/><path d="M2560 973a8 8 0 0 1 8-8h64a8 8 0 0 1 8 8v164a8 8 0 0 1-8 8h-64a8 8 0 0 1-8-8z" fill="none"/><use xlink:href="#n" transform="matrix(1,0,0,1,2480,1123) translate(96.370987654321 17.955555555555552)"/><path d="M2599 1043.93h-167a12 12 0 0 1-12-12V762a12 12 0 0 1 12-12h76.05M2599 1043.93h3.5" stroke="#333" fill="none"/><path d="M2518.7 750l-12.9 7.64v-15.28z" stroke="#333" fill="#fff"/><path d="M2601 1043.93h137.25a12 12 0 0 0 12-12V1007a12 12 0 0 1 12-12h137.25M2601 1043.93h-3.5" stroke="#333" fill="none"/><path d="M2900 995V995.47h-.5v-.96h.5zM2980.97 934h-.94v-5.75h.94zm0-11.5h-.94V911h.94zm1.57-28.74l-.3.5-.7 1.68-.42 1.76-.14 1.82v5.73h-.95v-5.77l.15-1.93.45-1.9.75-1.8.35-.58zm11.3-5.78h-1.32l-1.82.14-1.76.42-1.67.7-.5.3-.5-.8.57-.36 1.8-.75 1.9-.45 1.94-.15h1.36zm130.9-1.7l-.58.34-1.8.75-1.9.45-1.94.15h-1.36v-.95h1.32l1.82-.14 1.76-.42 1.67-.7.5-.3zm6.24-10.76l-.16 1.93-.45 1.9-.75 1.8-.35.58-.8-.5.3-.5.7-1.67.4-1.76.16-1.82v-6.2h.94zm0-12.43h-.95v-6.22h.94z" stroke="#333" stroke-width=".05" fill="#333"/><path d="M2980.97 934.5H2980.05v-.5h.94z" fill="#333"/><path stroke="#333" stroke-width=".05" fill="#333"/><path d="M3135.14 856.38h-9.28l4.64-14.26z" fill="#333"/><path d="M3135.8 856.86h-10.6l5.3-16.28zm-9.28-.95h7.96l-3.98-12.25z" stroke="#333" stroke-width=".05" fill="#333"/><use xlink:href="#o" transform="matrix(1,0,0,1,2993.840127746758,874.0333333333333) translate(0.005000000000002558 17.955555555555552)"/><path d="M2980.97 918.12h-.94v-6.2h.94zm-1.35-24.28l.75 1.8.45 1.9.15 1.94v6.23h-.94v-6.18l-.15-1.82-.42-1.76-.7-1.67-.3-.5.8-.5zm-9.17-6.66l1.9.45 1.8.75.58.35-.5.8-.5-.3-1.67-.7-1.76-.4-1.82-.15h-5.02V887h5.06zm-143.18-1.4l1.67.68 1.76.42 1.82.14h5.02v.96h-5.06l-1.93-.16-1.9-.45-1.8-.75-.58-.35.5-.8zm-6.3-10.3l.15 1.82.42 1.76.7 1.67.3.5-.8.5-.36-.57-.75-1.8-.45-1.9-.15-1.94v-5.77h.94zm0-11.48h-.94v-11.5h.94zm0-17.25h-.94V841h.94z" stroke="#333" stroke-width=".05" fill="#333"/><path d="M2820.5 840.5h.47v.5h-.94v-.5z" fill="#333"/><path stroke="#333" stroke-width=".05" fill="#333"/><path d="M2980.5 932.88l-4.64-14.26h9.28z" fill="#333"/><path d="M2980.5 934.42l-5.3-16.28h10.6zm-3.98-15.33l3.98 12.25 3.98-12.26z" stroke="#333" stroke-width=".05" fill="#333"/><use xlink:href="#p" transform="matrix(1,0,0,1,2840.648152438116,874.0333333333333) translate(0.005000000000002558 17.955555555555552)"/><path d="M3060.5 1188.93c0 33.14-35.82 60-80 60s-80-26.86-80-60c0-33.13 35.82-60 80-60s80 26.87 80 60z" stroke="#333" fill="#fff"/><use xlink:href="#q" transform="matrix(1,0,0,1,2924.500004289968,1152.931624895064) translate(18.025 28.799999999999997)"/><use xlink:href="#r" transform="matrix(1,0,0,1,2924.500004289968,1152.931624895064) translate(31 50.4)"/><path d="M2601 1043.93h137.25a12 12 0 0 1 12 12v121a12 12 0 0 0 12 12h137.25M2601 1043.93h-3.5" stroke="#333" fill="none"/><path d="M2900 1188.92v.5h-.5v-.96h.5z" stroke="#333" stroke-width=".05" fill="#333"/><path d="M3640 1240c0 33.14-35.82 60-80 60s-80-26.86-80-60 35.82-60 80-60 80 26.86 80 60z" stroke="#333" fill="#fff"/><use xlink:href="#s" transform="matrix(1,0,0,1,3504,1204) translate(23.525 28.799999999999997)"/><use xlink:href="#t" transform="matrix(1,0,0,1,3504,1204) translate(19.025 50.4)"/><path d="M3500 1779.5c0 33.14-35.82 60-80 60s-80-26.86-80-60 35.82-60 80-60 80 26.86 80 60z" stroke="#333" fill="#fff"/><use xlink:href="#u" transform="matrix(1,0,0,1,3364,1743.4999957230298) translate(20.025 39.6)"/><use xlink:href="#v" transform="matrix(1,0,0,1,3364,1743.4999957230298) translate(57.025 39.6)"/><path d="M3500 1959.5c0 33.14-35.82 60-80 60s-80-26.86-80-60 35.82-60 80-60 80 26.86 80 60z" stroke="#333" fill="#fff"/><use xlink:href="#w" transform="matrix(1,0,0,1,3364,1923.4999957230298) translate(2.5749999999999957 39.6)"/><use xlink:href="#v" transform="matrix(1,0,0,1,3364,1923.4999957230298) translate(74.475 39.6)"/><path d="M3500 1619.5c0 33.14-35.82 60-80 60s-80-26.86-80-60 35.82-60 80-60 80 26.86 80 60z" stroke="#333" fill="#fff"/><use xlink:href="#x" transform="matrix(1,0,0,1,3364,1583.4999957230298) translate(15.599999999999994 28.799999999999997)"/><use xlink:href="#y" transform="matrix(1,0,0,1,3364,1583.4999957230298) translate(51.55 28.799999999999997)"/><use xlink:href="#z" transform="matrix(1,0,0,1,3364,1583.4999957230298) translate(28.574999999999996 50.4)"/><path d="M3500 1459.5c0 33.14-35.82 60-80 60s-80-26.86-80-60 35.82-60 80-60 80 26.86 80 60z" stroke="#333" fill="#fff"/><use xlink:href="#x" transform="matrix(1,0,0,1,3364,1423.4999957230298) translate(15.599999999999994 28.799999999999997)"/><use xlink:href="#A" transform="matrix(1,0,0,1,3364,1423.4999957230298) translate(51.55 28.799999999999997)"/><use xlink:href="#z" transform="matrix(1,0,0,1,3364,1423.4999957230298) translate(28.574999999999996 50.4)"/><path d="M3260 1240c0 33.14-35.82 60-80 60s-80-26.86-80-60 35.82-60 80-60 80 26.86 80 60z" stroke="#333" fill="#fff"/><use xlink:href="#B" transform="matrix(1,0,0,1,3124,1204) translate(26.574999999999996 18)"/><use xlink:href="#C" transform="matrix(1,0,0,1,3124,1204) translate(-0.9500000000000028 39.6)"/><use xlink:href="#m" transform="matrix(1,0,0,1,3124,1204) translate(36.075 61.2)"/><path d="M3340 1080c0 33.14-35.82 60-80 60s-80-26.86-80-60 35.82-60 80-60 80 26.86 80 60z" stroke="#333" fill="#fff"/><use xlink:href="#D" transform="matrix(1,0,0,1,3204,1044) translate(30.525 28.799999999999997)"/><use xlink:href="#E" transform="matrix(1,0,0,1,3204,1044) translate(7.100000000000001 50.4)"/><path d="M3560.47 1179h-.94v-4.83h.94zm0-9.67h-.94v-9.66h.94zm0-14.5h-.94v-9.66h.94zm0-14.5h-.94v-9.66h.94zm0-14.5h-.94v-9.66h.94zm0-14.5h-.94v-9.66h.94zm-1.35-25l.75 1.82.45 1.9.15 1.93v4.85h-.94v-4.8l-.15-1.83-.42-1.76-.7-1.67-.3-.5.8-.5zm-9.17-6.65l1.9.45 1.8.75.58.35-.5.8-.5-.3-1.67-.7-1.76-.4-1.82-.16h-4.88v-.94h4.92zm-136.24.8h-2.9v-.95h2.9zm-7.8 0h-9.8v-.95h9.8zm-14.7 0h-9.8v-.95h9.8zm-14.7 0h-9.82v-.95h9.8zm-14.72 0h-4.9v-.95h4.9zm176.42 0h-1.17v-.95h1.17z" stroke="#333" stroke-width=".05" fill="#333"/><path d="M3560.47 1179.52l-.46-.02h-.47v-.5h.94z" fill="#333"/><path stroke="#333" stroke-width=".05" fill="#333"/><path d="M3356.38 1084.63l-14.26-4.63 14.26-4.63z" fill="#333"/><path d="M3356.86 1085.3l-16.28-5.3 16.28-5.3zm-13.2-5.3l12.25 3.98v-7.96z" stroke="#333" stroke-width=".05" fill="#333"/><use xlink:href="#o" transform="matrix(1,0,0,1,3413.7099646221027,1066.5333333333333) translate(0.005000000000002558 17.955555555555552)"/><path d="M3266.18 1240.47H3261v-.94h5.18zm15.55 0h-10.37v-.94h10.37zm15.55 0h-10.37v-.94h10.38zm12.87 0h-7.7v-.94h7.7zm142.6 0h-10.36v-.94h10.35zm10.37 0h-5.2v-.94h5.2zm-25.92 0h-7.35v-.94h7.35z" stroke="#333" stroke-width=".05" fill="#333"/><path d="M3261 1240.47h-.5V1239.62l.5-.07z" fill="#333"/><path stroke="#333" stroke-width=".05" fill="#333"/><path d="M3477.88 1240l-14.26 4.63v-9.27z" fill="#333"/><path d="M3479.42 1240l-16.28 5.3v-10.6zm-15.33 3.98l12.24-3.98-12.25-3.98z" stroke="#333" stroke-width=".05" fill="#333"/><use xlink:href="#p" transform="matrix(1,0,0,1,3310.1481481481483,1226.5333333333333) translate(0.005000000000002558 17.955555555555552)"/><path d="M3306.27 1457.77l1.67.7 1.76.4 1.82.16h3.85v.94h-3.9l-1.92-.15-1.9-.45-1.8-.75-.58-.35.5-.8zm16.85 2.2h-3.88v-.94h3.88zm-23.14-12.5l.14 1.83.42 1.76.7 1.67.3.5-.8.5-.36-.57-.75-1.8-.45-1.9-.15-1.94v-5.3h.94zm0-10.53h-.95v-10.55h.94zm0-15.83h-.95v-10.54h.94zm0-15.82h-.95v-10.56h.94zm0-15.84h-.95v-10.55h.94zm0-15.83h-.95v-10.54h.94zm1.56-26.83l-.3.5-.7 1.67-.42 1.76-.14 1.82v5.26h-.95v-5.3l.15-1.93.45-1.9.75-1.8.35-.58zm14.9-5.8h-4.92l-1.82.15-1.76.42-1.67.7-.5.3-.5-.8.57-.36 1.8-.75 1.9-.45 1.94-.15h4.95zm237.8-1.7l-.58.35-1.8.75-1.9.45-1.94.15h-4.95v-.94h4.9l1.83-.15 1.76-.42 1.67-.7.5-.3zm-16.1 1.7h-9.85v-.94h9.85zm-14.78 0h-9.85v-.94h9.86zm-14.78 0h-9.85v-.94h9.85zm-14.78 0h-9.85v-.94h9.85zm-14.78 0h-9.85v-.94h9.85zm-138.4 0h-4.48v-.94h4.5zm-9.4 0h-9.87v-.94h9.86zm133.02 0h-.3v-.94h.3zm96.24-12.45l-.16 1.93-.45 1.9-.75 1.8-.35.58-.8-.5.3-.5.7-1.67.4-1.76.16-1.82v-4.56h.94zm0-9.2h-.95v-9.15h.94zm0-13.74h-.95V1301h.94z" stroke="#333" stroke-width=".05" fill="#333"/><path d="M3560 1300.5h.47v.5h-.94v-.52z" fill="#333"/><path stroke="#333" stroke-width=".05" fill="#333"/><path d="M3337.88 1459.5l-14.26 4.63v-9.27z" fill="#333"/><path d="M3339.42 1459.5l-16.28 5.3v-10.6zm-15.33 3.98l12.24-3.98-12.25-3.98zM3306.27 1617.77l1.67.7 1.76.4 1.82.16h3.85v.94h-3.9l-1.92-.15-1.9-.45-1.8-.75-.58-.35.5-.8zm16.85 2.2h-3.88v-.94h3.88zm-23.14-12.5l.14 1.83.42 1.76.7 1.67.3.5-.8.5-.36-.57-.75-1.8-.45-1.9-.15-1.94v-5.02h.94zm0-9.97h-.95v-10h.94zm0-15h-.95v-10h.94zm0-15h-.95v-10h.94zm0-15h-.95v-10h.94zm0-15h-.95v-10h.94zm0-15h-.95v-10h.94zm0-15h-.95v-10h.94zm0-15h-.95v-10h.94zm0-15h-.95v-10h.94zm0-15h-.95v-10h.94zm0-15h-.95v-10h.94zm0-15h-.95v-10h.94zm0-15h-.95v-10h.94zm0-15h-.95v-10h.94zm0-15h-.95v-10h.94zm0-15h-.95v-10h.94zm1.56-25.73l-.3.5-.7 1.67-.42 1.76-.14 1.82v4.98h-.95v-5.02l.15-1.93.45-1.9.75-1.8.35-.58zm14.9-5.8h-4.92l-1.82.15-1.76.42-1.67.7-.5.3-.5-.8.57-.36 1.8-.75 1.9-.45 1.94-.15h4.95zm237.8-1.7l-.58.35-1.8.75-1.9.45-1.94.15h-4.95v-.94h4.9l1.83-.15 1.76-.42 1.67-.7.5-.3zm-16.1 1.7h-9.85v-.94h9.85zm-14.78 0h-9.85v-.94h9.86zm-14.78 0h-9.85v-.94h9.85zm-14.78 0h-9.85v-.94h9.85zm-14.78 0h-9.85v-.94h9.85zm-138.4 0h-4.48v-.94h4.5zm-9.4 0h-9.87v-.94h9.86zm133.02 0h-.3v-.94h.3zm96.24-12.45l-.16 1.93-.45 1.9-.75 1.8-.35.58-.8-.5.3-.5.7-1.67.4-1.76.16-1.82v-4.56h.94zm0-9.2h-.95v-9.15h.94zm0-13.74h-.95V1301h.94z" stroke="#333" stroke-width=".05" fill="#333"/><path d="M3560 1300.5h.47v.5h-.94v-.52z" fill="#333"/><path stroke="#333" stroke-width=".05" fill="#333"/><path d="M3337.88 1619.5l-14.26 4.63v-9.27z" fill="#333"/><path d="M3339.42 1619.5l-16.28 5.3v-10.6zm-15.33 3.98l12.24-3.98-12.25-3.98zM3306.27 1777.77l1.67.7 1.76.4 1.82.16h3.85v.94h-3.9l-1.92-.15-1.9-.45-1.8-.75-.58-.35.5-.8zm16.85 2.2h-3.88v-.94h3.88zm-23.14-12.5l.14 1.83.42 1.76.7 1.67.3.5-.8.5-.36-.57-.75-1.8-.45-1.9-.15-1.94v-4.96h.94zm0-9.85h-.95v-9.88h.94zm0-14.82h-.95v-9.88h.94zm0-14.82h-.95v-9.88h.94zm0-14.83h-.95v-9.88h.94zm0-14.82h-.95v-9.88h.94zm0-14.82h-.95v-9.87h.94zm0-14.8h-.95v-9.9h.94zm0-14.83h-.95V1644h.94zm0-14.82h-.95v-9.88h.94zm0-14.82h-.95v-9.88h.94zm0-14.83h-.95v-9.88h.94zm0-14.82h-.95v-9.88h.94zm0-14.82h-.95v-9.88h.94zm0-14.82h-.95v-9.88h.94zm0-14.82h-.95v-9.88h.94zm0-14.82h-.95v-9.88h.94zm0-14.82h-.95v-9.88h.94zm0-14.83h-.95v-9.88h.94zm0-14.82h-.95v-9.88h.94zm0-14.82h-.95v-9.87h.94zm0-14.8h-.95v-9.9h.94zm0-14.83h-.95v-9.88h.94zm0-14.82h-.95v-9.88h.94zm0-14.82h-.95v-9.88h.94zm0-14.83h-.95v-9.88h.94zm0-14.82h-.95v-9.88h.94zm0-14.82h-.95v-9.88h.94zm1.56-25.5l-.3.5-.7 1.68-.42 1.76-.14 1.82v4.92h-.95v-4.96l.15-1.93.45-1.9.75-1.8.35-.58zm14.9-5.8h-4.92l-1.82.16-1.76.42-1.67.7-.5.3-.5-.8.57-.36 1.8-.75 1.9-.45 1.94-.15h4.95zm237.8-1.7l-.58.36-1.8.75-1.9.45-1.94.15h-4.95v-.94h4.9l1.83-.15 1.76-.42 1.67-.7.5-.3zm-16.1 1.7h-9.85v-.93h9.85zm-14.78 0h-9.85v-.93h9.86zm-14.78 0h-9.85v-.93h9.85zm-14.78 0h-9.85v-.93h9.85zm-14.78 0h-9.85v-.93h9.85zm-138.4 0h-4.48v-.93h4.5zm-9.4 0h-9.87v-.93h9.86zm133.02 0h-.3v-.93h.3zm96.24-12.44l-.16 1.93-.45 1.9-.75 1.8-.35.58-.8-.5.3-.5.7-1.67.4-1.76.16-1.82v-4.56h.94zm0-9.2h-.95v-9.15h.94zm0-13.74h-.95V1301h.94z" stroke="#333" stroke-width=".05" fill="#333"/><path d="M3560 1300.5h.47v.5h-.94v-.52z" fill="#333"/><path stroke="#333" stroke-width=".05" fill="#333"/><path d="M3337.88 1779.5l-14.26 4.63v-9.27z" fill="#333"/><path d="M3339.42 1779.5l-16.28 5.3v-10.6zm-15.33 3.98l12.24-3.98-12.25-3.98zM3306.27 1957.77l1.67.7 1.76.4 1.82.16h3.85v.94h-3.9l-1.92-.15-1.9-.45-1.8-.75-.58-.35.5-.8zm16.85 2.2h-3.88v-.94h3.88zm-23.14-12.5l.14 1.83.42 1.76.7 1.67.3.5-.8.5-.36-.57-.75-1.8-.45-1.9-.15-1.94v-4.98h.94zm0-9.9h-.95v-9.9h.94zm0-14.86h-.95v-9.9h.94zm0-14.87h-.95v-9.9h.94zm0-14.87h-.95v-9.92h.94zm0-14.88h-.95v-9.9h.94zm0-14.87h-.95v-9.9h.94zm0-14.87h-.95v-9.9h.94zm0-14.87h-.95v-9.92h.94zm0-14.88h-.95v-9.9h.94zm0-14.87h-.95v-9.9h.94zm0-14.87h-.95v-9.9h.94zm0-14.87h-.95v-9.92h.94zm0-14.88h-.95v-9.9h.94zm0-14.87h-.95v-9.9h.94zm0-14.87h-.95v-9.9h.94zm0-14.87h-.95v-9.92h.94zm0-14.88h-.95v-9.9h.94zm0-14.87h-.95v-9.9h.94zm0-14.87h-.95v-9.9h.94zm0-14.87h-.95v-9.92h.94zm0-14.88h-.95v-9.9h.94zm0-14.87h-.95v-9.9h.94zm0-14.87h-.95v-9.9h.94zm0-14.87h-.95v-9.92h.94zm0-14.88h-.95v-9.9h.94zm0-14.87h-.95v-9.9h.94zm0-14.87h-.95v-9.9h.94zm0-14.87h-.95v-9.92h.94zm0-14.88h-.95v-9.9h.94zm0-14.87h-.95v-9.9h.94zm0-14.87h-.95v-9.9h.94zm0-14.87h-.95v-9.92h.94zm0-14.88h-.95v-9.9h.94zm0-14.87h-.95v-9.9h.94zm0-14.87h-.95v-9.9h.94zm0-14.87h-.95v-9.92h.94zm0-14.88h-.95v-9.9h.94zm0-14.87h-.95v-9.9h.94zm0-14.87h-.95v-9.9h.94zm1.56-25.56l-.3.5-.7 1.67-.42 1.76-.14 1.82v4.94h-.95v-4.98l.15-1.93.45-1.9.75-1.8.35-.58zm14.9-5.8h-4.92l-1.82.15-1.76.42-1.67.7-.5.3-.5-.8.57-.36 1.8-.75 1.9-.45 1.94-.15h4.95zm237.8-1.7l-.58.35-1.8.75-1.9.45-1.94.15h-4.95v-.94h4.9l1.83-.15 1.76-.42 1.67-.7.5-.3zm-16.1 1.7h-9.85v-.94h9.85zm-14.78 0h-9.85v-.94h9.86zm-14.78 0h-9.85v-.94h9.85zm-14.78 0h-9.85v-.94h9.85zm-14.78 0h-9.85v-.94h9.85zm-138.4 0h-4.48v-.94h4.5zm-9.4 0h-9.87v-.94h9.86zm133.02 0h-.3v-.94h.3zm96.24-12.45l-.16 1.93-.45 1.9-.75 1.8-.35.58-.8-.5.3-.5.7-1.67.4-1.76.16-1.82v-4.56h.94zm0-9.2h-.95v-9.15h.94zm0-13.74h-.95V1301h.94z" stroke="#333" stroke-width=".05" fill="#333"/><path d="M3560 1300.5h.47v.5h-.94v-.52z" fill="#333"/><path stroke="#333" stroke-width=".05" fill="#333"/><path d="M3337.88 1959.5l-14.26 4.63v-9.27z" fill="#333"/><path d="M3339.42 1959.5l-16.28 5.3v-10.6zm-15.33 3.98l12.24-3.98-12.25-3.98z" stroke="#333" stroke-width=".05" fill="#333"/><use xlink:href="#o" transform="matrix(1,0,0,1,3340.628408579081,1327.0333376103035) translate(0.005000000000002558 17.955555555555552)"/><path d="M3859 508.93h-939.36M3859 508.93h3.5" stroke="#333" fill="none"/><path d="M2919.65 509.4h-.4l-.22-.94h.62z" stroke="#333" stroke-width=".05" fill="#333"/><path d="M3859 768.93h-372.1a12 12 0 0 1-12-12v-247.5M3859 768.93h3.5M3474.9 509.44v-.5M3859 768.93h-147a12 12 0 0 0-12 12V1228a12 12 0 0 1-12 12h-47M3859 768.93h3.5" stroke="#333" fill="none"/><path d="M3641 1240.47h-.5V1239.54h.5z" stroke="#333" stroke-width=".05" fill="#333"/><path d="M3859 508.93h-147a12 12 0 0 0-12 12v243c-2.76 0-5 2.24-5 5s2.24 5 5 5V1228a12 12 0 0 1-12 12h-47M3859 508.93h3.5" stroke="#333" fill="none"/><path d="M3641 1240.47h-.5V1239.54h.5z" stroke="#333" stroke-width=".05" fill="#333"/><path d="M3720 1420c0 33.14-35.82 60-80 60s-80-26.86-80-60 35.82-60 80-60 80 26.86 80 60z" stroke="#333" fill="#fff"/><g><use xlink:href="#F" transform="matrix(1,0,0,1,3584,1384) translate(12.524999999999999 14.4)"/><use xlink:href="#G" transform="matrix(1,0,0,1,3584,1384) translate(84.475 14.4)"/><use xlink:href="#H" transform="matrix(1,0,0,1,3584,1384) translate(6.049999999999997 36)"/><use xlink:href="#G" transform="matrix(1,0,0,1,3584,1384) translate(90.95 36)"/><use xlink:href="#I" transform="matrix(1,0,0,1,3584,1384) translate(36.025 57.6)"/><use xlink:href="#J" transform="matrix(1,0,0,1,3584,1384) translate(11.600000000000001 79.20000000000002)"/></g><path d="M3859 1420h-138M3859 1420h3.5" stroke="#333" fill="none"/><path d="M3721 1420.47h-.5V1419.54h.5z" stroke="#333" stroke-width=".05" fill="#333"/><defs><path d="M30 0v-248h33v221h125V0H30" id="K"/><path d="M24-231v-30h32v30H24zM24 0v-190h32V0H24" id="L"/><path d="M115-194c53 0 69 39 70 98 0 66-23 100-70 100C84 3 66-7 56-30L54 0H23l1-261h32v101c10-23 28-34 59-34zm-8 174c40 0 45-34 45-75 0-40-5-75-45-74-42 0-51 32-51 76 0 43 10 73 51 73" id="M"/><path d="M114-163C36-179 61-72 57 0H25l-1-190h30c1 12-1 29 2 39 6-27 23-49 58-41v29" id="N"/><path d="M141-36C126-15 110 5 73 4 37 3 15-17 15-53c-1-64 63-63 125-63 3-35-9-54-41-54-24 1-41 7-42 31l-33-3c5-37 33-52 76-52 45 0 72 20 72 64v82c-1 20 7 32 28 27v20c-31 9-61-2-59-35zM48-53c0 20 12 33 32 33 41-3 63-29 60-74-43 2-92-5-92 41" id="O"/><path d="M179-190L93 31C79 59 56 82 12 73V49c39 6 53-20 64-50L1-190h34L92-34l54-156h33" id="P"/><g id="a"><use transform="matrix(0.06234567901234567,0,0,0.06234567901234567,0,0)" xlink:href="#K"/><use transform="matrix(0.06234567901234567,0,0,0.06234567901234567,12.469135802469133,0)" xlink:href="#L"/><use transform="matrix(0.06234567901234567,0,0,0.06234567901234567,17.39444444444444,0)" xlink:href="#M"/><use transform="matrix(0.06234567901234567,0,0,0.06234567901234567,29.86358024691357,0)" xlink:href="#N"/><use transform="matrix(0.06234567901234567,0,0,0.06234567901234567,37.28271604938271,0)" xlink:href="#O"/><use transform="matrix(0.06234567901234567,0,0,0.06234567901234567,49.75185185185184,0)" xlink:href="#N"/><use transform="matrix(0.06234567901234567,0,0,0.06234567901234567,57.170987654320975,0)" xlink:href="#P"/></g><path d="M30-248c87 1 191-15 191 75 0 78-77 80-158 76V0H30v-248zm33 125c57 0 124 11 124-50 0-59-68-47-124-48v98" id="Q"/><path d="M84 4C-5 8 30-112 23-190h32v120c0 31 7 50 39 49 72-2 45-101 50-169h31l1 190h-30c-1-10 1-25-2-33-11 22-28 36-60 37" id="R"/><path d="M24 0v-261h32V0H24" id="S"/><path d="M96-169c-40 0-48 33-48 73s9 75 48 75c24 0 41-14 43-38l32 2c-6 37-31 61-74 61-59 0-76-41-82-99-10-93 101-131 147-64 4 7 5 14 7 22l-32 3c-4-21-16-35-41-35" id="T"/><g id="b"><use transform="matrix(0.06234567901234567,0,0,0.06234567901234567,0,0)" xlink:href="#Q"/><use transform="matrix(0.06234567901234567,0,0,0.06234567901234567,14.96296296296296,0)" xlink:href="#R"/><use transform="matrix(0.06234567901234567,0,0,0.06234567901234567,27.432098765432094,0)" xlink:href="#M"/><use transform="matrix(0.06234567901234567,0,0,0.06234567901234567,39.90123456790123,0)" xlink:href="#S"/><use transform="matrix(0.06234567901234567,0,0,0.06234567901234567,44.82654320987653,0)" xlink:href="#L"/><use transform="matrix(0.06234567901234567,0,0,0.06234567901234567,49.75185185185184,0)" xlink:href="#T"/></g><path d="M205 0l-28-72H64L36 0H1l101-248h38L239 0h-34zm-38-99l-47-123c-12 45-31 82-46 123h93" id="U"/><path d="M85-194c31 0 48 13 60 33l-1-100h32l1 261h-30c-2-10 0-23-3-31C134-8 116 4 85 4 32 4 16-35 15-94c0-66 23-100 70-100zm9 24c-40 0-46 34-46 75 0 40 6 74 45 74 42 0 51-32 51-76 0-42-9-74-50-73" id="V"/><path d="M210-169c-67 3-38 105-44 169h-31v-121c0-29-5-50-35-48C34-165 62-65 56 0H25l-1-190h30c1 10-1 24 2 32 10-44 99-50 107 0 11-21 27-35 58-36 85-2 47 119 55 194h-31v-121c0-29-5-49-35-48" id="W"/><path d="M117-194c89-4 53 116 60 194h-32v-121c0-31-8-49-39-48C34-167 62-67 57 0H25l-1-190h30c1 10-1 24 2 32 11-22 29-35 61-36" id="X"/><g id="c"><use transform="matrix(0.06234567901234567,0,0,0.06234567901234567,0,0)" xlink:href="#U"/><use transform="matrix(0.06234567901234567,0,0,0.06234567901234567,14.96296296296296,0)" xlink:href="#V"/><use transform="matrix(0.06234567901234567,0,0,0.06234567901234567,27.432098765432094,0)" xlink:href="#W"/><use transform="matrix(0.06234567901234567,0,0,0.06234567901234567,46.073456790123444,0)" xlink:href="#L"/><use transform="matrix(0.06234567901234567,0,0,0.06234567901234567,50.99876543209875,0)" xlink:href="#X"/></g><path d="M135-143c-3-34-86-38-87 0 15 53 115 12 119 90S17 21 10-45l28-5c4 36 97 45 98 0-10-56-113-15-118-90-4-57 82-63 122-42 12 7 21 19 24 35" id="Y"/><path d="M106-169C34-169 62-67 57 0H25v-261h32l-1 103c12-21 28-36 61-36 89 0 53 116 60 194h-32v-121c2-32-8-49-39-48" id="Z"/><path d="M100-194c63 0 86 42 84 106H49c0 40 14 67 53 68 26 1 43-12 49-29l28 8c-11 28-37 45-77 45C44 4 14-33 15-96c1-61 26-98 85-98zm52 81c6-60-76-77-97-28-3 7-6 17-6 28h103" id="aa"/><g id="d"><use transform="matrix(0.06234567901234567,0,0,0.06234567901234567,0,0)" xlink:href="#Q"/><use transform="matrix(0.06234567901234567,0,0,0.06234567901234567,14.96296296296296,0)" xlink:href="#R"/><use transform="matrix(0.06234567901234567,0,0,0.06234567901234567,27.432098765432094,0)" xlink:href="#M"/><use transform="matrix(0.06234567901234567,0,0,0.06234567901234567,39.90123456790123,0)" xlink:href="#S"/><use transform="matrix(0.06234567901234567,0,0,0.06234567901234567,44.82654320987653,0)" xlink:href="#L"/><use transform="matrix(0.06234567901234567,0,0,0.06234567901234567,49.75185185185184,0)" xlink:href="#Y"/><use transform="matrix(0.06234567901234567,0,0,0.06234567901234567,60.97407407407406,0)" xlink:href="#Z"/><use transform="matrix(0.06234567901234567,0,0,0.06234567901234567,73.4432098765432,0)" xlink:href="#aa"/><use transform="matrix(0.06234567901234567,0,0,0.06234567901234567,85.91234567901233,0)" xlink:href="#N"/></g><path d="M137 0h-34L2-248h35l83 218 83-218h36" id="ab"/><path d="M206 0h-36l-40-164L89 0H53L-1-190h32L70-26l43-164h34l41 164 42-164h31" id="ac"/><g id="e"><use transform="matrix(0.05,0,0,0.05,0,0)" xlink:href="#ab"/><use transform="matrix(0.05,0,0,0.05,11.65,0)" xlink:href="#L"/><use transform="matrix(0.05,0,0,0.05,15.600000000000001,0)" xlink:href="#aa"/><use transform="matrix(0.05,0,0,0.05,25.6,0)" xlink:href="#ac"/></g><path d="M212-179c-10-28-35-45-73-45-59 0-87 40-87 99 0 60 29 101 89 101 43 0 62-24 78-52l27 14C228-24 195 4 139 4 59 4 22-46 18-125c-6-104 99-153 187-111 19 9 31 26 39 46" id="ad"/><path d="M59-47c-2 24 18 29 38 22v24C64 9 27 4 27-40v-127H5v-23h24l9-43h21v43h35v23H59v120" id="ae"/><path d="M100-194c62-1 85 37 85 99 1 63-27 99-86 99S16-35 15-95c0-66 28-99 85-99zM99-20c44 1 53-31 53-75 0-43-8-75-51-75s-53 32-53 75 10 74 51 75" id="af"/><path d="M177-190C167-65 218 103 67 71c-23-6-38-20-44-43l32-5c15 47 100 32 89-28v-30C133-14 115 1 83 1 29 1 15-40 15-95c0-56 16-97 71-98 29-1 48 16 59 35 1-10 0-23 2-32h30zM94-22c36 0 50-32 50-73 0-42-14-75-50-75-39 0-46 34-46 75s6 73 46 73" id="ag"/><g id="f"><use transform="matrix(0.05,0,0,0.05,0,0)" xlink:href="#ad"/><use transform="matrix(0.05,0,0,0.05,12.950000000000001,0)" xlink:href="#O"/><use transform="matrix(0.05,0,0,0.05,22.950000000000003,0)" xlink:href="#ae"/><use transform="matrix(0.05,0,0,0.05,27.950000000000003,0)" xlink:href="#O"/><use transform="matrix(0.05,0,0,0.05,37.95,0)" xlink:href="#S"/><use transform="matrix(0.05,0,0,0.05,41.900000000000006,0)" xlink:href="#af"/><use transform="matrix(0.05,0,0,0.05,51.900000000000006,0)" xlink:href="#ag"/><use transform="matrix(0.05,0,0,0.05,61.900000000000006,0)" xlink:href="#R"/><use transform="matrix(0.05,0,0,0.05,71.9,0)" xlink:href="#aa"/></g><g id="g"><use transform="matrix(0.05,0,0,0.05,0,0)" xlink:href="#K"/><use transform="matrix(0.05,0,0,0.05,10,0)" xlink:href="#af"/><use transform="matrix(0.05,0,0,0.05,20,0)" xlink:href="#ag"/><use transform="matrix(0.05,0,0,0.05,30,0)" xlink:href="#L"/><use transform="matrix(0.05,0,0,0.05,33.95,0)" xlink:href="#X"/></g><g id="h"><use transform="matrix(0.05,0,0,0.05,0,0)" xlink:href="#ab"/><use transform="matrix(0.05,0,0,0.05,10.65,0)" xlink:href="#O"/><use transform="matrix(0.05,0,0,0.05,20.65,0)" xlink:href="#S"/><use transform="matrix(0.05,0,0,0.05,24.599999999999998,0)" xlink:href="#L"/><use transform="matrix(0.05,0,0,0.05,28.549999999999997,0)" xlink:href="#V"/><use transform="matrix(0.05,0,0,0.05,38.55,0)" xlink:href="#O"/><use transform="matrix(0.05,0,0,0.05,48.55,0)" xlink:href="#ae"/><use transform="matrix(0.05,0,0,0.05,53.54999999999999,0)" xlink:href="#aa"/></g><g id="i"><use transform="matrix(0.05,0,0,0.05,0,0)" xlink:href="#K"/><use transform="matrix(0.05,0,0,0.05,10,0)" xlink:href="#af"/><use transform="matrix(0.05,0,0,0.05,20,0)" xlink:href="#ag"/><use transform="matrix(0.05,0,0,0.05,30,0)" xlink:href="#L"/><use transform="matrix(0.05,0,0,0.05,33.95,0)" xlink:href="#X"/></g><g id="j"><use transform="matrix(0.05,0,0,0.05,0,0)" xlink:href="#ac"/><use transform="matrix(0.05,0,0,0.05,12.950000000000001,0)" xlink:href="#L"/><use transform="matrix(0.05,0,0,0.05,16.900000000000002,0)" xlink:href="#ae"/><use transform="matrix(0.05,0,0,0.05,21.900000000000002,0)" xlink:href="#Z"/></g><path d="M140-251c81 0 123 46 123 126C263-46 219 4 140 4 59 4 17-45 17-125s42-126 123-126zm0 227c63 0 89-41 89-101s-29-99-89-99c-61 0-89 39-89 99S79-25 140-24" id="ah"/><g id="k"><use transform="matrix(0.05,0,0,0.05,0,0)" xlink:href="#ah"/><use transform="matrix(0.05,0,0,0.05,14,0)" xlink:href="#U"/><use transform="matrix(0.05,0,0,0.05,26,0)" xlink:href="#R"/><use transform="matrix(0.05,0,0,0.05,36,0)" xlink:href="#ae"/><use transform="matrix(0.05,0,0,0.05,41,0)" xlink:href="#Z"/></g><path d="M30-248c118-7 216 8 213 122C240-48 200 0 122 0H30v-248zM63-27c89 8 146-16 146-99s-60-101-146-95v194" id="ai"/><path d="M115-194c55 1 70 41 70 98S169 2 115 4C84 4 66-9 55-30l1 105H24l-1-265h31l2 30c10-21 28-34 59-34zm-8 174c40 0 45-34 45-75s-6-73-45-74c-42 0-51 32-51 76 0 43 10 73 51 73" id="aj"/><g id="l"><use transform="matrix(0.05,0,0,0.05,0,0)" xlink:href="#ai"/><use transform="matrix(0.05,0,0,0.05,12.950000000000001,0)" xlink:href="#L"/><use transform="matrix(0.05,0,0,0.05,16.900000000000002,0)" xlink:href="#Y"/><use transform="matrix(0.05,0,0,0.05,25.900000000000002,0)" xlink:href="#aj"/><use transform="matrix(0.05,0,0,0.05,35.900000000000006,0)" xlink:href="#S"/><use transform="matrix(0.05,0,0,0.05,39.85000000000001,0)" xlink:href="#O"/><use transform="matrix(0.05,0,0,0.05,49.85000000000001,0)" xlink:href="#P"/></g><path d="M30 0v-248h187v28H63v79h144v27H63v87h162V0H30" id="ak"/><g id="m"><use transform="matrix(0.05,0,0,0.05,0,0)" xlink:href="#ak"/><use transform="matrix(0.05,0,0,0.05,12,0)" xlink:href="#N"/><use transform="matrix(0.05,0,0,0.05,17.95,0)" xlink:href="#N"/><use transform="matrix(0.05,0,0,0.05,23.9,0)" xlink:href="#af"/><use transform="matrix(0.05,0,0,0.05,33.9,0)" xlink:href="#N"/></g><path d="M232-93c-1 65-40 97-104 97C67 4 28-28 28-90v-158h33c8 89-33 224 67 224 102 0 64-133 71-224h33v155" id="al"/><g id="n"><use transform="matrix(0.06234567901234567,0,0,0.06234567901234567,0,0)" xlink:href="#al"/><use transform="matrix(0.06234567901234567,0,0,0.06234567901234567,16.147530864197527,0)" xlink:href="#Y"/><use transform="matrix(0.06234567901234567,0,0,0.06234567901234567,27.36975308641975,0)" xlink:href="#aa"/><use transform="matrix(0.06234567901234567,0,0,0.06234567901234567,39.83888888888888,0)" xlink:href="#N"/></g><path d="M18-100v-36l175-74v27L42-118l151 64v27" id="am"/><path d="M18-27v-27l151-64-151-65v-27l175 74v36" id="an"/><g id="o"><use transform="matrix(0.06234567901234567,0,0,0.06234567901234567,0,0)" xlink:href="#am"/><use transform="matrix(0.06234567901234567,0,0,0.06234567901234567,13.09259259259259,0)" xlink:href="#am"/><use transform="matrix(0.06234567901234567,0,0,0.06234567901234567,26.18518518518518,0)" xlink:href="#L"/><use transform="matrix(0.06234567901234567,0,0,0.06234567901234567,31.11049382716049,0)" xlink:href="#X"/><use transform="matrix(0.06234567901234567,0,0,0.06234567901234567,43.57962962962962,0)" xlink:href="#T"/><use transform="matrix(0.06234567901234567,0,0,0.06234567901234567,54.80185185185184,0)" xlink:href="#S"/><use transform="matrix(0.06234567901234567,0,0,0.06234567901234567,59.72716049382715,0)" xlink:href="#R"/><use transform="matrix(0.06234567901234567,0,0,0.06234567901234567,72.19629629629628,0)" xlink:href="#V"/><use transform="matrix(0.06234567901234567,0,0,0.06234567901234567,84.66543209876542,0)" xlink:href="#aa"/><use transform="matrix(0.06234567901234567,0,0,0.06234567901234567,97.13456790123456,0)" xlink:href="#an"/><use transform="matrix(0.06234567901234567,0,0,0.06234567901234567,110.22716049382716,0)" xlink:href="#an"/></g><path d="M141 0L90-78 38 0H4l68-98-65-92h35l48 74 47-74h35l-64 92 68 98h-35" id="ao"/><g id="p"><use transform="matrix(0.06234567901234567,0,0,0.06234567901234567,0,0)" xlink:href="#am"/><use transform="matrix(0.06234567901234567,0,0,0.06234567901234567,13.09259259259259,0)" xlink:href="#am"/><use transform="matrix(0.06234567901234567,0,0,0.06234567901234567,26.18518518518518,0)" xlink:href="#aa"/><use transform="matrix(0.06234567901234567,0,0,0.06234567901234567,38.654320987654316,0)" xlink:href="#ao"/><use transform="matrix(0.06234567901234567,0,0,0.06234567901234567,49.87654320987654,0)" xlink:href="#ae"/><use transform="matrix(0.06234567901234567,0,0,0.06234567901234567,56.1111111111111,0)" xlink:href="#aa"/><use transform="matrix(0.06234567901234567,0,0,0.06234567901234567,68.58024691358023,0)" xlink:href="#X"/><use transform="matrix(0.06234567901234567,0,0,0.06234567901234567,81.04938271604937,0)" xlink:href="#V"/><use transform="matrix(0.06234567901234567,0,0,0.06234567901234567,93.5185185185185,0)" xlink:href="#an"/><use transform="matrix(0.06234567901234567,0,0,0.06234567901234567,106.6111111111111,0)" xlink:href="#an"/></g><path d="M143 0L79-87 56-68V0H24v-261h32v163l83-92h37l-77 82L181 0h-38" id="ap"/><g id="q"><use transform="matrix(0.05,0,0,0.05,0,0)" xlink:href="#ad"/><use transform="matrix(0.05,0,0,0.05,12.950000000000001,0)" xlink:href="#Z"/><use transform="matrix(0.05,0,0,0.05,22.950000000000003,0)" xlink:href="#aa"/><use transform="matrix(0.05,0,0,0.05,32.95,0)" xlink:href="#T"/><use transform="matrix(0.05,0,0,0.05,41.95,0)" xlink:href="#ap"/><use transform="matrix(0.05,0,0,0.05,50.95,0)" xlink:href="#af"/><use transform="matrix(0.05,0,0,0.05,60.95,0)" xlink:href="#R"/><use transform="matrix(0.05,0,0,0.05,70.95,0)" xlink:href="#ae"/></g><path d="M160-131c35 5 61 23 61 61C221 17 115-2 30 0v-248c76 3 177-17 177 60 0 33-19 50-47 57zm-97-11c50-1 110 9 110-42 0-47-63-36-110-37v79zm0 115c55-2 124 14 124-45 0-56-70-42-124-44v89" id="aq"/><g id="r"><use transform="matrix(0.05,0,0,0.05,0,0)" xlink:href="#aq"/><use transform="matrix(0.05,0,0,0.05,12,0)" xlink:href="#af"/><use transform="matrix(0.05,0,0,0.05,22,0)" xlink:href="#af"/><use transform="matrix(0.05,0,0,0.05,32,0)" xlink:href="#ap"/><use transform="matrix(0.05,0,0,0.05,41,0)" xlink:href="#Y"/></g><path d="M240 0l2-218c-23 76-54 145-80 218h-23L58-218 59 0H30v-248h44l77 211c21-75 51-140 76-211h43V0h-30" id="ar"/><g id="s"><use transform="matrix(0.05,0,0,0.05,0,0)" xlink:href="#ar"/><use transform="matrix(0.05,0,0,0.05,14.950000000000001,0)" xlink:href="#O"/><use transform="matrix(0.05,0,0,0.05,24.950000000000003,0)" xlink:href="#X"/><use transform="matrix(0.05,0,0,0.05,34.95,0)" xlink:href="#O"/><use transform="matrix(0.05,0,0,0.05,44.95,0)" xlink:href="#ag"/><use transform="matrix(0.05,0,0,0.05,54.95,0)" xlink:href="#aa"/></g><path d="M33 0v-248h34V0H33" id="as"/><path d="M108 0H70L1-190h34L89-25l56-165h34" id="at"/><g id="t"><use transform="matrix(0.05,0,0,0.05,0,0)" xlink:href="#as"/><use transform="matrix(0.05,0,0,0.05,5,0)" xlink:href="#X"/><use transform="matrix(0.05,0,0,0.05,15,0)" xlink:href="#at"/><use transform="matrix(0.05,0,0,0.05,24,0)" xlink:href="#aa"/><use transform="matrix(0.05,0,0,0.05,34,0)" xlink:href="#X"/><use transform="matrix(0.05,0,0,0.05,44,0)" xlink:href="#ae"/><use transform="matrix(0.05,0,0,0.05,49,0)" xlink:href="#af"/><use transform="matrix(0.05,0,0,0.05,59,0)" xlink:href="#N"/><use transform="matrix(0.05,0,0,0.05,64.95,0)" xlink:href="#P"/></g><g id="u"><use transform="matrix(0.05,0,0,0.05,0,0)" xlink:href="#U"/><use transform="matrix(0.05,0,0,0.05,12,0)" xlink:href="#V"/><use transform="matrix(0.05,0,0,0.05,22,0)" xlink:href="#V"/></g><g id="v"><use transform="matrix(0.05,0,0,0.05,0,0)" xlink:href="#as"/><use transform="matrix(0.05,0,0,0.05,5,0)" xlink:href="#ae"/><use transform="matrix(0.05,0,0,0.05,10,0)" xlink:href="#aa"/><use transform="matrix(0.05,0,0,0.05,20,0)" xlink:href="#W"/></g><path d="M233-177c-1 41-23 64-60 70L243 0h-38l-65-103H63V0H30v-248c88 3 205-21 203 71zM63-129c60-2 137 13 137-47 0-61-80-42-137-45v92" id="au"/><g id="w"><use transform="matrix(0.05,0,0,0.05,0,0)" xlink:href="#au"/><use transform="matrix(0.05,0,0,0.05,12.950000000000001,0)" xlink:href="#aa"/><use transform="matrix(0.05,0,0,0.05,22.950000000000003,0)" xlink:href="#W"/><use transform="matrix(0.05,0,0,0.05,37.900000000000006,0)" xlink:href="#af"/><use transform="matrix(0.05,0,0,0.05,47.900000000000006,0)" xlink:href="#at"/><use transform="matrix(0.05,0,0,0.05,56.900000000000006,0)" xlink:href="#aa"/></g><g id="x"><use transform="matrix(0.05,0,0,0.05,0,0)" xlink:href="#ak"/><use transform="matrix(0.05,0,0,0.05,12,0)" xlink:href="#V"/><use transform="matrix(0.05,0,0,0.05,22,0)" xlink:href="#L"/><use transform="matrix(0.05,0,0,0.05,25.950000000000003,0)" xlink:href="#ae"/></g><g id="y"><use transform="matrix(0.05,0,0,0.05,0,0)" xlink:href="#ar"/><use transform="matrix(0.05,0,0,0.05,14.950000000000001,0)" xlink:href="#L"/><use transform="matrix(0.05,0,0,0.05,18.900000000000002,0)" xlink:href="#X"/><use transform="matrix(0.05,0,0,0.05,28.900000000000002,0)" xlink:href="#af"/><use transform="matrix(0.05,0,0,0.05,38.900000000000006,0)" xlink:href="#N"/></g><g id="z"><use transform="matrix(0.05,0,0,0.05,0,0)" xlink:href="#ai"/><use transform="matrix(0.05,0,0,0.05,12.950000000000001,0)" xlink:href="#aa"/><use transform="matrix(0.05,0,0,0.05,22.950000000000003,0)" xlink:href="#ae"/><use transform="matrix(0.05,0,0,0.05,27.950000000000003,0)" xlink:href="#O"/><use transform="matrix(0.05,0,0,0.05,37.95,0)" xlink:href="#L"/><use transform="matrix(0.05,0,0,0.05,41.900000000000006,0)" xlink:href="#S"/><use transform="matrix(0.05,0,0,0.05,45.85000000000001,0)" xlink:href="#Y"/></g><path d="M24-231v-30h32v30H24zM-9 49c24 4 33-6 33-30v-209h32V24c2 40-23 58-65 49V49" id="av"/><g id="A"><use transform="matrix(0.05,0,0,0.05,0,0)" xlink:href="#ar"/><use transform="matrix(0.05,0,0,0.05,14.950000000000001,0)" xlink:href="#O"/><use transform="matrix(0.05,0,0,0.05,24.950000000000003,0)" xlink:href="#av"/><use transform="matrix(0.05,0,0,0.05,28.900000000000002,0)" xlink:href="#af"/><use transform="matrix(0.05,0,0,0.05,38.900000000000006,0)" xlink:href="#N"/></g><g id="B"><use transform="matrix(0.05,0,0,0.05,0,0)" xlink:href="#ai"/><use transform="matrix(0.05,0,0,0.05,12.950000000000001,0)" xlink:href="#L"/><use transform="matrix(0.05,0,0,0.05,16.900000000000002,0)" xlink:href="#Y"/><use transform="matrix(0.05,0,0,0.05,25.900000000000002,0)" xlink:href="#aj"/><use transform="matrix(0.05,0,0,0.05,35.900000000000006,0)" xlink:href="#S"/><use transform="matrix(0.05,0,0,0.05,39.85000000000001,0)" xlink:href="#O"/><use transform="matrix(0.05,0,0,0.05,49.85000000000001,0)" xlink:href="#P"/></g><g id="C"><use transform="matrix(0.05,0,0,0.05,0,0)" xlink:href="#U"/><use transform="matrix(0.05,0,0,0.05,12,0)" xlink:href="#R"/><use transform="matrix(0.05,0,0,0.05,22,0)" xlink:href="#ae"/><use transform="matrix(0.05,0,0,0.05,27,0)" xlink:href="#Z"/><use transform="matrix(0.05,0,0,0.05,37,0)" xlink:href="#aa"/><use transform="matrix(0.05,0,0,0.05,47,0)" xlink:href="#X"/><use transform="matrix(0.05,0,0,0.05,57,0)" xlink:href="#ae"/><use transform="matrix(0.05,0,0,0.05,62,0)" xlink:href="#L"/><use transform="matrix(0.05,0,0,0.05,65.95,0)" xlink:href="#T"/><use transform="matrix(0.05,0,0,0.05,74.95,0)" xlink:href="#O"/><use transform="matrix(0.05,0,0,0.05,84.95,0)" xlink:href="#ae"/><use transform="matrix(0.05,0,0,0.05,89.95,0)" xlink:href="#L"/><use transform="matrix(0.05,0,0,0.05,93.9,0)" xlink:href="#af"/><use transform="matrix(0.05,0,0,0.05,103.9,0)" xlink:href="#X"/></g><g id="D"><use transform="matrix(0.05,0,0,0.05,0,0)" xlink:href="#ad"/><use transform="matrix(0.05,0,0,0.05,12.950000000000001,0)" xlink:href="#Z"/><use transform="matrix(0.05,0,0,0.05,22.950000000000003,0)" xlink:href="#aa"/><use transform="matrix(0.05,0,0,0.05,32.95,0)" xlink:href="#T"/><use transform="matrix(0.05,0,0,0.05,41.95,0)" xlink:href="#ap"/></g><g id="E"><use transform="matrix(0.05,0,0,0.05,0,0)" xlink:href="#Q"/><use transform="matrix(0.05,0,0,0.05,12,0)" xlink:href="#aa"/><use transform="matrix(0.05,0,0,0.05,22,0)" xlink:href="#N"/><use transform="matrix(0.05,0,0,0.05,27.950000000000003,0)" xlink:href="#W"/><use transform="matrix(0.05,0,0,0.05,42.9,0)" xlink:href="#L"/><use transform="matrix(0.05,0,0,0.05,46.85,0)" xlink:href="#Y"/><use transform="matrix(0.05,0,0,0.05,55.85,0)" xlink:href="#Y"/><use transform="matrix(0.05,0,0,0.05,64.85,0)" xlink:href="#L"/><use transform="matrix(0.05,0,0,0.05,68.8,0)" xlink:href="#af"/><use transform="matrix(0.05,0,0,0.05,78.8,0)" xlink:href="#X"/><use transform="matrix(0.05,0,0,0.05,88.8,0)" xlink:href="#Y"/></g><g id="F"><use transform="matrix(0.05,0,0,0.05,0,0)" xlink:href="#ad"/><use transform="matrix(0.05,0,0,0.05,12.950000000000001,0)" xlink:href="#af"/><use transform="matrix(0.05,0,0,0.05,22.950000000000003,0)" xlink:href="#X"/><use transform="matrix(0.05,0,0,0.05,32.95,0)" xlink:href="#X"/><use transform="matrix(0.05,0,0,0.05,42.95,0)" xlink:href="#aa"/><use transform="matrix(0.05,0,0,0.05,52.95,0)" xlink:href="#T"/><use transform="matrix(0.05,0,0,0.05,61.95,0)" xlink:href="#ae"/></g><g id="G"><use transform="matrix(0.05,0,0,0.05,0,0)" xlink:href="#ae"/><use transform="matrix(0.05,0,0,0.05,5,0)" xlink:href="#af"/></g><g id="H"><use transform="matrix(0.05,0,0,0.05,0,0)" xlink:href="#ar"/><use transform="matrix(0.05,0,0,0.05,14.950000000000001,0)" xlink:href="#af"/><use transform="matrix(0.05,0,0,0.05,24.950000000000003,0)" xlink:href="#X"/><use transform="matrix(0.05,0,0,0.05,34.95,0)" xlink:href="#ag"/><use transform="matrix(0.05,0,0,0.05,44.95,0)" xlink:href="#af"/><use transform="matrix(0.05,0,0,0.05,54.95,0)" xlink:href="#ai"/><use transform="matrix(0.05,0,0,0.05,67.9,0)" xlink:href="#aq"/></g><g id="I"><use transform="matrix(0.05,0,0,0.05,0,0)" xlink:href="#Y"/><use transform="matrix(0.05,0,0,0.05,9,0)" xlink:href="#ae"/><use transform="matrix(0.05,0,0,0.05,14,0)" xlink:href="#af"/><use transform="matrix(0.05,0,0,0.05,24,0)" xlink:href="#N"/><use transform="matrix(0.05,0,0,0.05,29.950000000000003,0)" xlink:href="#aa"/></g><path d="M101-234c-31-9-42 10-38 44h38v23H63V0H32v-167H5v-23h27c-7-52 17-82 69-68v24" id="aw"/><g id="J"><use transform="matrix(0.05,0,0,0.05,0,0)" xlink:href="#L"/><use transform="matrix(0.05,0,0,0.05,3.95,0)" xlink:href="#X"/><use transform="matrix(0.05,0,0,0.05,13.949999999999998,0)" xlink:href="#aw"/><use transform="matrix(0.05,0,0,0.05,18.95,0)" xlink:href="#af"/><use transform="matrix(0.05,0,0,0.05,28.950000000000003,0)" xlink:href="#N"/><use transform="matrix(0.05,0,0,0.05,34.9,0)" xlink:href="#W"/><use transform="matrix(0.05,0,0,0.05,49.85,0)" xlink:href="#O"/><use transform="matrix(0.05,0,0,0.05,59.85,0)" xlink:href="#ae"/><use transform="matrix(0.05,0,0,0.05,64.85,0)" xlink:href="#L"/><use transform="matrix(0.05,0,0,0.05,68.8,0)" xlink:href="#af"/><use transform="matrix(0.05,0,0,0.05,78.8,0)" xlink:href="#X"/></g></defs></g></svg>