<svg xmlns="http://www.w3.org/2000/svg" xmlns:xlink="http://www.w3.org/1999/xlink" xmlns:lucid="lucid" width="1602.5" height="1881"><g transform="translate(-317.63045129279203 -250.56628686006866)" lucid:page-tab-id=".Q4MUjXso07N"><path d="M0 0h2000v2500H0z" fill="#fff"/><path d="M552.42 279.07a8 8 0 0 1 8-8h1031.2a8 8 0 0 1 8 8v1824a8 8 0 0 1-8 8H560.43a8 8 0 0 1-8-8z" stroke="#333" fill-opacity="0"/><use xlink:href="#a" transform="matrix(1,0,0,1,560.4254211466264,279.06628686006866) translate(481.8033950617284 17.955555555555552)"/><path d="M399.38 610.82c0 10.9-8.84 19.75-19.75 19.75-10.9 0-19.75-8.85-19.75-19.75s8.84-19.75 19.75-19.75c10.9 0 19.75 8.84 19.75 19.75z" stroke="#333" fill="#fff"/><path d="M379.63 630.57v47.3a27.6 27.6 0 0 0 4.28 14.76l35.73 56.44m-40-63.2l-40 63.2m0-98.75h80" stroke="#333" fill="none"/><path d="M339.63 599.07a8 8 0 0 1 8-8h64a8 8 0 0 1 8 8v164a8 8 0 0 1-8 8h-64a8 8 0 0 1-8-8z" fill="none"/><use xlink:href="#b" transform="matrix(1,0,0,1,259.6304512927918,749.0662868600687) translate(89.51296296296297 17.955555555555552)"/><path d="M1879.38 705.82c0 10.9-8.84 19.75-19.75 19.75-10.9 0-19.75-8.85-19.75-19.75s8.84-19.75 19.75-19.75c10.9 0 19.75 8.84 19.75 19.75z" stroke="#333" fill="#fff"/><path d="M1859.63 725.57v47.3a27.6 27.6 0 0 0 4.28 14.76l35.73 56.44m-40-63.2l-40 63.2m0-98.75h80" stroke="#333" fill="none"/><path d="M1819.63 694.07a8 8 0 0 1 8-8h64a8 8 0 0 1 8 8v164a8 8 0 0 1-8 8h-64a8 8 0 0 1-8-8z" fill="none"/><use xlink:href="#c" transform="matrix(1,0,0,1,1739.6304512927918,844.0662868600687) translate(88.26604938271606 17.955555555555552)"/><path d="M1699.38 705.82c0 10.9-8.84 19.75-19.75 19.75-10.9 0-19.75-8.85-19.75-19.75s8.84-19.75 19.75-19.75c10.9 0 19.75 8.84 19.75 19.75z" stroke="#333" fill="#fff"/><path d="M1679.63 725.57v47.3a27.6 27.6 0 0 0 4.28 14.76l35.73 56.44m-40-63.2l-40 63.2m0-98.75h80" stroke="#333" fill="none"/><path d="M1639.63 694.07a8 8 0 0 1 8-8h64a8 8 0 0 1 8 8v164a8 8 0 0 1-8 8h-64a8 8 0 0 1-8-8z" fill="none"/><use xlink:href="#d" transform="matrix(1,0,0,1,1559.6304512927918,844.0662868600687) translate(73.33425925925927 17.955555555555552)"/><path d="M1779.38 1291.88c0 10.9-8.84 19.75-19.75 19.75-10.9 0-19.75-8.84-19.75-19.75 0-10.9 8.84-19.75 19.75-19.75 10.9 0 19.75 8.85 19.75 19.75z" stroke="#333" fill="#fff"/><path d="M1759.63 1311.63v47.3a27.6 27.6 0 0 0 4.28 14.76l35.73 56.43m-40-63.2l-40 63.2m0-98.75h80" stroke="#333" fill="none"/><path d="M1719.63 1280.13a8 8 0 0 1 8-8h64a8 8 0 0 1 8 8v164a8 8 0 0 1-8 8h-64a8 8 0 0 1-8-8z" fill="none"/><use xlink:href="#a" transform="matrix(1,0,0,1,1639.6304512927918,1430.1346619589217) translate(85.8033950617284 17.955555555555552)"/><path d="M779.63 451.07c0 33.13-35.82 60-80 60s-80-26.87-80-60c0-33.14 35.82-60 80-60s80 26.86 80 60z" stroke="#333" fill="#f4d9ff"/><use xlink:href="#e" transform="matrix(1,0,0,1,643.6304512927918,415.06628686006866) translate(36.724999999999994 28.799999999999997)"/><use xlink:href="#f" transform="matrix(1,0,0,1,643.6304512927918,415.06628686006866) translate(15.049999999999997 50.4)"/><path d="M920.13 926.07c0 33.13-35.82 60-80 60s-80-26.87-80-60c0-33.14 35.82-60 80-60s80 26.86 80 60z" stroke="#333" fill="#6db1ff"/><use xlink:href="#g" transform="matrix(1,0,0,1,784.1304555827596,890.0662868600687) translate(34.025 39.6)"/><path d="M1119.63 681.07c0 33.13-35.82 60-80 60s-80-26.87-80-60c0-33.14 35.82-60 80-60s80 26.86 80 60z" stroke="#333" fill="#fff7a1"/><use xlink:href="#h" transform="matrix(1,0,0,1,983.6304512927918,645.0662868600687) translate(24.225 18)"/><use xlink:href="#i" transform="matrix(1,0,0,1,983.6304512927918,645.0662868600687) translate(15.574999999999996 39.6)"/><use xlink:href="#j" transform="matrix(1,0,0,1,983.6304512927918,645.0662868600687) translate(64.525 39.6)"/><use xlink:href="#k" transform="matrix(1,0,0,1,983.6304512927918,645.0662868600687) translate(30.5 61.2)"/><path d="M760.13 711.07c0 33.13-35.82 60-80 60s-80-26.87-80-60c0-33.14 35.82-60 80-60s80 26.86 80 60z" stroke="#333" fill="#ffd9d9"/><use xlink:href="#l" transform="matrix(1,0,0,1,624.1304555827596,675.0662868600687) translate(4.1499999999999915 39.6)"/><use xlink:href="#m" transform="matrix(1,0,0,1,624.1304555827596,675.0662868600687) translate(68 39.6)"/><path d="M380.63 670h109.02a12 12 0 0 0 12-12V482a12 12 0 0 1 12-12h109.02M380.64 670h-3.5" stroke="#333" fill="none"/><path d="M623.38 470.47h-.72v-.95h.3z" stroke="#333" stroke-width=".05" fill="#333"/><path d="M479.38 915.82c0 10.9-8.84 19.75-19.75 19.75-10.9 0-19.75-8.85-19.75-19.75s8.84-19.75 19.75-19.75c10.9 0 19.75 8.84 19.75 19.75z" stroke="#333" fill="#fff"/><path d="M459.63 935.57v47.3a27.6 27.6 0 0 0 4.28 14.76l35.73 56.44m-40-63.2l-40 63.2m0-98.75h80" stroke="#333" fill="none"/><path d="M419.63 904.07a8 8 0 0 1 8-8h64a8 8 0 0 1 8 8v164a8 8 0 0 1-8 8h-64a8 8 0 0 1-8-8z" fill="none"/><use xlink:href="#n" transform="matrix(1,0,0,1,339.6304512927918,1054.0662868600687) translate(96.370987654321 17.955555555555552)"/><path d="M460.63 975h137.25a12 12 0 0 0 12-12v-24.93a12 12 0 0 1 12-12h137.25M460.64 975h-3.5" stroke="#333" fill="none"/><path d="M759.63 926.06V926.54h-.5v-.95h.5zM840.6 865.07h-.95v-5.5h.96zm0-11h-.95v-11h.96zm0-16.5h-.95v-11h.96zm1.57-27.74l-.3.5-.7 1.67-.42 1.76-.14 1.83v5.47h-.95v-5.52l.16-1.93.47-1.9.74-1.82.36-.56zm14.84-5.8h-4.85l-1.82.15-1.76.43-1.67.7-.5.3-.5-.8.57-.35 1.8-.75 1.9-.46 1.94-.15h4.9zm14.63 0h-9.75v-.94h9.75zm6.6 0h-1.73v-.94h1.72zm139.65 0h-9.75v-.94h9.75zm15.98-1.7l-.56.35-1.8.75-1.92.46-1.93.14h-4.9v-.95h4.86l1.83-.15 1.76-.42 1.66-.7.5-.3zm-30.6 1.7h-1.72v-.94h1.72zm36.85-12.44l-.15 1.92-.45 1.9-.75 1.8-.35.58-.8-.5.3-.5.7-1.67.4-1.76.15-1.82v-5.44h.95zm0-10.94h-.94v-10.9h.94zm0-16.37h-.94v-10.92h.94zm0-16.37h-.94v-5.45h.94z" stroke="#333" stroke-width=".05" fill="#333"/><path d="M840.6 865.58h-.96v-.53h.97z" fill="#333"/><path stroke="#333" stroke-width=".05" fill="#333"/><path d="M1050.22 759.52l-.82.5-9.77-16.54-9.77 16.52-.82-.48 10.6-17.9z" stroke="#333" stroke-width=".05" fill="#333"/><use xlink:href="#o" transform="matrix(1,0,0,1,878.2205768945659,790.099620193402) translate(0.005000000000002558 17.955555555555552)"/><path d="M840.6 864.66h-.95v-5.68h.96zm0-11.37h-.95v-11.37h.96zm-1.35-28.4l.75 1.8.45 1.9.15 1.95v5.7h-.95v-5.66l-.14-1.84-.4-1.75-.7-1.66-.3-.5.8-.5zm-9.17-6.66l1.9.46 1.8.75.58.35-.5.8-.5-.3-1.67-.7-1.77-.42-1.82-.14h-5v-.95h5.05zm-143.18-1.4l1.67.7 1.76.4 1.82.15h5.02v.94h-5.06l-1.92-.15-1.9-.47-1.8-.75-.58-.34.5-.82zm-6.3-10.3l.15 1.83.42 1.76.7 1.67.3.5-.8.5-.36-.57-.74-1.8-.45-1.9-.14-1.94v-5.78h.95zm0-11.47h-.95v-11.5h.96zm0-17.25h-.95v-5.75h.96z" stroke="#333" stroke-width=".05" fill="#333"/><path d="M680.12 771.57h.5v.5h-.97v-.52z" fill="#333"/><path stroke="#333" stroke-width=".05" fill="#333"/><path d="M840.13 863.65l9.77-16.52.82.48-10.6 17.92-10.58-17.9.82-.5z" stroke="#333" stroke-width=".05" fill="#333"/><use xlink:href="#p" transform="matrix(1,0,0,1,700.2786037309078,805.099620193402) translate(0.005000000000002558 17.955555555555552)"/><path d="M920.13 1120c0 33.13-35.82 60-80 60s-80-26.87-80-60c0-33.14 35.82-60 80-60s80 26.86 80 60z" stroke="#333" fill="#54c45e"/><use xlink:href="#q" transform="matrix(1,0,0,1,784.1304555827596,1083.9979117551327) translate(18.025 28.799999999999997)"/><use xlink:href="#r" transform="matrix(1,0,0,1,784.1304555827596,1083.9979117551327) translate(31 50.4)"/><path d="M460.63 975h137.25a12 12 0 0 1 12 12v121a12 12 0 0 0 12 12h137.25M460.64 975h-3.5" stroke="#333" fill="none"/><path d="M759.63 1120V1120.46h-.5v-.95h.5z" stroke="#333" stroke-width=".05" fill="#333"/><path d="M1499.63 1171.07c0 33.13-35.82 60-80 60s-80-26.87-80-60c0-33.14 35.82-60 80-60s80 26.86 80 60z" stroke="#333" fill="#f4d9ff"/><use xlink:href="#s" transform="matrix(1,0,0,1,1363.6304512927918,1135.0662868600687) translate(23.525 28.799999999999997)"/><use xlink:href="#t" transform="matrix(1,0,0,1,1363.6304512927918,1135.0662868600687) translate(19.025 50.4)"/><path d="M1359.63 1710.57c0 33.13-35.82 60-80 60s-80-26.87-80-60c0-33.14 35.82-60 80-60s80 26.86 80 60z" stroke="#333" fill="#54c45e"/><use xlink:href="#u" transform="matrix(1,0,0,1,1223.6304512927918,1674.5662825830984) translate(20.025 39.6)"/><use xlink:href="#v" transform="matrix(1,0,0,1,1223.6304512927918,1674.5662825830984) translate(57.025 39.6)"/><path d="M1359.63 1890.57c0 33.13-35.82 60-80 60s-80-26.87-80-60c0-33.14 35.82-60 80-60s80 26.86 80 60z" stroke="#333" fill="#54c45e"/><use xlink:href="#w" transform="matrix(1,0,0,1,1223.6304512927918,1854.5662825830984) translate(2.5749999999999957 39.6)"/><use xlink:href="#v" transform="matrix(1,0,0,1,1223.6304512927918,1854.5662825830984) translate(74.475 39.6)"/><path d="M1359.63 1550.57c0 33.13-35.82 60-80 60s-80-26.87-80-60c0-33.14 35.82-60 80-60s80 26.86 80 60z" stroke="#333" fill="#54c45e"/><use xlink:href="#x" transform="matrix(1,0,0,1,1223.6304512927918,1514.5662825830984) translate(15.599999999999994 28.799999999999997)"/><use xlink:href="#y" transform="matrix(1,0,0,1,1223.6304512927918,1514.5662825830984) translate(51.55 28.799999999999997)"/><use xlink:href="#z" transform="matrix(1,0,0,1,1223.6304512927918,1514.5662825830984) translate(28.574999999999996 50.4)"/><path d="M1359.63 1390.57c0 33.13-35.82 60-80 60s-80-26.87-80-60c0-33.14 35.82-60 80-60s80 26.86 80 60z" stroke="#333" fill="#54c45e"/><use xlink:href="#x" transform="matrix(1,0,0,1,1223.6304512927918,1354.5662825830984) translate(15.599999999999994 28.799999999999997)"/><use xlink:href="#A" transform="matrix(1,0,0,1,1223.6304512927918,1354.5662825830984) translate(51.55 28.799999999999997)"/><use xlink:href="#z" transform="matrix(1,0,0,1,1223.6304512927918,1354.5662825830984) translate(28.574999999999996 50.4)"/><path d="M1119.63 1171.07c0 33.13-35.82 60-80 60s-80-26.87-80-60c0-33.14 35.82-60 80-60s80 26.86 80 60z" stroke="#333" fill="#ffd9d9"/><use xlink:href="#B" transform="matrix(1,0,0,1,983.6304512927918,1135.0662868600687) translate(26.574999999999996 18)"/><use xlink:href="#C" transform="matrix(1,0,0,1,983.6304512927918,1135.0662868600687) translate(-0.9500000000000028 39.6)"/><use xlink:href="#m" transform="matrix(1,0,0,1,983.6304512927918,1135.0662868600687) translate(36.075 61.2)"/><path d="M1199.63 1011.07c0 33.13-35.82 60-80 60s-80-26.87-80-60c0-33.14 35.82-60 80-60s80 26.86 80 60z" stroke="#333" fill="#fff7a1"/><use xlink:href="#D" transform="matrix(1,0,0,1,1063.6304512927918,975.0662868600687) translate(30.525 28.799999999999997)"/><use xlink:href="#E" transform="matrix(1,0,0,1,1063.6304512927918,975.0662868600687) translate(7.100000000000001 50.4)"/><path d="M1420.1 1110.07h-.94v-4.84h.94zm0-9.67h-.94v-9.67h.94zm0-14.5h-.94v-9.67h.94zm0-14.5h-.94v-9.67h.94zm0-14.5h-.94v-9.67h.94zm0-14.5h-.94v-9.67h.94zm-1.35-25l.75 1.8.45 1.9.15 1.95v4.85h-.94v-4.82l-.15-1.82-.4-1.75-.7-1.66-.3-.5.8-.5zm-9.17-6.66l1.9.46 1.82.75.56.35-.5.8-.5-.3-1.67-.7-1.77-.42-1.82-.14h-4.9v-.95h4.95zm-136.24.8h-3.44v-.95h3.44zm-8.36 0h-9.83v-.95h9.83zm-14.75 0h-9.84v-.95h9.83zm-14.76 0h-9.84v-.95h9.84zm-14.76 0h-9.82v-.95h9.83zm-14.74 0h-4.92v-.95h4.92zm191.83 0h-1.14v-.95h1.13z" stroke="#333" stroke-width=".05" fill="#333"/><path d="M1420.1 1110.58h-.96v-.53h.96z" fill="#333"/><path stroke="#333" stroke-width=".05" fill="#333"/><path d="M1218.57 1001.3l-16.52 9.77 16.52 9.77-.48.82-17.92-10.6 17.9-10.58z" stroke="#333" stroke-width=".05" fill="#333"/><use xlink:href="#o" transform="matrix(1,0,0,1,1273.3404159148943,997.599620193402) translate(0.005000000000002558 17.955555555555552)"/><path d="M1125.47 1171.54h-4.84v-.95h4.84zm14.5 0h-9.67v-.95h9.67zm14.5 0h-9.66v-.95h9.68zm14.5 0h-9.66v-.95h9.68zm130.57 0h-9.67v-.95h9.67zm14.5 0h-9.67v-.95h9.68zm14.5 0h-9.66v-.95h9.67zm9.68 0h-4.83v-.95h4.82z" stroke="#333" stroke-width=".05" fill="#333"/><path d="M1120.64 1171.54h-.52v-.87l.52-.08z" fill="#333"/><path stroke="#333" stroke-width=".05" fill="#333"/><path d="M1339.08 1171.07l-17.9 10.6-.5-.83 16.53-9.77-16.5-9.78.47-.82z" stroke="#333" stroke-width=".05" fill="#333"/><use xlink:href="#p" transform="matrix(1,0,0,1,1169.77859944094,1157.599620193402) translate(0.005000000000002558 17.955555555555552)"/><path d="M1165.9 1388.83l1.67.7 1.76.42 1.82.14h4.5v.94h-4.54l-1.92-.15-1.9-.47-1.8-.75-.58-.35.5-.8zm23.3 2.2h-9.04v-.94h9.03zm9.02 0h-4.5v-.94h4.5zm-38.62-12.48l.15 1.82.42 1.76.7 1.67.3.5-.8.5-.36-.57-.73-1.8-.46-1.9-.14-1.94v-5.3h.94zm0-10.54h-.94v-10.55h.94zm0-15.82h-.94v-10.56h.94zm0-15.84h-.94v-10.55h.94zm0-15.83h-.94v-10.55h.94zm0-15.82h-.94v-10.56h.94zm1.57-26.85l-.3.5-.7 1.68-.42 1.76-.14 1.83v5.24h-.94v-5.3l.15-1.92.47-1.9.74-1.82.36-.57zm14.9-5.8h-4.92l-1.82.15-1.76.43-1.67.7-.5.3-.5-.8.57-.35 1.8-.75 1.9-.46 1.94-.15h4.96zm237.8-1.7l-.57.35-1.8.75-1.92.46-1.93.14h-4.95v-.95h4.9l1.83-.15 1.76-.42 1.66-.7.5-.3zm-16.1 1.7h-9.85v-.94h9.86zm-14.78 0h-9.86v-.94h9.85zm-14.8 0h-9.84v-.94h9.85zm-14.77 0h-9.85v-.94h9.85zm-14.78 0h-9.85v-.94h9.85zm-14.78 0h-9.85v-.94h9.85zm-139.68 0h-3.22v-.94h3.2zm124.9 0h-1.6v-.94h1.6zm111-12.44l-.15 1.92-.45 1.9-.75 1.8-.35.58-.8-.5.3-.5.7-1.67.4-1.76.15-1.82v-4.57h.95zm0-9.2h-.94v-9.17h.94zm0-13.75h-.94v-4.58h.94z" stroke="#333" stroke-width=".05" fill="#333"/><path d="M1419.62 1231.57h.5v.5h-.96v-.52z" fill="#333"/><path stroke="#333" stroke-width=".05" fill="#333"/><path d="M1199.08 1390.57l-17.9 10.6-.5-.83 16.53-9.77-16.5-9.78.47-.82zM1126.9 1548.83l1.67.7 1.76.42 1.82.14h5.5v.94h-5.54l-1.92-.15-1.9-.47-1.8-.75-.58-.35.5-.8zm27.26 2.2h-11v-.94h11zm16.52 0h-11v-.94h11zm16.53 0h-11v-.94h11zm11.02 0h-5.5v-.94h5.5zm-77.62-12.48l.15 1.82.42 1.76.7 1.67.3.5-.8.5-.36-.57-.73-1.8-.46-1.9-.14-1.94v-5.03h.94zm0-9.98h-.94v-10h.94zm0-15h-.94v-10h.94zm0-15h-.94v-10h.94zm0-15h-.94v-10h.94zm0-15h-.94v-10h.94zm0-15h-.94v-10h.94zm0-15h-.94v-10h.94zm0-15h-.94v-10h.94zm0-15h-.94v-10h.94zm0-15h-.94v-10h.94zm0-15h-.94v-10h.94zm0-15h-.94v-10h.94zm0-15h-.94v-10h.94zm0-15h-.94v-10h.94zm0-15h-.94v-10h.94zm0-15h-.94v-10h.94zm1.57-25.74l-.3.5-.7 1.68-.42 1.76-.14 1.83v4.97h-.94v-5.02l.15-1.93.47-1.9.74-1.82.36-.57zm15.06-5.8h-5.08l-1.82.15-1.76.43-1.67.7-.5.3-.5-.8.57-.35 1.8-.75 1.9-.46 1.94-.15h5.13zm276.63-1.7l-.56.35-1.8.75-1.92.46-1.93.14h-5.12v-.95h5.08l1.83-.15 1.76-.42 1.66-.7.5-.3zm-16.43 1.7h-10.2v-.94h10.2zm-15.3 0h-10.2v-.94h10.2zm-15.3 0h-10.22v-.94h10.22zm-15.32 0h-10.2v-.94h10.2zm-15.3 0H1326v-.94h10.2zm-15.3 0h-10.2v-.94h10.2zm-137.75 0h-10.2v-.94h10.2zm-15.3 0h-10.2v-.94h10.2zm-15.3 0h-10.22v-.94h10.2zm267.56-12.44l-.15 1.92-.45 1.9-.75 1.8-.35.58-.8-.5.3-.5.7-1.67.4-1.76.15-1.82v-4.57h.95zm0-9.2h-.94v-9.17h.94zm0-13.75h-.94v-4.58h.94z" stroke="#333" stroke-width=".05" fill="#333"/><path d="M1419.62 1231.57h.5v.5h-.96v-.52z" fill="#333"/><path stroke="#333" stroke-width=".05" fill="#333"/><path d="M1199.08 1550.57l-17.9 10.6-.5-.83 16.53-9.77-16.5-9.78.47-.82zM1126.9 1708.83l1.67.7 1.76.42 1.82.14h5.5v.94h-5.54l-1.92-.15-1.9-.47-1.8-.75-.58-.35.5-.8zm27.26 2.2h-11v-.94h11zm16.52 0h-11v-.94h11zm16.53 0h-11v-.94h11zm11.02 0h-5.5v-.94h5.5zm-77.62-12.48l.15 1.82.42 1.76.7 1.67.3.5-.8.5-.36-.57-.73-1.8-.46-1.9-.14-1.94v-4.97h.94zm0-9.87h-.94v-9.88h.94zm0-14.82h-.94v-9.88h.94zm0-14.82h-.94v-9.88h.94zm0-14.82h-.94v-9.88h.94zm0-14.82h-.94v-9.88h.94zm0-14.82h-.94v-9.88h.94zm0-14.82h-.94v-9.88h.94zm0-14.83h-.94v-9.88h.94zm0-14.82h-.94v-9.87h.94zm0-14.8h-.94v-9.9h.94zm0-14.83h-.94v-9.88h.94zm0-14.82h-.94v-9.88h.94zm0-14.82h-.94v-9.88h.94zm0-14.82h-.94v-9.87h.94zm0-14.82h-.94v-9.88h.94zm0-14.82h-.94v-9.88h.94zm0-14.82h-.94v-9.88h.94zm0-14.82h-.94v-9.88h.94zm0-14.82h-.94v-9.88h.94zm0-14.82h-.94v-9.88h.94zm0-14.82h-.94v-9.88h.94zm0-14.83h-.94v-9.88h.94zm0-14.82h-.94v-9.87h.94zm0-14.8h-.94v-9.9h.94zm0-14.83h-.94v-9.88h.94zm0-14.82h-.94v-9.88h.94zm0-14.82h-.94v-9.88h.94zm1.57-25.5l-.3.5-.7 1.68-.42 1.76-.14 1.83v4.9h-.94v-4.95l.15-1.93.47-1.9.74-1.82.36-.57zm15.06-5.8h-5.08l-1.82.15-1.76.43-1.67.7-.5.3-.5-.8.57-.35 1.8-.75 1.9-.46 1.94-.15h5.13zm276.63-1.7l-.56.35-1.8.75-1.92.46-1.93.14h-5.12v-.95h5.08l1.83-.15 1.76-.42 1.66-.7.5-.3zm-16.43 1.7h-10.2v-.94h10.2zm-15.3 0h-10.2v-.94h10.2zm-15.3 0h-10.22v-.94h10.22zm-15.32 0h-10.2v-.94h10.2zm-15.3 0H1326v-.94h10.2zm-15.3 0h-10.2v-.94h10.2zm-137.75 0h-10.2v-.94h10.2zm-15.3 0h-10.2v-.94h10.2zm-15.3 0h-10.22v-.94h10.2zm267.56-12.44l-.15 1.92-.45 1.9-.75 1.8-.35.58-.8-.5.3-.5.7-1.67.4-1.76.15-1.82v-4.57h.95zm0-9.2h-.94v-9.17h.94zm0-13.75h-.94v-4.58h.94z" stroke="#333" stroke-width=".05" fill="#333"/><path d="M1419.62 1231.57h.5v.5h-.96v-.52z" fill="#333"/><path stroke="#333" stroke-width=".05" fill="#333"/><path d="M1199.08 1710.57l-17.9 10.6-.5-.83 16.53-9.77-16.5-9.78.47-.82zM1126.9 1888.83l1.67.7 1.76.42 1.82.14h5.5v.94h-5.54l-1.92-.15-1.9-.47-1.8-.75-.58-.35.5-.8zm27.26 2.2h-11v-.94h11zm16.52 0h-11v-.94h11zm16.53 0h-11v-.94h11zm11.02 0h-5.5v-.94h5.5zm-77.62-12.48l.15 1.82.42 1.76.7 1.67.3.5-.8.5-.36-.57-.73-1.8-.46-1.9-.14-1.94v-5h.94zm0-9.9h-.94v-9.92h.94zm0-14.88h-.94v-9.9h.94zm0-14.87h-.94v-9.92h.94zm0-14.88h-.94v-9.9h.94zm0-14.87h-.94v-9.92h.94zm0-14.88h-.94v-9.9h.94zm0-14.87h-.94v-9.92h.94zm0-14.88h-.94v-9.9h.94zm0-14.87h-.94v-9.92h.94zm0-14.88h-.94v-9.9h.94zm0-14.87h-.94v-9.92h.94zm0-14.88h-.94v-9.9h.94zm0-14.87h-.94v-9.92h.94zm0-14.88h-.94v-9.9h.94zm0-14.87h-.94v-9.92h.94zm0-14.88h-.94v-9.9h.94zm0-14.87h-.94v-9.92h.94zm0-14.88h-.94v-9.9h.94zm0-14.87h-.94v-9.92h.94zm0-14.88h-.94v-9.9h.94zm0-14.87h-.94v-9.92h.94zm0-14.88h-.94v-9.9h.94zm0-14.87h-.94v-9.92h.94zm0-14.88h-.94v-9.9h.94zm0-14.87h-.94v-9.92h.94zm0-14.88h-.94v-9.9h.94zm0-14.87h-.94v-9.92h.94zm0-14.88h-.94v-9.9h.94zm0-14.87h-.94v-9.92h.94zm0-14.88h-.94v-9.9h.94zm0-14.87h-.94v-9.92h.94zm0-14.88h-.94v-9.9h.94zm0-14.87h-.94v-9.92h.94zm0-14.88h-.94v-9.9h.94zm0-14.87h-.94v-9.92h.94zm0-14.88h-.94v-9.9h.94zm0-14.87h-.94v-9.92h.94zm0-14.88h-.94v-9.9h.94zm0-14.87h-.94v-9.92h.94zm1.57-25.57l-.3.5-.7 1.68-.42 1.76-.14 1.83v4.93h-.94v-4.98l.15-1.93.47-1.9.74-1.82.36-.57zm15.06-5.8h-5.08l-1.82.15-1.76.43-1.67.7-.5.3-.5-.8.57-.35 1.8-.75 1.9-.46 1.94-.15h5.13zm276.63-1.7l-.56.35-1.8.75-1.92.46-1.93.14h-5.12v-.95h5.08l1.83-.15 1.76-.42 1.66-.7.5-.3zm-16.43 1.7h-10.2v-.94h10.2zm-15.3 0h-10.2v-.94h10.2zm-15.3 0h-10.22v-.94h10.22zm-15.32 0h-10.2v-.94h10.2zm-15.3 0H1326v-.94h10.2zm-15.3 0h-10.2v-.94h10.2zm-137.75 0h-10.2v-.94h10.2zm-15.3 0h-10.2v-.94h10.2zm-15.3 0h-10.22v-.94h10.2zm267.56-12.44l-.15 1.92-.45 1.9-.75 1.8-.35.58-.8-.5.3-.5.7-1.67.4-1.76.15-1.82v-4.57h.95zm0-9.2h-.94v-9.17h.94zm0-13.75h-.94v-4.58h.94z" stroke="#333" stroke-width=".05" fill="#333"/><path d="M1419.62 1231.57h.5v.5h-.96v-.52z" fill="#333"/><path stroke="#333" stroke-width=".05" fill="#333"/><path d="M1199.08 1890.57l-17.9 10.6-.5-.83 16.53-9.77-16.5-9.78.47-.82z" stroke="#333" stroke-width=".05" fill="#333"/><use xlink:href="#o" transform="matrix(1,0,0,1,1184.186415435931,1258.0996244703722) translate(0.005000000000002558 17.955555555555552)"/><path d="M1579.63 1351.07c0 33.13-35.82 60-80 60s-80-26.87-80-60c0-33.14 35.82-60 80-60s80 26.86 80 60z" stroke="#333" fill="#f4d9ff"/><use xlink:href="#F" transform="matrix(1,0,0,1,1443.6304512927918,1315.0662868600687) translate(12.524999999999999 14.4)"/><use xlink:href="#G" transform="matrix(1,0,0,1,1443.6304512927918,1315.0662868600687) translate(84.475 14.4)"/><use xlink:href="#H" transform="matrix(1,0,0,1,1443.6304512927918,1315.0662868600687) translate(6.049999999999997 36)"/><use xlink:href="#G" transform="matrix(1,0,0,1,1443.6304512927918,1315.0662868600687) translate(90.95 36)"/><use xlink:href="#I" transform="matrix(1,0,0,1,1443.6304512927918,1315.0662868600687) translate(36.025 57.6)"/><use xlink:href="#J" transform="matrix(1,0,0,1,1443.6304512927918,1315.0662868600687) translate(11.600000000000001 79.20000000000002)"/><path d="M1758.63 1351.07h-178M1758.62 1351.07h3.5" stroke="#333" fill="none"/><path d="M1580.64 1351.54h-.52v-.95h.52z" stroke="#333" stroke-width=".05" fill="#333"/><path d="M1779.38 390.82c0 10.9-8.84 19.75-19.75 19.75-10.9 0-19.75-8.85-19.75-19.75s8.84-19.75 19.75-19.75c10.9 0 19.75 8.84 19.75 19.75z" stroke="#333" fill="#fff"/><path d="M1759.63 410.57v47.3a27.6 27.6 0 0 0 4.28 14.76l35.73 56.44m-40-63.2l-40 63.2m0-98.75h80" stroke="#333" fill="none"/><path d="M1719.63 379.07a8 8 0 0 1 8-8h64a8 8 0 0 1 8 8v164a8 8 0 0 1-8 8h-64a8 8 0 0 1-8-8z" fill="none"/><use xlink:href="#K" transform="matrix(1,0,0,1,1639.6304512927918,529.0662868600687) translate(49.642901234567915 17.955555555555552)"/><use xlink:href="#L" transform="matrix(1,0,0,1,1639.6304512927918,529.0662868600687) translate(143.09907407407405 17.955555555555552)"/><path d="M1758.63 450h-707a12 12 0 0 0-12 12v158.07M1758.62 450h3.5" stroke="#333" fill="none"/><path d="M1040.1 620.58h-.96v-.53h.96z" stroke="#333" stroke-width=".05" fill="#333"/><path d="M1758.63 450H780.6M1758.62 450h3.5" stroke="#333" fill="none"/><path d="M780.62 450.47h-.5l-.04-.95h.54z" stroke="#333" stroke-width=".05" fill="#333"/><path d="M1679.63 685.07v-27.5a12 12 0 0 1 12-12h146a12 12 0 0 0 12-12V478.8a12 12 0 0 0-12-12h-66.37" stroke="#333" fill="none"/><path d="M1680.1 685.62l-.44-.05h-.5v-.52h.94z" stroke="#333" stroke-width=".05" fill="#333"/><path d="M1760.6 466.8l12.92-7.63v15.27z" stroke="#333" fill="#fff"/><path d="M1758.63 450h-246.5a12 12 0 0 0-12 12v708.57M1758.62 450h3.5" stroke="#333" fill="none"/><path d="M1500.6 1174.07h-.57v-.1l.1-2.9v-.52h.47z" stroke="#333" stroke-width=".05" fill="#333"/><path d="M1859.63 685.07v-7.5a12 12 0 0 0-12-12h-67.83a12 12 0 0 1-12-12v-7.5" stroke="#333" fill="none"/><path d="M1860.1 685.62l-.44-.05h-.5v-.52h.94z" stroke="#333" stroke-width=".05" fill="#333"/><path d="M1767.8 646.08v-.5M458.63 975h-127a12 12 0 0 1-12-12V693.07a12 12 0 0 1 12-12h36.06M458.62 975h3.5" stroke="#333" fill="none"/><path d="M378.33 681.07l-12.9 7.63v-15.27z" stroke="#333" fill="#fff"/><path d="M1099.63 1390.57c0 33.13-35.82 60-80 60s-80-26.87-80-60c0-33.14 35.82-60 80-60s80 26.86 80 60z" stroke="#333" fill="#54c45e"/><g><use xlink:href="#M" transform="matrix(1,0,0,1,963.6304512927918,1354.5662825830984) translate(1.5499999999999972 39.6)"/><use xlink:href="#r" transform="matrix(1,0,0,1,963.6304512927918,1354.5662825830984) translate(60.45 39.6)"/></g><path d="M1020.1 1313.68h-.95v-5.02h.96zm0-10.04h-.95v-10.04h.96zm1.57-25.8l-.3.5-.7 1.67-.42 1.76-.14 1.83v5h-.95v-5.05l.16-1.93.47-1.9.74-1.82.36-.57zm14.97-5.8h-5l-1.8.14-1.77.43-1.67.7-.5.3-.5-.8.57-.35 1.8-.75 1.9-.46 1.94-.15h5.04zm377.22-1.7l-.56.34-1.8.75-1.92.46-1.93.14h-5.03v-.95h5l1.8-.15 1.77-.42 1.66-.7.5-.3zm-16.26 1.7h-10.02v-.95h10.02zm-15.04 0h-10.02v-.95h10.02zm-15.04 0h-10.02v-.95h10.02zm-15.04 0h-10.02v-.95h10.02zm-15.04 0h-10.02v-.95h10.02zm-15.04 0h-10.02v-.95h10.02zm-138.2 0H1177v-.95h7.17zm-12.2 0h-10.02v-.95H1172zm-15.04 0h-10.02v-.95h10.02zm-15.04 0h-10.02v-.95h10.02zm-15.04 0h-10.02v-.95h10.02zm-15.04 0h-10.02v-.95h10.02zm-15.04 0h-10.02v-.95h10.02zm-15.04 0h-10.02v-.95h10.02zm-15.04 0h-10.02v-.95h10.02zm-15.04 0h-10.02v-.95h10.02zm368.42-12.45l-.15 1.92-.45 1.9-.75 1.8-.35.58-.8-.5.3-.5.7-1.67.4-1.76.15-1.82v-4.57h.95zm0-9.2h-.94v-9.17h.94zm0-13.75h-.94v-4.58h.94z" stroke="#333" stroke-width=".05" fill="#333"/><path d="M1419.62 1231.57h.5v.5h-.96v-.52z" fill="#333"/><path stroke="#333" stroke-width=".05" fill="#333"/><path d="M1019.63 1328.45l-4.63-14.27h9.27z" fill="#333"/><path d="M1019.63 1329.98l-5.3-16.27h10.6zm-3.98-15.32l3.98 12.25 3.98-12.24z" stroke="#333" stroke-width=".05" fill="#333"/><defs><path d="M30 0v-248h33v221h125V0H30" id="N"/><path d="M24-231v-30h32v30H24zM24 0v-190h32V0H24" id="O"/><path d="M115-194c53 0 69 39 70 98 0 66-23 100-70 100C84 3 66-7 56-30L54 0H23l1-261h32v101c10-23 28-34 59-34zm-8 174c40 0 45-34 45-75 0-40-5-75-45-74-42 0-51 32-51 76 0 43 10 73 51 73" id="P"/><path d="M114-163C36-179 61-72 57 0H25l-1-190h30c1 12-1 29 2 39 6-27 23-49 58-41v29" id="Q"/><path d="M141-36C126-15 110 5 73 4 37 3 15-17 15-53c-1-64 63-63 125-63 3-35-9-54-41-54-24 1-41 7-42 31l-33-3c5-37 33-52 76-52 45 0 72 20 72 64v82c-1 20 7 32 28 27v20c-31 9-61-2-59-35zM48-53c0 20 12 33 32 33 41-3 63-29 60-74-43 2-92-5-92 41" id="R"/><path d="M179-190L93 31C79 59 56 82 12 73V49c39 6 53-20 64-50L1-190h34L92-34l54-156h33" id="S"/><g id="a"><use transform="matrix(0.06234567901234567,0,0,0.06234567901234567,0,0)" xlink:href="#N"/><use transform="matrix(0.06234567901234567,0,0,0.06234567901234567,12.469135802469133,0)" xlink:href="#O"/><use transform="matrix(0.06234567901234567,0,0,0.06234567901234567,17.39444444444444,0)" xlink:href="#P"/><use transform="matrix(0.06234567901234567,0,0,0.06234567901234567,29.86358024691357,0)" xlink:href="#Q"/><use transform="matrix(0.06234567901234567,0,0,0.06234567901234567,37.28271604938271,0)" xlink:href="#R"/><use transform="matrix(0.06234567901234567,0,0,0.06234567901234567,49.75185185185184,0)" xlink:href="#Q"/><use transform="matrix(0.06234567901234567,0,0,0.06234567901234567,57.170987654320975,0)" xlink:href="#S"/></g><path d="M30-248c87 1 191-15 191 75 0 78-77 80-158 76V0H30v-248zm33 125c57 0 124 11 124-50 0-59-68-47-124-48v98" id="T"/><path d="M84 4C-5 8 30-112 23-190h32v120c0 31 7 50 39 49 72-2 45-101 50-169h31l1 190h-30c-1-10 1-25-2-33-11 22-28 36-60 37" id="U"/><path d="M24 0v-261h32V0H24" id="V"/><path d="M96-169c-40 0-48 33-48 73s9 75 48 75c24 0 41-14 43-38l32 2c-6 37-31 61-74 61-59 0-76-41-82-99-10-93 101-131 147-64 4 7 5 14 7 22l-32 3c-4-21-16-35-41-35" id="W"/><g id="b"><use transform="matrix(0.06234567901234567,0,0,0.06234567901234567,0,0)" xlink:href="#T"/><use transform="matrix(0.06234567901234567,0,0,0.06234567901234567,14.96296296296296,0)" xlink:href="#U"/><use transform="matrix(0.06234567901234567,0,0,0.06234567901234567,27.432098765432094,0)" xlink:href="#P"/><use transform="matrix(0.06234567901234567,0,0,0.06234567901234567,39.90123456790123,0)" xlink:href="#V"/><use transform="matrix(0.06234567901234567,0,0,0.06234567901234567,44.82654320987653,0)" xlink:href="#O"/><use transform="matrix(0.06234567901234567,0,0,0.06234567901234567,49.75185185185184,0)" xlink:href="#W"/></g><path d="M205 0l-28-72H64L36 0H1l101-248h38L239 0h-34zm-38-99l-47-123c-12 45-31 82-46 123h93" id="X"/><path d="M85-194c31 0 48 13 60 33l-1-100h32l1 261h-30c-2-10 0-23-3-31C134-8 116 4 85 4 32 4 16-35 15-94c0-66 23-100 70-100zm9 24c-40 0-46 34-46 75 0 40 6 74 45 74 42 0 51-32 51-76 0-42-9-74-50-73" id="Y"/><path d="M210-169c-67 3-38 105-44 169h-31v-121c0-29-5-50-35-48C34-165 62-65 56 0H25l-1-190h30c1 10-1 24 2 32 10-44 99-50 107 0 11-21 27-35 58-36 85-2 47 119 55 194h-31v-121c0-29-5-49-35-48" id="Z"/><path d="M117-194c89-4 53 116 60 194h-32v-121c0-31-8-49-39-48C34-167 62-67 57 0H25l-1-190h30c1 10-1 24 2 32 11-22 29-35 61-36" id="aa"/><g id="c"><use transform="matrix(0.06234567901234567,0,0,0.06234567901234567,0,0)" xlink:href="#X"/><use transform="matrix(0.06234567901234567,0,0,0.06234567901234567,14.96296296296296,0)" xlink:href="#Y"/><use transform="matrix(0.06234567901234567,0,0,0.06234567901234567,27.432098765432094,0)" xlink:href="#Z"/><use transform="matrix(0.06234567901234567,0,0,0.06234567901234567,46.073456790123444,0)" xlink:href="#O"/><use transform="matrix(0.06234567901234567,0,0,0.06234567901234567,50.99876543209875,0)" xlink:href="#aa"/></g><path d="M135-143c-3-34-86-38-87 0 15 53 115 12 119 90S17 21 10-45l28-5c4 36 97 45 98 0-10-56-113-15-118-90-4-57 82-63 122-42 12 7 21 19 24 35" id="ab"/><path d="M106-169C34-169 62-67 57 0H25v-261h32l-1 103c12-21 28-36 61-36 89 0 53 116 60 194h-32v-121c2-32-8-49-39-48" id="ac"/><path d="M100-194c63 0 86 42 84 106H49c0 40 14 67 53 68 26 1 43-12 49-29l28 8c-11 28-37 45-77 45C44 4 14-33 15-96c1-61 26-98 85-98zm52 81c6-60-76-77-97-28-3 7-6 17-6 28h103" id="ad"/><g id="d"><use transform="matrix(0.06234567901234567,0,0,0.06234567901234567,0,0)" xlink:href="#T"/><use transform="matrix(0.06234567901234567,0,0,0.06234567901234567,14.96296296296296,0)" xlink:href="#U"/><use transform="matrix(0.06234567901234567,0,0,0.06234567901234567,27.432098765432094,0)" xlink:href="#P"/><use transform="matrix(0.06234567901234567,0,0,0.06234567901234567,39.90123456790123,0)" xlink:href="#V"/><use transform="matrix(0.06234567901234567,0,0,0.06234567901234567,44.82654320987653,0)" xlink:href="#O"/><use transform="matrix(0.06234567901234567,0,0,0.06234567901234567,49.75185185185184,0)" xlink:href="#ab"/><use transform="matrix(0.06234567901234567,0,0,0.06234567901234567,60.97407407407406,0)" xlink:href="#ac"/><use transform="matrix(0.06234567901234567,0,0,0.06234567901234567,73.4432098765432,0)" xlink:href="#ad"/><use transform="matrix(0.06234567901234567,0,0,0.06234567901234567,85.91234567901233,0)" xlink:href="#Q"/></g><path d="M137 0h-34L2-248h35l83 218 83-218h36" id="ae"/><path d="M206 0h-36l-40-164L89 0H53L-1-190h32L70-26l43-164h34l41 164 42-164h31" id="af"/><g id="e"><use transform="matrix(0.05,0,0,0.05,0,0)" xlink:href="#ae"/><use transform="matrix(0.05,0,0,0.05,11.65,0)" xlink:href="#O"/><use transform="matrix(0.05,0,0,0.05,15.600000000000001,0)" xlink:href="#ad"/><use transform="matrix(0.05,0,0,0.05,25.6,0)" xlink:href="#af"/></g><path d="M212-179c-10-28-35-45-73-45-59 0-87 40-87 99 0 60 29 101 89 101 43 0 62-24 78-52l27 14C228-24 195 4 139 4 59 4 22-46 18-125c-6-104 99-153 187-111 19 9 31 26 39 46" id="ag"/><path d="M59-47c-2 24 18 29 38 22v24C64 9 27 4 27-40v-127H5v-23h24l9-43h21v43h35v23H59v120" id="ah"/><path d="M100-194c62-1 85 37 85 99 1 63-27 99-86 99S16-35 15-95c0-66 28-99 85-99zM99-20c44 1 53-31 53-75 0-43-8-75-51-75s-53 32-53 75 10 74 51 75" id="ai"/><path d="M177-190C167-65 218 103 67 71c-23-6-38-20-44-43l32-5c15 47 100 32 89-28v-30C133-14 115 1 83 1 29 1 15-40 15-95c0-56 16-97 71-98 29-1 48 16 59 35 1-10 0-23 2-32h30zM94-22c36 0 50-32 50-73 0-42-14-75-50-75-39 0-46 34-46 75s6 73 46 73" id="aj"/><g id="f"><use transform="matrix(0.05,0,0,0.05,0,0)" xlink:href="#ag"/><use transform="matrix(0.05,0,0,0.05,12.950000000000001,0)" xlink:href="#R"/><use transform="matrix(0.05,0,0,0.05,22.950000000000003,0)" xlink:href="#ah"/><use transform="matrix(0.05,0,0,0.05,27.950000000000003,0)" xlink:href="#R"/><use transform="matrix(0.05,0,0,0.05,37.95,0)" xlink:href="#V"/><use transform="matrix(0.05,0,0,0.05,41.900000000000006,0)" xlink:href="#ai"/><use transform="matrix(0.05,0,0,0.05,51.900000000000006,0)" xlink:href="#aj"/><use transform="matrix(0.05,0,0,0.05,61.900000000000006,0)" xlink:href="#U"/><use transform="matrix(0.05,0,0,0.05,71.9,0)" xlink:href="#ad"/></g><g id="g"><use transform="matrix(0.05,0,0,0.05,0,0)" xlink:href="#N"/><use transform="matrix(0.05,0,0,0.05,10,0)" xlink:href="#ai"/><use transform="matrix(0.05,0,0,0.05,20,0)" xlink:href="#aj"/><use transform="matrix(0.05,0,0,0.05,30,0)" xlink:href="#O"/><use transform="matrix(0.05,0,0,0.05,33.95,0)" xlink:href="#aa"/></g><g id="h"><use transform="matrix(0.05,0,0,0.05,0,0)" xlink:href="#ae"/><use transform="matrix(0.05,0,0,0.05,10.65,0)" xlink:href="#R"/><use transform="matrix(0.05,0,0,0.05,20.65,0)" xlink:href="#V"/><use transform="matrix(0.05,0,0,0.05,24.599999999999998,0)" xlink:href="#O"/><use transform="matrix(0.05,0,0,0.05,28.549999999999997,0)" xlink:href="#Y"/><use transform="matrix(0.05,0,0,0.05,38.55,0)" xlink:href="#R"/><use transform="matrix(0.05,0,0,0.05,48.55,0)" xlink:href="#ah"/><use transform="matrix(0.05,0,0,0.05,53.54999999999999,0)" xlink:href="#ad"/></g><g id="i"><use transform="matrix(0.05,0,0,0.05,0,0)" xlink:href="#N"/><use transform="matrix(0.05,0,0,0.05,10,0)" xlink:href="#ai"/><use transform="matrix(0.05,0,0,0.05,20,0)" xlink:href="#aj"/><use transform="matrix(0.05,0,0,0.05,30,0)" xlink:href="#O"/><use transform="matrix(0.05,0,0,0.05,33.95,0)" xlink:href="#aa"/></g><g id="j"><use transform="matrix(0.05,0,0,0.05,0,0)" xlink:href="#af"/><use transform="matrix(0.05,0,0,0.05,12.950000000000001,0)" xlink:href="#O"/><use transform="matrix(0.05,0,0,0.05,16.900000000000002,0)" xlink:href="#ah"/><use transform="matrix(0.05,0,0,0.05,21.900000000000002,0)" xlink:href="#ac"/></g><path d="M140-251c81 0 123 46 123 126C263-46 219 4 140 4 59 4 17-45 17-125s42-126 123-126zm0 227c63 0 89-41 89-101s-29-99-89-99c-61 0-89 39-89 99S79-25 140-24" id="ak"/><g id="k"><use transform="matrix(0.05,0,0,0.05,0,0)" xlink:href="#ak"/><use transform="matrix(0.05,0,0,0.05,14,0)" xlink:href="#X"/><use transform="matrix(0.05,0,0,0.05,26,0)" xlink:href="#U"/><use transform="matrix(0.05,0,0,0.05,36,0)" xlink:href="#ah"/><use transform="matrix(0.05,0,0,0.05,41,0)" xlink:href="#ac"/></g><path d="M30-248c118-7 216 8 213 122C240-48 200 0 122 0H30v-248zM63-27c89 8 146-16 146-99s-60-101-146-95v194" id="al"/><path d="M115-194c55 1 70 41 70 98S169 2 115 4C84 4 66-9 55-30l1 105H24l-1-265h31l2 30c10-21 28-34 59-34zm-8 174c40 0 45-34 45-75s-6-73-45-74c-42 0-51 32-51 76 0 43 10 73 51 73" id="am"/><g id="l"><use transform="matrix(0.05,0,0,0.05,0,0)" xlink:href="#al"/><use transform="matrix(0.05,0,0,0.05,12.950000000000001,0)" xlink:href="#O"/><use transform="matrix(0.05,0,0,0.05,16.900000000000002,0)" xlink:href="#ab"/><use transform="matrix(0.05,0,0,0.05,25.900000000000002,0)" xlink:href="#am"/><use transform="matrix(0.05,0,0,0.05,35.900000000000006,0)" xlink:href="#V"/><use transform="matrix(0.05,0,0,0.05,39.85000000000001,0)" xlink:href="#R"/><use transform="matrix(0.05,0,0,0.05,49.85000000000001,0)" xlink:href="#S"/></g><path d="M30 0v-248h187v28H63v79h144v27H63v87h162V0H30" id="an"/><g id="m"><use transform="matrix(0.05,0,0,0.05,0,0)" xlink:href="#an"/><use transform="matrix(0.05,0,0,0.05,12,0)" xlink:href="#Q"/><use transform="matrix(0.05,0,0,0.05,17.95,0)" xlink:href="#Q"/><use transform="matrix(0.05,0,0,0.05,23.9,0)" xlink:href="#ai"/><use transform="matrix(0.05,0,0,0.05,33.9,0)" xlink:href="#Q"/></g><path d="M232-93c-1 65-40 97-104 97C67 4 28-28 28-90v-158h33c8 89-33 224 67 224 102 0 64-133 71-224h33v155" id="ao"/><g id="n"><use transform="matrix(0.06234567901234567,0,0,0.06234567901234567,0,0)" xlink:href="#ao"/><use transform="matrix(0.06234567901234567,0,0,0.06234567901234567,16.147530864197527,0)" xlink:href="#ab"/><use transform="matrix(0.06234567901234567,0,0,0.06234567901234567,27.36975308641975,0)" xlink:href="#ad"/><use transform="matrix(0.06234567901234567,0,0,0.06234567901234567,39.83888888888888,0)" xlink:href="#Q"/></g><path d="M18-100v-36l175-74v27L42-118l151 64v27" id="ap"/><path d="M18-27v-27l151-64-151-65v-27l175 74v36" id="aq"/><g id="o"><use transform="matrix(0.06234567901234567,0,0,0.06234567901234567,0,0)" xlink:href="#ap"/><use transform="matrix(0.06234567901234567,0,0,0.06234567901234567,13.09259259259259,0)" xlink:href="#ap"/><use transform="matrix(0.06234567901234567,0,0,0.06234567901234567,26.18518518518518,0)" xlink:href="#O"/><use transform="matrix(0.06234567901234567,0,0,0.06234567901234567,31.11049382716049,0)" xlink:href="#aa"/><use transform="matrix(0.06234567901234567,0,0,0.06234567901234567,43.57962962962962,0)" xlink:href="#W"/><use transform="matrix(0.06234567901234567,0,0,0.06234567901234567,54.80185185185184,0)" xlink:href="#V"/><use transform="matrix(0.06234567901234567,0,0,0.06234567901234567,59.72716049382715,0)" xlink:href="#U"/><use transform="matrix(0.06234567901234567,0,0,0.06234567901234567,72.19629629629628,0)" xlink:href="#Y"/><use transform="matrix(0.06234567901234567,0,0,0.06234567901234567,84.66543209876542,0)" xlink:href="#ad"/><use transform="matrix(0.06234567901234567,0,0,0.06234567901234567,97.13456790123456,0)" xlink:href="#aq"/><use transform="matrix(0.06234567901234567,0,0,0.06234567901234567,110.22716049382716,0)" xlink:href="#aq"/></g><path d="M141 0L90-78 38 0H4l68-98-65-92h35l48 74 47-74h35l-64 92 68 98h-35" id="ar"/><g id="p"><use transform="matrix(0.06234567901234567,0,0,0.06234567901234567,0,0)" xlink:href="#ap"/><use transform="matrix(0.06234567901234567,0,0,0.06234567901234567,13.09259259259259,0)" xlink:href="#ap"/><use transform="matrix(0.06234567901234567,0,0,0.06234567901234567,26.18518518518518,0)" xlink:href="#ad"/><use transform="matrix(0.06234567901234567,0,0,0.06234567901234567,38.654320987654316,0)" xlink:href="#ar"/><use transform="matrix(0.06234567901234567,0,0,0.06234567901234567,49.87654320987654,0)" xlink:href="#ah"/><use transform="matrix(0.06234567901234567,0,0,0.06234567901234567,56.1111111111111,0)" xlink:href="#ad"/><use transform="matrix(0.06234567901234567,0,0,0.06234567901234567,68.58024691358023,0)" xlink:href="#aa"/><use transform="matrix(0.06234567901234567,0,0,0.06234567901234567,81.04938271604937,0)" xlink:href="#Y"/><use transform="matrix(0.06234567901234567,0,0,0.06234567901234567,93.5185185185185,0)" xlink:href="#aq"/><use transform="matrix(0.06234567901234567,0,0,0.06234567901234567,106.6111111111111,0)" xlink:href="#aq"/></g><path d="M143 0L79-87 56-68V0H24v-261h32v163l83-92h37l-77 82L181 0h-38" id="as"/><g id="q"><use transform="matrix(0.05,0,0,0.05,0,0)" xlink:href="#ag"/><use transform="matrix(0.05,0,0,0.05,12.950000000000001,0)" xlink:href="#ac"/><use transform="matrix(0.05,0,0,0.05,22.950000000000003,0)" xlink:href="#ad"/><use transform="matrix(0.05,0,0,0.05,32.95,0)" xlink:href="#W"/><use transform="matrix(0.05,0,0,0.05,41.95,0)" xlink:href="#as"/><use transform="matrix(0.05,0,0,0.05,50.95,0)" xlink:href="#ai"/><use transform="matrix(0.05,0,0,0.05,60.95,0)" xlink:href="#U"/><use transform="matrix(0.05,0,0,0.05,70.95,0)" xlink:href="#ah"/></g><path d="M160-131c35 5 61 23 61 61C221 17 115-2 30 0v-248c76 3 177-17 177 60 0 33-19 50-47 57zm-97-11c50-1 110 9 110-42 0-47-63-36-110-37v79zm0 115c55-2 124 14 124-45 0-56-70-42-124-44v89" id="at"/><g id="r"><use transform="matrix(0.05,0,0,0.05,0,0)" xlink:href="#at"/><use transform="matrix(0.05,0,0,0.05,12,0)" xlink:href="#ai"/><use transform="matrix(0.05,0,0,0.05,22,0)" xlink:href="#ai"/><use transform="matrix(0.05,0,0,0.05,32,0)" xlink:href="#as"/><use transform="matrix(0.05,0,0,0.05,41,0)" xlink:href="#ab"/></g><path d="M240 0l2-218c-23 76-54 145-80 218h-23L58-218 59 0H30v-248h44l77 211c21-75 51-140 76-211h43V0h-30" id="au"/><g id="s"><use transform="matrix(0.05,0,0,0.05,0,0)" xlink:href="#au"/><use transform="matrix(0.05,0,0,0.05,14.950000000000001,0)" xlink:href="#R"/><use transform="matrix(0.05,0,0,0.05,24.950000000000003,0)" xlink:href="#aa"/><use transform="matrix(0.05,0,0,0.05,34.95,0)" xlink:href="#R"/><use transform="matrix(0.05,0,0,0.05,44.95,0)" xlink:href="#aj"/><use transform="matrix(0.05,0,0,0.05,54.95,0)" xlink:href="#ad"/></g><path d="M33 0v-248h34V0H33" id="av"/><path d="M108 0H70L1-190h34L89-25l56-165h34" id="aw"/><g id="t"><use transform="matrix(0.05,0,0,0.05,0,0)" xlink:href="#av"/><use transform="matrix(0.05,0,0,0.05,5,0)" xlink:href="#aa"/><use transform="matrix(0.05,0,0,0.05,15,0)" xlink:href="#aw"/><use transform="matrix(0.05,0,0,0.05,24,0)" xlink:href="#ad"/><use transform="matrix(0.05,0,0,0.05,34,0)" xlink:href="#aa"/><use transform="matrix(0.05,0,0,0.05,44,0)" xlink:href="#ah"/><use transform="matrix(0.05,0,0,0.05,49,0)" xlink:href="#ai"/><use transform="matrix(0.05,0,0,0.05,59,0)" xlink:href="#Q"/><use transform="matrix(0.05,0,0,0.05,64.95,0)" xlink:href="#S"/></g><g id="u"><use transform="matrix(0.05,0,0,0.05,0,0)" xlink:href="#X"/><use transform="matrix(0.05,0,0,0.05,12,0)" xlink:href="#Y"/><use transform="matrix(0.05,0,0,0.05,22,0)" xlink:href="#Y"/></g><g id="v"><use transform="matrix(0.05,0,0,0.05,0,0)" xlink:href="#av"/><use transform="matrix(0.05,0,0,0.05,5,0)" xlink:href="#ah"/><use transform="matrix(0.05,0,0,0.05,10,0)" xlink:href="#ad"/><use transform="matrix(0.05,0,0,0.05,20,0)" xlink:href="#Z"/></g><path d="M233-177c-1 41-23 64-60 70L243 0h-38l-65-103H63V0H30v-248c88 3 205-21 203 71zM63-129c60-2 137 13 137-47 0-61-80-42-137-45v92" id="ax"/><g id="w"><use transform="matrix(0.05,0,0,0.05,0,0)" xlink:href="#ax"/><use transform="matrix(0.05,0,0,0.05,12.950000000000001,0)" xlink:href="#ad"/><use transform="matrix(0.05,0,0,0.05,22.950000000000003,0)" xlink:href="#Z"/><use transform="matrix(0.05,0,0,0.05,37.900000000000006,0)" xlink:href="#ai"/><use transform="matrix(0.05,0,0,0.05,47.900000000000006,0)" xlink:href="#aw"/><use transform="matrix(0.05,0,0,0.05,56.900000000000006,0)" xlink:href="#ad"/></g><g id="x"><use transform="matrix(0.05,0,0,0.05,0,0)" xlink:href="#an"/><use transform="matrix(0.05,0,0,0.05,12,0)" xlink:href="#Y"/><use transform="matrix(0.05,0,0,0.05,22,0)" xlink:href="#O"/><use transform="matrix(0.05,0,0,0.05,25.950000000000003,0)" xlink:href="#ah"/></g><g id="y"><use transform="matrix(0.05,0,0,0.05,0,0)" xlink:href="#au"/><use transform="matrix(0.05,0,0,0.05,14.950000000000001,0)" xlink:href="#O"/><use transform="matrix(0.05,0,0,0.05,18.900000000000002,0)" xlink:href="#aa"/><use transform="matrix(0.05,0,0,0.05,28.900000000000002,0)" xlink:href="#ai"/><use transform="matrix(0.05,0,0,0.05,38.900000000000006,0)" xlink:href="#Q"/></g><g id="z"><use transform="matrix(0.05,0,0,0.05,0,0)" xlink:href="#al"/><use transform="matrix(0.05,0,0,0.05,12.950000000000001,0)" xlink:href="#ad"/><use transform="matrix(0.05,0,0,0.05,22.950000000000003,0)" xlink:href="#ah"/><use transform="matrix(0.05,0,0,0.05,27.950000000000003,0)" xlink:href="#R"/><use transform="matrix(0.05,0,0,0.05,37.95,0)" xlink:href="#O"/><use transform="matrix(0.05,0,0,0.05,41.900000000000006,0)" xlink:href="#V"/><use transform="matrix(0.05,0,0,0.05,45.85000000000001,0)" xlink:href="#ab"/></g><path d="M24-231v-30h32v30H24zM-9 49c24 4 33-6 33-30v-209h32V24c2 40-23 58-65 49V49" id="ay"/><g id="A"><use transform="matrix(0.05,0,0,0.05,0,0)" xlink:href="#au"/><use transform="matrix(0.05,0,0,0.05,14.950000000000001,0)" xlink:href="#R"/><use transform="matrix(0.05,0,0,0.05,24.950000000000003,0)" xlink:href="#ay"/><use transform="matrix(0.05,0,0,0.05,28.900000000000002,0)" xlink:href="#ai"/><use transform="matrix(0.05,0,0,0.05,38.900000000000006,0)" xlink:href="#Q"/></g><g id="B"><use transform="matrix(0.05,0,0,0.05,0,0)" xlink:href="#al"/><use transform="matrix(0.05,0,0,0.05,12.950000000000001,0)" xlink:href="#O"/><use transform="matrix(0.05,0,0,0.05,16.900000000000002,0)" xlink:href="#ab"/><use transform="matrix(0.05,0,0,0.05,25.900000000000002,0)" xlink:href="#am"/><use transform="matrix(0.05,0,0,0.05,35.900000000000006,0)" xlink:href="#V"/><use transform="matrix(0.05,0,0,0.05,39.85000000000001,0)" xlink:href="#R"/><use transform="matrix(0.05,0,0,0.05,49.85000000000001,0)" xlink:href="#S"/></g><g id="C"><use transform="matrix(0.05,0,0,0.05,0,0)" xlink:href="#X"/><use transform="matrix(0.05,0,0,0.05,12,0)" xlink:href="#U"/><use transform="matrix(0.05,0,0,0.05,22,0)" xlink:href="#ah"/><use transform="matrix(0.05,0,0,0.05,27,0)" xlink:href="#ac"/><use transform="matrix(0.05,0,0,0.05,37,0)" xlink:href="#ad"/><use transform="matrix(0.05,0,0,0.05,47,0)" xlink:href="#aa"/><use transform="matrix(0.05,0,0,0.05,57,0)" xlink:href="#ah"/><use transform="matrix(0.05,0,0,0.05,62,0)" xlink:href="#O"/><use transform="matrix(0.05,0,0,0.05,65.95,0)" xlink:href="#W"/><use transform="matrix(0.05,0,0,0.05,74.95,0)" xlink:href="#R"/><use transform="matrix(0.05,0,0,0.05,84.95,0)" xlink:href="#ah"/><use transform="matrix(0.05,0,0,0.05,89.95,0)" xlink:href="#O"/><use transform="matrix(0.05,0,0,0.05,93.9,0)" xlink:href="#ai"/><use transform="matrix(0.05,0,0,0.05,103.9,0)" xlink:href="#aa"/></g><g id="D"><use transform="matrix(0.05,0,0,0.05,0,0)" xlink:href="#ag"/><use transform="matrix(0.05,0,0,0.05,12.950000000000001,0)" xlink:href="#ac"/><use transform="matrix(0.05,0,0,0.05,22.950000000000003,0)" xlink:href="#ad"/><use transform="matrix(0.05,0,0,0.05,32.95,0)" xlink:href="#W"/><use transform="matrix(0.05,0,0,0.05,41.95,0)" xlink:href="#as"/></g><g id="E"><use transform="matrix(0.05,0,0,0.05,0,0)" xlink:href="#T"/><use transform="matrix(0.05,0,0,0.05,12,0)" xlink:href="#ad"/><use transform="matrix(0.05,0,0,0.05,22,0)" xlink:href="#Q"/><use transform="matrix(0.05,0,0,0.05,27.950000000000003,0)" xlink:href="#Z"/><use transform="matrix(0.05,0,0,0.05,42.9,0)" xlink:href="#O"/><use transform="matrix(0.05,0,0,0.05,46.85,0)" xlink:href="#ab"/><use transform="matrix(0.05,0,0,0.05,55.85,0)" xlink:href="#ab"/><use transform="matrix(0.05,0,0,0.05,64.85,0)" xlink:href="#O"/><use transform="matrix(0.05,0,0,0.05,68.8,0)" xlink:href="#ai"/><use transform="matrix(0.05,0,0,0.05,78.8,0)" xlink:href="#aa"/><use transform="matrix(0.05,0,0,0.05,88.8,0)" xlink:href="#ab"/></g><g id="F"><use transform="matrix(0.05,0,0,0.05,0,0)" xlink:href="#ag"/><use transform="matrix(0.05,0,0,0.05,12.950000000000001,0)" xlink:href="#ai"/><use transform="matrix(0.05,0,0,0.05,22.950000000000003,0)" xlink:href="#aa"/><use transform="matrix(0.05,0,0,0.05,32.95,0)" xlink:href="#aa"/><use transform="matrix(0.05,0,0,0.05,42.95,0)" xlink:href="#ad"/><use transform="matrix(0.05,0,0,0.05,52.95,0)" xlink:href="#W"/><use transform="matrix(0.05,0,0,0.05,61.95,0)" xlink:href="#ah"/></g><g id="G"><use transform="matrix(0.05,0,0,0.05,0,0)" xlink:href="#ah"/><use transform="matrix(0.05,0,0,0.05,5,0)" xlink:href="#ai"/></g><g id="H"><use transform="matrix(0.05,0,0,0.05,0,0)" xlink:href="#au"/><use transform="matrix(0.05,0,0,0.05,14.950000000000001,0)" xlink:href="#ai"/><use transform="matrix(0.05,0,0,0.05,24.950000000000003,0)" xlink:href="#aa"/><use transform="matrix(0.05,0,0,0.05,34.95,0)" xlink:href="#aj"/><use transform="matrix(0.05,0,0,0.05,44.95,0)" xlink:href="#ai"/><use transform="matrix(0.05,0,0,0.05,54.95,0)" xlink:href="#al"/><use transform="matrix(0.05,0,0,0.05,67.9,0)" xlink:href="#at"/></g><g id="I"><use transform="matrix(0.05,0,0,0.05,0,0)" xlink:href="#ab"/><use transform="matrix(0.05,0,0,0.05,9,0)" xlink:href="#ah"/><use transform="matrix(0.05,0,0,0.05,14,0)" xlink:href="#ai"/><use transform="matrix(0.05,0,0,0.05,24,0)" xlink:href="#Q"/><use transform="matrix(0.05,0,0,0.05,29.950000000000003,0)" xlink:href="#ad"/></g><path d="M101-234c-31-9-42 10-38 44h38v23H63V0H32v-167H5v-23h27c-7-52 17-82 69-68v24" id="az"/><g id="J"><use transform="matrix(0.05,0,0,0.05,0,0)" xlink:href="#O"/><use transform="matrix(0.05,0,0,0.05,3.95,0)" xlink:href="#aa"/><use transform="matrix(0.05,0,0,0.05,13.949999999999998,0)" xlink:href="#az"/><use transform="matrix(0.05,0,0,0.05,18.95,0)" xlink:href="#ai"/><use transform="matrix(0.05,0,0,0.05,28.950000000000003,0)" xlink:href="#Q"/><use transform="matrix(0.05,0,0,0.05,34.9,0)" xlink:href="#Z"/><use transform="matrix(0.05,0,0,0.05,49.85,0)" xlink:href="#R"/><use transform="matrix(0.05,0,0,0.05,59.85,0)" xlink:href="#ah"/><use transform="matrix(0.05,0,0,0.05,64.85,0)" xlink:href="#O"/><use transform="matrix(0.05,0,0,0.05,68.8,0)" xlink:href="#ai"/><use transform="matrix(0.05,0,0,0.05,78.8,0)" xlink:href="#aa"/></g><g id="K"><use transform="matrix(0.06234567901234567,0,0,0.06234567901234567,0,0)" xlink:href="#an"/><use transform="matrix(0.06234567901234567,0,0,0.06234567901234567,14.96296296296296,0)" xlink:href="#V"/><use transform="matrix(0.06234567901234567,0,0,0.06234567901234567,19.888271604938268,0)" xlink:href="#ad"/><use transform="matrix(0.06234567901234567,0,0,0.06234567901234567,32.3574074074074,0)" xlink:href="#aw"/><use transform="matrix(0.06234567901234567,0,0,0.06234567901234567,43.57962962962962,0)" xlink:href="#R"/><use transform="matrix(0.06234567901234567,0,0,0.06234567901234567,56.048765432098755,0)" xlink:href="#ah"/><use transform="matrix(0.06234567901234567,0,0,0.06234567901234567,62.28333333333332,0)" xlink:href="#ad"/><use transform="matrix(0.06234567901234567,0,0,0.06234567901234567,74.75246913580244,0)" xlink:href="#Y"/></g><g id="L"><use transform="matrix(0.06234567901234567,0,0,0.06234567901234567,0,0)" xlink:href="#ao"/><use transform="matrix(0.06234567901234567,0,0,0.06234567901234567,16.147530864197527,0)" xlink:href="#ab"/><use transform="matrix(0.06234567901234567,0,0,0.06234567901234567,27.36975308641975,0)" xlink:href="#ad"/><use transform="matrix(0.06234567901234567,0,0,0.06234567901234567,39.83888888888888,0)" xlink:href="#Q"/></g><g id="M"><use transform="matrix(0.05,0,0,0.05,0,0)" xlink:href="#ax"/><use transform="matrix(0.05,0,0,0.05,12.950000000000001,0)" xlink:href="#ad"/><use transform="matrix(0.05,0,0,0.05,22.950000000000003,0)" xlink:href="#ah"/><use transform="matrix(0.05,0,0,0.05,27.950000000000003,0)" xlink:href="#U"/><use transform="matrix(0.05,0,0,0.05,37.95,0)" xlink:href="#Q"/><use transform="matrix(0.05,0,0,0.05,43.900000000000006,0)" xlink:href="#aa"/></g></defs></g></svg>